<svg width="729" height="728" xmlns="http://www.w3.org/2000/svg" xmlns:xlink="http://www.w3.org/1999/xlink"><defs><rect id="a" y="354" width="168" height="168" rx="12"/><mask id="j" x="0" y="0" width="168" height="168" fill="#fff"><use xlink:href="#a"/></mask><rect id="b" x="177" y="354" width="168" height="168" rx="12"/><mask id="k" x="0" y="0" width="168" height="168" fill="#fff"><use xlink:href="#b"/></mask><rect id="c" x="354" width="168" height="168" rx="12"/><mask id="l" x="0" y="0" width="168" height="168" fill="#fff"><use xlink:href="#c"/></mask><rect id="d" x="178" width="168" height="168" rx="12"/><mask id="m" x="0" y="0" width="168" height="168" fill="#fff"><use xlink:href="#d"/></mask><rect id="e" x="1" width="168" height="168" rx="12"/><mask id="n" x="0" y="0" width="168" height="168" fill="#fff"><use xlink:href="#e"/></mask><rect id="f" x="1" y="177" width="168" height="168" rx="12"/><mask id="o" x="0" y="0" width="168" height="168" fill="#fff"><use xlink:href="#f"/></mask><rect id="g" x="178" y="177" width="168" height="168" rx="12"/><mask id="p" x="0" y="0" width="168" height="168" fill="#fff"><use xlink:href="#g"/></mask><rect id="h" x="355" y="177" width="168" height="168" rx="12"/><mask id="q" x="0" y="0" width="168" height="168" fill="#fff"><use xlink:href="#h"/></mask><rect id="i" x="354" y="354" width="168" height="168" rx="12"/><mask id="r" x="0" y="0" width="168" height="168" fill="#fff"><use xlink:href="#i"/></mask></defs><g fill="none" fill-rule="evenodd" opacity=".5"><g transform="rotate(45 188.668 436.832)" stroke-width="2"><use stroke="#2681FF" mask="url(#j)" opacity=".5" xlink:href="#a"/><use stroke="#3D4B5E" mask="url(#k)" xlink:href="#b"/><use stroke="#3D4B5E" mask="url(#l)" xlink:href="#c"/><use stroke="#3D4B5E" mask="url(#m)" xlink:href="#d"/><use stroke="#3D4B5E" mask="url(#n)" xlink:href="#e"/><use stroke="#3C4B5E" mask="url(#o)" xlink:href="#f"/><use stroke="#3C4B5E" mask="url(#p)" xlink:href="#g"/><use stroke="#3C4B5E" mask="url(#q)" xlink:href="#h"/><use stroke="#3D4B5E" mask="url(#r)" xlink:href="#i"/></g><path d="M391.89 351.292l-6.503-4.99-9.08 11.812-9.1-11.813-6.505 4.991 10.411 13.557-9.887 12.859 6.504 4.99 8.578-11.115 8.555 11.116 6.526-4.991-9.909-12.86zm-36.71-12.118h-7.922v32.54c.022.61 0 9.437-10.17 10.2v7.912s18.18-.981 18.07-18.134v-32.518h.023z" fill="#354254"/></g></svg>