<svg id="Layer_1" xmlns="http://www.w3.org/2000/svg" viewBox="0 0 729 728" enable-background="new 0 0 729 728"><style>.st2{fill:#fff}.st4{fill:none;stroke:#3c4b5e;stroke-width:2}.st7{fill:#354254}</style><g id="Page-1" opacity=".5"><g id="Artboard-4" transform="translate(-1589 -166)"><g id="Cube-Graphic-Copy-2" transform="translate(1584 160)"><defs><filter id="Adobe_OpacityMaskFilter" filterUnits="userSpaceOnUse" x="4" y="5.2" width="730.3" height="729.6"><feColorMatrix values="1 0 0 0 0 0 1 0 0 0 0 0 1 0 0 0 0 0 1 0"/></filter></defs><mask maskUnits="userSpaceOnUse" x="4" y="5.2" width="730.3" height="729.6" id="mask-2"><g filter="url(#Adobe_OpacityMaskFilter)"><path id="path-1" class="st2" d="M17 360h144c6.6 0 12 5.4 12 12v144c0 6.6-5.4 12-12 12H17c-6.6 0-12-5.4-12-12V372c0-6.6 5.4-12 12-12z"/></g><path id="path-3" class="st2" d="M194 360h144c6.6 0 12 5.4 12 12v144c0 6.6-5.4 12-12 12H194c-6.6 0-12-5.4-12-12V372c0-6.6 5.4-12 12-12z"/><path id="path-5" class="st2" d="M371 6h144c6.6 0 12 5.4 12 12v144c0 6.6-5.4 12-12 12H371c-6.6 0-12-5.4-12-12V18c0-6.6 5.4-12 12-12z"/><path id="path-7" class="st2" d="M195 6h144c6.6 0 12 5.4 12 12v144c0 6.6-5.4 12-12 12H195c-6.6 0-12-5.4-12-12V18c0-6.6 5.4-12 12-12z"/><path id="path-9" class="st2" d="M18 6h144c6.6 0 12 5.4 12 12v144c0 6.6-5.4 12-12 12H18c-6.6 0-12-5.4-12-12V18c0-6.6 5.4-12 12-12z"/><path id="path-11" class="st2" d="M18 183h144c6.6 0 12 5.4 12 12v144c0 6.6-5.4 12-12 12H18c-6.6 0-12-5.4-12-12V195c0-6.6 5.4-12 12-12z"/><path id="path-13" class="st2" d="M195 183h144c6.6 0 12 5.4 12 12v144c0 6.6-5.4 12-12 12H195c-6.6 0-12-5.4-12-12V195c0-6.6 5.4-12 12-12z"/><path id="path-15" class="st2" d="M372 183h144c6.6 0 12 5.4 12 12v144c0 6.6-5.4 12-12 12H372c-6.6 0-12-5.4-12-12V195c0-6.6 5.4-12 12-12z"/><path id="path-17" class="st2" d="M371 360h144c6.6 0 12 5.4 12 12v144c0 6.6-5.4 12-12 12H371c-6.6 0-12-5.4-12-12V372c0-6.6 5.4-12 12-12z"/></mask><g id="cubes" transform="rotate(45 183.925 445.868)" mask="url(#mask-2)"><g id="Rectangle-17"><path id="path-1_1_" class="st4" d="M12 354h144c6.6 0 12 5.4 12 12v144c0 6.6-5.4 12-12 12H12c-6.6 0-12-5.4-12-12V366c0-6.6 5.4-12 12-12z"/></g><g id="Rectangle-17-Copy"><path id="path-3_1_" class="st4" d="M189 354h144c6.6 0 12 5.4 12 12v144c0 6.6-5.4 12-12 12H189c-6.6 0-12-5.4-12-12V366c0-6.6 5.4-12 12-12z"/></g><g id="Rectangle-17-Copy_1_"><path id="path-5_1_" class="st4" d="M366 0h144c6.6 0 12 5.4 12 12v144c0 6.6-5.4 12-12 12H366c-6.6 0-12-5.4-12-12V12c0-6.6 5.4-12 12-12z"/></g><g id="Rectangle-17-Copy_2_"><path id="path-7_1_" d="M190 0h144c6.6 0 12 5.4 12 12v144c0 6.6-5.4 12-12 12H190c-6.6 0-12-5.4-12-12V12c0-6.6 5.4-12 12-12z" fill="none" stroke="#f17221" stroke-width="2"/></g><g id="Rectangle-17-Copy_3_"><path id="path-9_1_" d="M13 0h144c6.6 0 12 5.4 12 12v144c0 6.6-5.4 12-12 12H13c-6.6 0-12-5.4-12-12V12C1 5.4 6.4 0 13 0z" fill="none" stroke="#3d4b5e" stroke-width="2"/></g><g id="Rectangle-17-Copy_4_"><path id="path-11_1_" class="st4" d="M13 177h144c6.6 0 12 5.4 12 12v144c0 6.6-5.4 12-12 12H13c-6.6 0-12-5.4-12-12V189c0-6.6 5.4-12 12-12z"/></g><g id="Rectangle-17-Copy-3"><path id="path-13_1_" class="st4" d="M190 177h144c6.6 0 12 5.4 12 12v144c0 6.6-5.4 12-12 12H190c-6.6 0-12-5.4-12-12V189c0-6.6 5.4-12 12-12z"/></g><g id="Rectangle-17-Copy-4"><path id="path-15_1_" class="st4" d="M367 177h144c6.6 0 12 5.4 12 12v144c0 6.6-5.4 12-12 12H367c-6.6 0-12-5.4-12-12V189c0-6.6 5.4-12 12-12z"/></g><g id="Rectangle-17-Copy-2"><path id="path-17_1_" class="st4" d="M366 354h144c6.6 0 12 5.4 12 12v144c0 6.6-5.4 12-12 12H366c-6.6 0-12-5.4-12-12V366c0-6.6 5.4-12 12-12z"/></g></g><g id="jaxx-mark" transform="translate(342 345)"><g id="Layer_1_1_"><path id="Shape" class="st7" d="M54.9 12.3l-6.5-5-9.1 11.8-9.1-11.8-6.5 5 10.4 13.5-9.9 12.9 6.5 5 8.6-11.1 8.6 11.1 6.5-5-9.9-12.9z"/><path id="Shape_1_" class="st7" d="M18.2.2h-7.9v32.5c0 .6 0 9.4-10.2 10.2v7.9s18.2-1 18.1-18.1V.2z"/></g></g></g></g></g></svg>