<svg id="Layer_1" xmlns="http://www.w3.org/2000/svg" viewBox="0 0 729 728"><style>.st0{opacity:.2}.st0,.st5{fill:#666}</style><path class="st0" d="M475.2 354.4L374.7 253.9c-5.4-5.4-14.4-5.4-19.8 0L254.4 354.4c-5.4 5.4-5.4 14.4 0 19.8l100.5 100.5c5.4 5.4 14.4 5.4 19.8 0l100.5-100.5c5.5-5.4 5.5-14.4 0-19.8zm-1.2 19.1l-100 100c-5.1 5.1-13.3 5.1-18.4 0l-100-100c-5.1-5.1-5.1-13.3 0-18.4l100-100c5.1-5.1 13.3-5.1 18.4 0l100 100c5.1 5.1 5.1 13.3 0 18.4zm-248.8-20.1L124.7 252.9c-5.4-5.4-14.4-5.4-19.8 0L4.4 353.4c-5.4 5.4-5.4 14.4 0 19.8l100.5 100.5c5.4 5.4 14.4 5.4 19.8 0l100.5-100.5c5.5-5.4 5.5-14.4 0-19.8zm-1.2 19.1l-100 100c-5.1 5.1-13.3 5.1-18.4 0l-100-100c-5.1-5.1-5.1-13.3 0-18.4l100-100c5.1-5.1 13.3-5.1 18.4 0l100 100c5.1 5.1 5.1 13.3 0 18.4z"/><path d="M600.2 228.4L499.7 127.9c-5.4-5.4-14.4-5.4-19.8 0L379.4 228.4c-5.4 5.4-5.4 14.4 0 19.8l100.5 100.5c5.4 5.4 14.4 5.4 19.8 0l100.5-100.5c5.5-5.4 5.5-14.4 0-19.8zm-1.2 19.1l-100 100c-5.1 5.1-13.3 5.1-18.4 0l-100-100c-5.1-5.1-5.1-13.3 0-18.4l100-100c5.1-5.1 13.3-5.1 18.4 0l100 100c5.1 5.1 5.1 13.3 0 18.4z" opacity=".21" fill="#666"/><path d="M475.2 104.4L374.7 3.9c-5.4-5.4-14.4-5.4-19.8 0L254.4 104.4c-5.4 5.4-5.4 14.4 0 19.8l100.5 100.5c5.4 5.4 14.4 5.4 19.8 0l100.5-100.5c5.5-5.4 5.5-14.4 0-19.8zm-1.2 19.1l-100 100c-5.1 5.1-13.3 5.1-18.4 0l-100-100c-5.1-5.1-5.1-13.3 0-18.4l100-100c5.1-5.1 13.3-5.1 18.4 0l100 100c5.1 5.1 5.1 13.3 0 18.4z" opacity=".3" fill="#666"/><path class="st0" d="M601.2 480.4L500.7 379.9c-5.4-5.4-14.4-5.4-19.8 0L380.4 480.4c-5.4 5.4-5.4 14.4 0 19.8l100.5 100.5c5.4 5.4 14.4 5.4 19.8 0l100.5-100.5c5.5-5.4 5.5-14.4 0-19.8zm-1.2 19.1l-100 100c-5.1 5.1-13.3 5.1-18.4 0l-100-100c-5.1-5.1-5.1-13.3 0-18.4l100-100c5.1-5.1 13.3-5.1 18.4 0l100 100c5.1 5.1 5.1 13.3 0 18.4zm-249.8-20.1L249.7 378.9c-5.4-5.4-14.4-5.4-19.8 0L129.4 479.4c-5.4 5.4-5.4 14.4 0 19.8l100.5 100.5c5.4 5.4 14.4 5.4 19.8 0l100.5-100.5c5.5-5.4 5.5-14.4 0-19.8zm-1.2 19.1l-100 100c-5.1 5.1-13.3 5.1-18.4 0l-100-100c-5.1-5.1-5.1-13.3 0-18.4l100-100c5.1-5.1 13.3-5.1 18.4 0l100 100c5.1 5.1 5.1 13.3 0 18.4zm126.2 104.9L374.7 502.9c-5.4-5.4-14.4-5.4-19.8 0L254.4 603.4c-5.4 5.4-5.4 14.4 0 19.8l100.5 100.5c5.4 5.4 14.4 5.4 19.8 0l100.5-100.5c5.5-5.4 5.5-14.4 0-19.8zm-1.2 19.1l-100 100c-5.1 5.1-13.3 5.1-18.4 0l-100-100c-5.1-5.1-5.1-13.3 0-18.4l100-100c5.1-5.1 13.3-5.1 18.4 0l100 100c5.1 5.1 5.1 13.3 0 18.4zm251.2-268.1L624.7 253.9c-5.4-5.4-14.4-5.4-19.8 0L504.4 354.4c-5.4 5.4-5.4 14.4 0 19.8l100.5 100.5c5.4 5.4 14.4 5.4 19.8 0l100.5-100.5c5.5-5.4 5.5-14.4 0-19.8zm-1.2 19.1l-100 100c-5.1 5.1-13.3 5.1-18.4 0l-100-100c-5.1-5.1-5.1-13.3 0-18.4l100-100c5.1-5.1 13.3-5.1 18.4 0l100 100c5.1 5.1 5.1 13.3 0 18.4z"/><path id="orange" d="M350.2 228.4L249.7 127.9c-5.4-5.4-14.4-5.4-19.8 0L129.4 228.4c-5.4 5.4-5.4 14.4 0 19.8l100.5 100.5c5.4 5.4 14.4 5.4 19.8 0l100.5-100.5c5.5-5.4 5.5-14.4 0-19.8zm-1.2 19.1l-100 100c-5.1 5.1-13.3 5.1-18.4 0l-100-100c-5.1-5.1-5.1-13.3 0-18.4l100-100c5.1-5.1 13.3-5.1 18.4 0l100 100c5.1 5.1 5.1 13.3 0 18.4z" opacity=".2" fill="#f17221"/><g id="jaxx-mark" transform="translate(342 345)" opacity=".2"><g id="Layer_1_1_"><path id="Shape" class="st5" d="M49.9 6.3l-6.5-5-9.1 11.8-9.1-11.8-6.5 5 10.4 13.5-9.9 12.9 6.5 5 8.6-11.1 8.6 11.1 6.5-5-9.9-12.9z"/><path id="Shape_1_" class="st5" d="M13.2-5.8H5.3v32.5c0 .6 0 9.4-10.2 10.2v7.9s18.2-1 18.1-18.1V-5.8z"/></g></g></svg>