<svg width="42" height="40" xmlns="http://www.w3.org/2000/svg"><g fill="#E1E1E1"><path d="M40.297 27.838l.022-.012L23.19 10.428l-.026-8.186L14.882 0l-.884.895 4.408 4.441-4.293 4.348-4.408-4.445-.882.885 2.22 8.363 7.88.031-.053.043 17.243 17.506.022-.02c1.155 1.134 2.999 1.134 4.131-.022 1.151-1.148 1.156-3.014.03-4.187zM39.18 30.92a1.288 1.288 0 0 1-1.845 0 1.323 1.323 0 0 1-.004-1.861 1.3 1.3 0 0 1 1.85-.004 1.328 1.328 0 0 1 0 1.865z"/><path d="M4.05 18.102c.141.028 3.42.689 4.125 4.426-.89.955-1.447 2.289-1.447 3.77 0 .016.003.028.003.037h9.347v-.038c0-1.48-.556-2.814-1.445-3.769a5.438 5.438 0 0 1 4.12-4.426.578.578 0 0 0 .459-.667.57.57 0 0 0-.66-.463c-.038.008-3.82.746-4.9 4.749a4.311 4.311 0 0 0-2.25-.64c-.814 0-1.581.235-2.25.643-1.084-4.006-4.86-4.74-4.902-4.749a.568.568 0 0 0-.654.463c-.06.31.147.605.455.664z"/><path d="M21.914 22.696a.756.756 0 0 0-.946.504s-.925 3.012-1.12 3.659c-.401.11-1.627.46-2.472.695-.032-.137-.056-.272-.088-.405H5.515c-.03.134-.056.268-.085.405-.845-.24-2.072-.586-2.471-.695-.2-.647-1.122-3.661-1.122-3.661a.752.752 0 0 0-.943-.504.757.757 0 0 0-.499.953L1.76 28.1l3.453.972c-.022.321-.042.647-.042.98 0 .407.025.811.06 1.206l-3.45 1.56L.7 38.974a.765.765 0 0 0 .615.885c.41.073.803-.2.874-.617 0 0 .82-4.663.938-5.36.333-.152 1.425-.647 2.358-1.062.816 3.52 3.159 6.069 5.92 6.069 2.76 0 5.106-2.545 5.924-6.07.928.416 2.022.91 2.355 1.063.116.691.936 5.36.936 5.36.073.417.465.69.88.617a.761.761 0 0 0 .61-.885l-1.08-6.154-3.447-1.556c.035-.394.06-.8.06-1.204 0-.333-.021-.66-.043-.983l3.451-.97 1.366-4.455a.771.771 0 0 0-.504-.955z"/></g></svg>