<svg width="36" height="36" xmlns="http://www.w3.org/2000/svg"><path d="M36 20.424v-4.848c-2.477-.88-4.041-1.128-4.828-3.029v-.001c-.791-1.906.15-3.201 1.27-5.56l-3.427-3.428c-2.342 1.113-3.65 2.063-5.561 1.27h-.002C21.55 4.04 21.3 2.465 20.425 0h-4.848c-.873 2.453-1.123 4.038-3.029 4.829h-.001c-1.906.792-3.198-.147-5.56-1.271L3.558 6.986c1.118 2.352 2.063 3.65 1.27 5.56-.79 1.907-2.376 2.157-4.828 3.03v4.848c2.448.87 4.038 1.123 4.829 3.029.795 1.922-.171 3.248-1.271 5.56l3.428 3.429c2.343-1.114 3.65-2.063 5.56-1.27h.002c1.905.788 2.153 2.368 3.028 4.828h4.848c.873-2.454 1.125-4.035 3.04-4.833h.002c1.893-.786 3.18.151 5.547 1.276l3.427-3.428c-1.115-2.345-2.062-3.65-1.271-5.56.79-1.906 2.381-2.16 4.831-3.031zM18 24a6 6 0 1 1 0-12 6 6 0 0 1 0 12z" fill="#FFF" fill-rule="evenodd"/></svg>