<svg width="21" height="36" xmlns="http://www.w3.org/2000/svg"><path d="M14.402 32.25c0 2.07-1.675 3.75-3.749 3.75a3.752 3.752 0 0 1-3.749-3.75c0-2.07 1.682-3.75 3.749-3.75a3.746 3.746 0 0 1 3.748 3.75zM10.771 0C4.728 0 .181 4.04.181 12h5.932c0-3.456 1.359-6.284 4.536-6.284 1.87 0 3.855 1.242 4.026 3.617.184 2.499-1.15 3.767-2.838 5.373-4.386 4.17-4.224 6.073-4.224 10.794h5.914c0-2.178-.235-3.762 2.757-6.988 1.997-2.154 4.48-4.834 4.532-8.915C20.887 3.653 16.69 0 10.771 0z" fill="#FFF" fill-rule="evenodd"/></svg>