<svg xmlns="http://www.w3.org/2000/svg" width="22" height="19"><path d="M11 7.169a3.452 3.452 0 0 1 3.515 3.385A3.452 3.452 0 0 1 11 13.939a3.452 3.452 0 0 1-3.515-3.385A3.452 3.452 0 0 1 11 7.169zM7.7-.025L5.692 2.091H2.21a2.164 2.164 0 0 0-2.2 2.116V16.9a2.164 2.164 0 0 0 2.2 2.116h17.574a2.164 2.164 0 0 0 2.2-2.116V4.207a2.164 2.164 0 0 0-2.2-2.116H16.3L14.292-.025H7.7zM11 15.843a5.4 5.4 0 0 1-5.492-5.289A5.4 5.4 0 0 1 11 5.264a5.4 5.4 0 0 1 5.491 5.289A5.4 5.4 0 0 1 11 15.843z" fill="#fff" fill-rule="evenodd"/></svg>