<svg fill="#718892" width="20" xmlns="http://www.w3.org/2000/svg" viewBox="0 0 85 85" preserveAspectRatio="xMidYMin"><path d="M79.188 37.382c-2.121.044-4.148-.845-6.232-.937-.051 1.415 6.136 2.649 6.232.937z"/><path d="M78.864 30.301C76.834 16.46 66.667 4.556 52.241 1.024 35.188-3.151 17.998 5.79 11.287 21.4l6.929-.001C24.365 10.048 37.593 3.895 50.749 7.116 62.303 9.945 70.52 19.304 72.494 30.303l-8.258.001 11.742 11.641L87.536 30.3l-8.672.001zm-70.517 2.58c2.121-.044 4.148.846 6.233.938.051-1.415-6.137-2.649-6.233-.938z"/><path d="M76.015 49.353L69 49.354c-6.299 10.98-19.303 16.955-32.213 13.793-11.555-2.828-19.771-12.188-21.745-23.187l8.257-.001-11.742-11.641L0 39.963l8.671-.002c2.03 13.842 12.198 25.745 26.624 29.277 16.872 4.131 33.878-4.576 40.737-19.882l-.017-.003z"/></svg>