<svg xmlns="http://www.w3.org/2000/svg" viewBox="0 0 158 139"><path d="M85.8 5c-3.9-6.7-10.3-6.7-14.2 0l-70 121c-3.9 6.7-.7 12.2 7.1 12.2h140c7.8 0 11-5.5 7.1-12.2L85.8 5zm-.4 116.1c-1.9 2-4.1 3-6.7 3-2.6 0-4.8-1-6.7-3-1.9-2-2.9-4.4-2.9-7.1 0-2.7.9-5 2.8-7.1 1.9-2 4.1-3 6.7-3 2.7 0 4.9 1 6.8 2.9 1.8 2 2.8 4.3 2.8 7.1 0 2.9-.9 5.2-2.8 7.2zm3.8-74.7c-.1 1.2-1 8.6-1.9 16.3l-2.2 18.2c-.9 7.7-3.8 14-6.4 14s-5.5-6.3-6.4-14l-2.1-18.1c-.9-7.7-1.7-15-1.9-16.3l-.1-1c-.1-1-.1-1.7-.1-2.3 0-3.4.9-6.1 2.8-8.1s4.4-2.9 7.7-2.9 5.9 1 7.9 2.9c1.9 2 2.9 4.6 2.9 8.1 0 .6 0 1.4-.1 2.3l-.1.9z" fill="#fcfafa"/></svg>