<svg xmlns="http://www.w3.org/2000/svg" preserveAspectRatio="xMidYMid" width="24" height="22" viewBox="0 0 158 138"><path d="M85.836 5.047c-3.898-6.736-10.275-6.736-14.172 0L1.649 126.066c-3.897 6.737-.698 12.249 7.11 12.249H148.74c7.808 0 11.007-5.512 7.11-12.249L85.836 5.047zm-.427 116.069c-1.869 1.972-4.116 2.958-6.743 2.958-2.552 0-4.782-.996-6.687-2.988-1.906-1.992-2.858-4.355-2.858-7.089 0-2.695.943-5.047 2.831-7.061 1.886-2.011 4.124-3.017 6.714-3.017 2.665 0 4.92.977 6.771 2.93 1.849 1.953 2.775 4.335 2.775 7.148 0 2.774-.935 5.147-2.803 7.119zm3.782-74.74c-.141 1.229-1.008 8.552-1.926 16.272l-2.158 18.153c-.917 7.721-3.816 14.037-6.441 14.037s-5.501-6.319-6.391-14.043l-2.091-18.141-1.877-16.278-.074-.957a30.884 30.884 0 0 1-.111-2.315c0-3.437.934-6.131 2.802-8.085 1.868-1.953 4.449-2.929 7.742-2.929 3.331 0 5.947.976 7.853 2.929 1.905 1.954 2.858 4.648 2.858 8.085 0 .586-.037 1.358-.11 2.315l-.076.957z" fill-rule="evenodd" fill="#f36d21"/></svg>