<svg width="40" height="40" xmlns="http://www.w3.org/2000/svg" xmlns:xlink="http://www.w3.org/1999/xlink"><defs><path id="a" d="M0 0h40v36.018H0V0z"/></defs><g fill="none" fill-rule="evenodd"><mask id="b" fill="#fff"><use xlink:href="#a"/></mask><path d="M39.874 17.813c-.063-.563-.718-.987-1.285-.987-1.832 0-3.459-1.077-4.14-2.745a4.468 4.468 0 0 1 1.117-4.953c.43-.393.483-1.053.122-1.51a19.813 19.813 0 0 0-3.168-3.206 1.113 1.113 0 0 0-1.52.124c-1.191 1.322-3.332 1.813-4.987 1.122a4.45 4.45 0 0 1-2.7-4.349A1.114 1.114 0 0 0 22.33.136 19.44 19.44 0 0 0 20.09 0h-.021c-.747 0-1.494.041-2.238.124-.58.064-1.01.566-.99 1.148.065 1.857-1.034 3.575-2.738 4.275-1.635.669-3.761.181-4.95-1.13a1.113 1.113 0 0 0-1.51-.126A19.886 19.886 0 0 0 4.41 7.495a1.115 1.115 0 0 0 .12 1.522 4.444 4.444 0 0 1 1.118 4.998c-.69 1.647-2.397 2.708-4.351 2.708-.634-.02-1.09.406-1.159.984A19.43 19.43 0 0 0 0 19.97v.018c0 .758.044 1.517.128 2.272.064.566.74.986 1.314.986 1.741-.044 3.413 1.035 4.115 2.745a4.46 4.46 0 0 1-1.118 4.953 1.113 1.113 0 0 0-.12 1.51A19.867 19.867 0 0 0 7.48 35.66a1.11 1.11 0 0 0 1.523-.12c1.196-1.326 3.334-1.817 4.982-1.124.594.25 1.11.62 1.528 1.074v-6.094a10.386 10.386 0 0 1-5.875-9.36c0-5.731 4.64-10.378 10.363-10.378 5.722 0 10.365 4.647 10.365 10.379 0 4.126-2.409 7.689-5.881 9.362v6.073a4.21 4.21 0 0 1 1.418-.944c1.645-.674 3.76-.18 4.95 1.128.396.43 1.048.483 1.509.127a19.94 19.94 0 0 0 3.234-3.204c.37-.46.317-1.127-.12-1.523a4.443 4.443 0 0 1-1.12-4.997c.68-1.624 2.323-2.715 4.091-2.715l.247.006c.574.047 1.102-.396 1.17-.982.177-1.506.18-3.038.01-4.555" fill="#E1E1E1" mask="url(#b)"/><path d="M20 13.244l-7.38 9.925h4.072v15.18a1.06 1.06 0 0 0 1.057 1.063h4.48c.587 0 1.065-.476 1.065-1.064V23.17h4.087L20 13.244z" fill="#E1E1E1"/></g></svg>