<svg id="Layer_1" xmlns="http://www.w3.org/2000/svg" xmlns:xlink="http://www.w3.org/1999/xlink" viewBox="-23 50 80 30"><style>.st1{fill:#fff}.st2{font-family:&apos;AvenirNext-Regular&apos;}</style><path d="M32 55.8l-3.2-2.4-4.5 5.7-4.4-5.7-3.2 2.4 5.1 6.6-4.8 6.3 3.2 2.4 4.1-5.4 4.2 5.4 3.2-2.4-4.8-6.3zm16.8 0l-3.2-2.4-4.4 5.7-4.5-5.7-3.1 2.4 5 6.6-4.8 6.3 3.2 2.4 4.2-5.4 4.1 5.4 3.2-2.4-4.8-6.3zM-6.1 50H-10v15.9c0 .3 0 4.6-5 5v3.9s8.9-.5 8.8-8.8l.1-16zm11.7 3.4c-4.9 0-8.8 4-8.8 8.8 0 4.9 4 8.8 8.8 8.8.9 0 1.7-.1 2.5-.4v-4.2c-.7.4-1.6.7-2.5.7-2.7 0-5-2.2-5-5 0-2.7 2.2-5 5-5 2.7 0 4.9 2.2 5 4.9v8.8h3.9v-8.7c-.1-4.7-4-8.7-8.9-8.7z" fill="#f27221"/><g transform="matrix(1.75 0 0 1.75 1125.55 1349.95)"><defs><path id="SVGID_1_" d="M-617.3-732.2h3.4v6.7h-3.4z"/></defs><clipPath id="SVGID_2_"><use xlink:href="#SVGID_1_" overflow="visible"/></clipPath><text transform="translate(-616.334 -728.09) scale(.5714)" class="st1 st2" font-size="4.389">®</text></g><g transform="translate(701.4 1344.3) scale(1.01892)"><defs><path id="SVGID_3_" d="M-686.4-1250.1h44.9v10.9h-44.9z"/></defs><clipPath id="SVGID_4_"><use xlink:href="#SVGID_3_" overflow="visible"/></clipPath><text transform="translate(-685.78 -1242.315) scale(.9814)" class="st1 st2" font-size="7.666">by Decentral</text></g></svg>