<svg width="729" height="729" xmlns="http://www.w3.org/2000/svg" xmlns:xlink="http://www.w3.org/1999/xlink"><defs><rect id="a" y="354" width="168" height="168" rx="12"/><mask id="j" x="0" y="0" width="168" height="168" fill="#fff"><use xlink:href="#a"/></mask><rect id="b" x="177" y="354" width="168" height="168" rx="12"/><mask id="k" x="0" y="0" width="168" height="168" fill="#fff"><use xlink:href="#b"/></mask><rect id="c" x="354" width="168" height="168" rx="12"/><mask id="l" x="0" y="0" width="168" height="168" fill="#fff"><use xlink:href="#c"/></mask><rect id="d" x="178" width="168" height="168" rx="12"/><mask id="m" x="0" y="0" width="168" height="168" fill="#fff"><use xlink:href="#d"/></mask><rect id="e" x="1" width="168" height="168" rx="12"/><mask id="n" x="0" y="0" width="168" height="168" fill="#fff"><use xlink:href="#e"/></mask><rect id="f" x="1" y="177" width="168" height="168" rx="12"/><mask id="o" x="0" y="0" width="168" height="168" fill="#fff"><use xlink:href="#f"/></mask><rect id="g" x="178" y="177" width="168" height="168" rx="12"/><mask id="p" x="0" y="0" width="168" height="168" fill="#fff"><use xlink:href="#g"/></mask><rect id="h" x="355" y="177" width="168" height="168" rx="12"/><mask id="q" x="0" y="0" width="168" height="168" fill="#fff"><use xlink:href="#h"/></mask><rect id="i" x="354" y="354" width="168" height="168" rx="12"/><mask id="r" x="0" y="0" width="168" height="168" fill="#fff"><use xlink:href="#i"/></mask></defs><g fill="none" fill-rule="evenodd"><g transform="rotate(45 188.09 437.02)" stroke="#E76F22" stroke-width="2"><use mask="url(#j)" xlink:href="#a"/><use mask="url(#k)" xlink:href="#b"/><use mask="url(#l)" xlink:href="#c"/><use mask="url(#m)" xlink:href="#d"/><use mask="url(#n)" xlink:href="#e"/><use mask="url(#o)" xlink:href="#f"/><use mask="url(#p)" xlink:href="#g"/><use mask="url(#q)" xlink:href="#h"/><use mask="url(#r)" xlink:href="#i"/></g><path d="M392.188 350.991L385.685 346l-9.08 11.813L367.504 346 361 350.991l10.41 13.556-9.886 12.86 6.504 4.99 8.577-11.115 8.556 11.115 6.526-4.99-9.91-12.86zM355.093 339h-7.922v32.54c.021.61 0 9.437-10.171 10.2v7.911s18.18-.98 18.071-18.133V339h.022z" fill="#E76F22"/></g></svg>