<svg xmlns="http://www.w3.org/2000/svg" preserveAspectRatio="xMidYMid" width="59" height="23"><path d="M54.29 11.532l4.473 5.843-2.944 2.269-3.87-5.055-3.869 5.055-2.945-2.269 4.474-5.843-4.71-6.151 2.944-2.269 4.106 5.363 4.106-5.363L59 5.381l-4.71 6.151zm-11.123 5.843l-2.944 2.269-3.87-5.055-3.87 5.055-2.944-2.269 4.473-5.843-4.709-6.151 2.944-2.269 4.106 5.363 4.106-5.363 2.944 2.269-4.709 6.151 4.473 5.843zm-15.996 2.073h-3.619v-8.206h-.001c-.036-2.513-2.094-4.557-4.607-4.557h-.039c-2.534 0-4.608 2.08-4.608 4.623v.039c0 2.543 2.074 4.623 4.608 4.623h.039a4.55 4.55 0 0 0 2.324-.637v3.902a8.1 8.1 0 0 1-2.284.331c-4.506 0-8.192-3.699-8.192-8.219s3.686-8.218 8.192-8.218c4.505 0 8.192 3.698 8.192 8.218 0 .069-.004.137-.005.206v7.895zM0 23v-3.596c4.6-.353 4.601-4.354 4.596-4.633h-.001V.001h3.571v14.77C8.22 22.556 0 23 0 23z" fill-rule="evenodd" fill="#f37321"/></svg>