<svg width="40" height="40" xmlns="http://www.w3.org/2000/svg"><path d="M37.54 8.1h-7.57a4.388 4.388 0 0 0 1.867-3.605c0-2.428-1.969-4.404-4.39-4.404-.829 0-1.541.268-1.89.429-1.053.488-3.756 2.839-5.592 4.49-1.835-1.65-4.54-4.001-5.585-4.487-.356-.162-1.068-.43-1.896-.43-2.422 0-4.391 1.975-4.391 4.404A4.39 4.39 0 0 0 9.959 8.1H2.388A2.394 2.394 0 0 0 0 10.495v5.617a2.394 2.394 0 0 0 2.388 2.395h1.266v18.34a3.113 3.113 0 0 0 3.104 3.114h26.413a3.111 3.111 0 0 0 3.103-3.113V18.507h1.267a2.394 2.394 0 0 0 2.388-2.395v-5.617A2.395 2.395 0 0 0 37.54 8.1zM2.389 16.91a.798.798 0 0 1-.796-.798v-5.617c0-.44.356-.798.796-.798H16.15v7.213H2.388zM16.15 38.365H6.76a1.516 1.516 0 0 1-1.512-1.517V18.507H16.15v19.858zm6.036 0h-4.444V9.697h4.444v28.668zm12.496-1.518c0 .837-.678 1.517-1.51 1.517h-9.395V18.507h10.905v18.34zm3.655-20.735c0 .44-.358.798-.796.798H23.777V9.697h13.764c.438 0 .796.358.796.798v5.617z" fill="#E1E1E1"/></svg>