<svg width="30" height="36" xmlns="http://www.w3.org/2000/svg"><path d="M24 10.5H6V12h18v-1.5zm-13.5 3H6V15h4.5v-1.5zm0 3H6V18h4.5v-1.5zm13.5-3h-4.5V15H24v-1.5zm0 3h-4.5V18H24v-1.5zm0 3H6V21h18v-1.5zm-9 3H6V24h9v-1.5zm0 3H6V27h9v-1.5zm0 3H6V30h9v-1.5zm3-15h-6V18h6v-4.5zM15.3 9l-.75-2.85h.75l.3 1.95.45-1.95h.75l.3 1.95.3-1.95h.75L17.4 9h-.75l-.3-1.95L15.9 9h-.6zm-.9-.6h-1.2v-.6h1.05v-.6H13.2v-.45h1.05V6h-1.8v3h1.95v-.6zm4.8 0c-.15 0-.45 0-.75-.15l-.15.6c.15.15.45.15.75.15.9 0 1.2-.45 1.2-.9s-.3-.75-.75-.9c-.45-.15-.45-.15-.45-.3s.15-.3.45-.3c.15 0 .45 0 .6.15l.15-.6C20.1 6 19.8 6 19.5 6c-.6 0-1.05.3-1.05.9 0 .45.3.75.75.9.3.15.45.15.45.3s-.15.3-.45.3zm-9-1.5l1.05 1.95H12V6h-.6v1.8L10.5 6h-.75v3h.6c-.15 0-.15-2.1-.15-2.1zM3 33V3h24v17.25C27 26.4 18 24 18 24s2.25 9-3.9 9H3zm27-11.4V0H0v36h15.3C20.1 36 30 25.2 30 21.6z" fill="#FFF" fill-rule="evenodd"/></svg>