<svg xmlns="http://www.w3.org/2000/svg" viewBox="-151 152 297 297"><path fill="#5b5b5b" d="M-115 188h9v9h-9zm0 9h9v9h-9zm0 9h9v9h-9zm0 9h9v9h-9zm0 9h9v9h-9zm0 9h9v9h-9zm0 9h9v9h-9zm0 18h9v9h-9zm0 9h9v9h-9zm0 18h9v9h-9zm0 18h9v9h-9zm0 18h9v9h-9zm0 27h9v9h-9zm0 9h9v9h-9zm0 9h9v9h-9zm0 9h9v9h-9zm0 9h9v9h-9zm0 9h9v9h-9zm0 9h9v9h-9zm9-216h9v9h-9zm0 54h9v9h-9zm0 27h9v9h-9zm0 18h9v9h-9zm0 9h9v9h-9zm0 18h9v9h-9zm0 18h9v9h-9zm0 18h9v9h-9zm0 54h9v9h-9zm9-216h9v9h-9zm0 18h9v9h-9zm0 9h9v9h-9zm0 9h9v9h-9zm0 18h9v9h-9zm0 18h9v9h-9zm0 9h9v9h-9zm0 54h9v9h-9zm0 9h9v9h-9zm0 18h9v9h-9zm0 18h9v9h-9zm0 9h9v9h-9zm0 9h9v9h-9zm0 18h9v9h-9zm9-216h9v9h-9zm0 18h9v9h-9zm0 9h9v9h-9zm0 9h9v9h-9zm0 18h9v9h-9zm0 36h9v9h-9zm0 9h9v9h-9zm0 9h9v9h-9zm0 27h9v9h-9zm0 27h9v9h-9zm0 18h9v9h-9zm0 9h9v9h-9zm0 9h9v9h-9zm0 18h9v9h-9zm9-216h9v9h-9zm0 18h9v9h-9zm0 9h9v9h-9zm0 9h9v9h-9zm0 18h9v9h-9zm0 18h9v9h-9zm0 36h9v9h-9zm0 9h9v9h-9zm0 18h9v9h-9zm0 9h9v9h-9zm0 18h9v9h-9zm0 18h9v9h-9zm0 9h9v9h-9zm0 9h9v9h-9zm0 18h9v9h-9zm9-216h9v9h-9zm0 54h9v9h-9zm0 36h9v9h-9zm0 9h9v9h-9zm0 9h9v9h-9zm0 18h9v9h-9zm0 9h9v9h-9zm0 27h9v9h-9zm0 54h9v9h-9zm9-216h9v9h-9zm0 9h9v9h-9zm0 9h9v9h-9zm0 9h9v9h-9zm0 9h9v9h-9zm0 9h9v9h-9zm0 9h9v9h-9zm0 18h9v9h-9zm0 18h9v9h-9zm0 18h9v9h-9zm0 18h9v9h-9zm0 18h9v9h-9zm0 18h9v9h-9zm0 9h9v9h-9zm0 9h9v9h-9zm0 9h9v9h-9zm0 9h9v9h-9zm0 9h9v9h-9zm0 9h9v9h-9zm9-135h9v9h-9zm0 9h9v9h-9zm0 9h9v9h-9zm0 9h9v9h-9zm0 9h9v9h-9zm0 18h9v9h-9zm0 9h9v9h-9zm9-135h9v9h-9zm0 27h9v9h-9zm0 18h9v9h-9zm0 27h9v9h-9zm0 9h9v9h-9zm0 9h9v9h-9zm0 9h9v9h-9zm0 18h9v9h-9zm0 27h9v9h-9zm0 27h9v9h-9zm0 18h9v9h-9zm0 18h9v9h-9zm9-216h9v9h-9zm0 9h9v9h-9zm0 27h9v9h-9zm0 9h9v9h-9zm0 18h9v9h-9zm0 9h9v9h-9zm0 9h9v9h-9zm0 36h9v9h-9zm0 27h9v9h-9zm0 9h9v9h-9zm0 18h9v9h-9zm0 9h9v9h-9zm9-180h9v9h-9zm0 27h9v9h-9zm0 18h9v9h-9zm0 9h9v9h-9zm0 9h9v9h-9zm0 9h9v9h-9zm0 81h9v9h-9zm0 9h9v9h-9zm0 9h9v9h-9zm0 9h9v9h-9zm0 9h9v9h-9zm0 9h9v9h-9zm9-189h9v9h-9zm0 9h9v9h-9zm0 18h9v9h-9zm0 45h9v9h-9zm0 27h9v9h-9zm0 9h9v9h-9zm0 18h9v9h-9zm0 18h9v9h-9zm0 9h9v9h-9zm0 18h9v9h-9zm0 9h9v9h-9zm0 18h9v9h-9zm0 9h9v9h-9zm9-216h9v9h-9zm0 27h9v9h-9zm0 18h9v9h-9zm0 9h9v9h-9zm0 90h9v9h-9zm0 9h9v9h-9zm0 9h9v9h-9zm0 9h9v9h-9zm0 9h9v9h-9zm0 27h9v9h-9zm0 9h9v9h-9zm9-207h9v9H2zm0 36h9v9H2zm0 18h9v9H2zm0 9h9v9H2zm0 9h9v9H2zm0 9h9v9H2zm0 9h9v9H2zm0 9h9v9H2zm0 18h9v9H2zm0 9h9v9H2zm0 9h9v9H2zm0 9h9v9H2zm0 9h9v9H2zm0 9h9v9H2zm0 9h9v9H2zm0 18h9v9H2zm0 9h9v9H2zm0 9h9v9H2zm9-216h9v9h-9zm0 9h9v9h-9zm0 9h9v9h-9zm0 9h9v9h-9zm0 9h9v9h-9zm0 18h9v9h-9zm0 9h9v9h-9zm0 27h9v9h-9zm0 18h9v9h-9zm0 54h9v9h-9zm0 9h9v9h-9zm0 36h9v9h-9zm9-207h9v9h-9zm0 9h9v9h-9zm0 9h9v9h-9zm0 9h9v9h-9zm0 9h9v9h-9zm0 9h9v9h-9zm0 18h9v9h-9zm0 36h9v9h-9zm0 36h9v9h-9zm0 18h9v9h-9zm0 9h9v9h-9zm0 36h9v9h-9zm0 9h9v9h-9zm0 9h9v9h-9zm9-207h9v9h-9zm0 9h9v9h-9zm0 9h9v9h-9zm0 18h9v9h-9zm0 9h9v9h-9zm0 18h9v9h-9zm0 9h9v9h-9zm0 9h9v9h-9zm0 9h9v9h-9zm0 9h9v9h-9zm0 9h9v9h-9zm0 27h9v9h-9zm0 9h9v9h-9zm0 9h9v9h-9zm0 9h9v9h-9zm0 9h9v9h-9zm0 9h9v9h-9zm0 18h9v9h-9zm0 9h9v9h-9zm9-135h9v9h-9zm0 27h9v9h-9zm0 9h9v9h-9zm0 18h9v9h-9zm0 9h9v9h-9zm0 36h9v9h-9zm0 27h9v9h-9zm9-207h9v9h-9zm0 9h9v9h-9zm0 9h9v9h-9zm0 9h9v9h-9zm0 9h9v9h-9zm0 9h9v9h-9zm0 9h9v9h-9zm0 27h9v9h-9zm0 9h9v9h-9zm0 18h9v9h-9zm0 18h9v9h-9zm0 18h9v9h-9zm0 18h9v9h-9zm0 18h9v9h-9zm9-180h9v9h-9zm0 54h9v9h-9zm0 72h9v9h-9zm0 9h9v9h-9zm0 9h9v9h-9zm0 36h9v9h-9zm0 18h9v9h-9zm9-198h9v9h-9zm0 18h9v9h-9zm0 9h9v9h-9zm0 9h9v9h-9zm0 18h9v9h-9zm0 18h9v9h-9zm0 18h9v9h-9zm0 54h9v9h-9zm0 9h9v9h-9zm0 9h9v9h-9zm0 9h9v9h-9zm0 9h9v9h-9zm0 9h9v9h-9zm0 9h9v9h-9zm0 18h9v9h-9zm9-216h9v9h-9zm0 18h9v9h-9zm0 9h9v9h-9zm0 9h9v9h-9zm0 18h9v9h-9zm0 63h9v9h-9zm0 9h9v9h-9zm0 18h9v9h-9zm0 9h9v9h-9zm0 9h9v9h-9zm9-162h9v9h-9zm0 18h9v9h-9zm0 9h9v9h-9zm0 9h9v9h-9zm0 18h9v9h-9zm0 36h9v9h-9zm0 36h9v9h-9zm0 72h9v9h-9zm9-198h9v9h-9zm0 54h9v9h-9zm0 18h9v9h-9zm0 9h9v9h-9zm0 9h9v9h-9zm0 36h9v9h-9zm0 27h9v9h-9zm0 9h9v9h-9zm0 9h9v9h-9zm0 36h9v9h-9zm0 9h9v9h-9zm9-216h9v9h-9zm0 9h9v9h-9zm0 9h9v9h-9zm0 9h9v9h-9zm0 9h9v9h-9zm0 9h9v9h-9zm0 9h9v9h-9zm0 27h9v9h-9zm0 9h9v9h-9zm0 9h9v9h-9zm0 9h9v9h-9zm0 9h9v9h-9zm0 9h9v9h-9zm0 18h9v9h-9zm0 9h9v9h-9zm0 9h9v9h-9zm0 36h9v9h-9zm0 18h9v9h-9z"/></svg>