<svg width="37" height="36" xmlns="http://www.w3.org/2000/svg"><path d="M6.84.386l5.732 5.656c.622 2.834-3.542 6.99-6.448 6.363L.392 6.75A9.4 9.4 0 0 0 0 9.438c0 2.403.923 4.803 2.782 6.639a9.6 9.6 0 0 0 7.495 2.731 4.914 4.914 0 0 1 3.821 1.397l14.686 14.493A4.525 4.525 0 0 0 31.972 36c2.524 0 4.561-2.046 4.508-4.545a4.413 4.413 0 0 0-1.32-3.05L20.475 13.912a4.78 4.78 0 0 1-1.415-3.771 9.335 9.335 0 0 0-2.766-7.395A9.544 9.544 0 0 0 9.563 0 9.79 9.79 0 0 0 6.84.386zM33.44 31.5c0 .83-.68 1.5-1.52 1.5a1.51 1.51 0 0 1-1.52-1.5c0-.828.68-1.5 1.52-1.5s1.52.67 1.52 1.5z" fill="#FFF" fill-rule="evenodd"/></svg>