<svg id="Layer_1" data-name="Layer 1" xmlns="http://www.w3.org/2000/svg" xmlns:xlink="http://www.w3.org/1999/xlink" viewBox="0 0 1050.26 348.99"><defs><style>.cls-1{fill:#fff}</style><linearGradient id="linear-gradient" x1="136.92" y1="26.79" x2="60.4" y2="248.75" gradientUnits="userSpaceOnUse"><stop offset=".13" stop-color="#2d425b"/><stop offset=".37" stop-color="#3d5776"/><stop offset=".69" stop-color="#55779f"/><stop offset=".79" stop-color="#53759c"/><stop offset=".86" stop-color="#4e6d93"/><stop offset=".92" stop-color="#446183"/><stop offset=".98" stop-color="#37506d"/><stop offset="1" stop-color="#324964"/></linearGradient><linearGradient id="linear-gradient-2" x1="230.41" y1="128.35" x2="34.09" y2="15.01" gradientUnits="userSpaceOnUse"><stop offset="0" stop-color="#55779f"/><stop offset=".48" stop-color="#54759d"/><stop offset=".69" stop-color="#507096"/><stop offset=".84" stop-color="#496689"/><stop offset=".91" stop-color="#446081"/></linearGradient><linearGradient id="linear-gradient-3" x1="342.98" y1="64.68" x2="150.66" y2="64.68" gradientUnits="userSpaceOnUse"><stop offset=".25" stop-color="#21344c"/><stop offset=".41" stop-color="#283d57"/><stop offset=".67" stop-color="#395373"/><stop offset="1" stop-color="#55779f"/></linearGradient><linearGradient id="linear-gradient-4" x1="-74.43" y1="64.62" x2="124.4" y2="64.62" gradientUnits="userSpaceOnUse"><stop offset=".25" stop-color="#55779f"/><stop offset=".41" stop-color="#4e6f94"/><stop offset=".69" stop-color="#3c5878"/><stop offset="1" stop-color="#233850"/></linearGradient><linearGradient id="linear-gradient-5" x1="138.61" y1="-76.76" x2="134.68" y2="86.44" gradientUnits="userSpaceOnUse"><stop offset=".01" stop-color="#55779f"/><stop offset=".2" stop-color="#517299"/><stop offset=".45" stop-color="#476589"/><stop offset=".73" stop-color="#37506e"/><stop offset="1" stop-color="#22354d"/></linearGradient><linearGradient id="linear-gradient-6" x1="173.51" y1="-22.5" x2="12.77" y2="133.51" gradientUnits="userSpaceOnUse"><stop offset=".25" stop-color="#55779f"/><stop offset=".41" stop-color="#4e6f94"/><stop offset=".68" stop-color="#3d5878"/><stop offset="1" stop-color="#23374e"/></linearGradient><linearGradient id="linear-gradient-7" x1="115.15" y1="-1.69" x2="249.11" y2="117.76" xlink:href="#linear-gradient-6"/><linearGradient id="linear-gradient-8" x1="-31.98" y1="231.91" x2="255.46" y2="334.49" gradientUnits="userSpaceOnUse"><stop offset=".27" stop-color="#55779f"/><stop offset="1" stop-color="#435f80"/></linearGradient><linearGradient id="linear-gradient-9" x1="97.89" y1="-67.27" x2="268.97" y2="85.15" gradientUnits="userSpaceOnUse"><stop offset=".46" stop-color="#55779f" stop-opacity="0"/><stop offset=".58" stop-color="#52739a" stop-opacity=".06"/><stop offset=".71" stop-color="#48668b" stop-opacity=".23"/><stop offset=".82" stop-color="#385271" stop-opacity=".51"/><stop offset=".94" stop-color="#21354d" stop-opacity=".91"/><stop offset=".97" stop-color="#1c2e45"/></linearGradient><linearGradient id="linear-gradient-10" x1="136.79" y1="349.2" x2="136.79" y2="-95.59" xlink:href="#linear-gradient-6"/></defs><path class="cls-1" d="M505.76 709.74c-15.27 0-31.56 6-31.56 20.59 0 13 14.92 16.81 32.59 19.73 24 3.77 47.7 8.58 47.7 35.68-.18 26.94-25.91 35.69-48.9 35.69-21.27 0-41.52-7.72-50.78-27.79l12.35-7.21c7.72 14.24 23.85 21.1 38.6 21.1 14.58 0 34-4.63 34-22.3.17-14.93-16.64-19.22-34.65-22-23.17-3.6-45.64-8.92-45.64-33.28-.34-25 25.22-33.63 46-33.63 17.84 0 34.83 3.6 45.46 21.79l-11.32 7c-6.61-10.39-20.47-15.2-33.85-15.37zM579 699.11v49.23c7.21-11.15 18.53-14.92 29.34-15.09 23.84 0 35.51 15.78 35.51 39.11V819h-13.9v-46.5c0-16.64-8.58-26.07-24-26.07s-26.76 12.18-26.76 27.62V819h-14.1V698.93H579zm150.76 120.26l-.34-15.44c-6.69 11.66-19.56 17.15-31.22 17.15-24.36 0-43.41-16.81-43.41-44.43 0-27.45 19.39-43.92 43.58-43.75 12.69 0 25.22 5.84 31.39 16.82l.18-15.44h13.72V819h-13.55zm-30.88-73.09c-16.81 0-30.36 12-30.36 30.89s13.55 31.05 30.36 31.05c40.83 0 40.83-62.11.17-62.11zm56.03-11.66h13.38l.69 16.3c6.69-11.33 19.21-17.85 32.6-17.85 24.36.52 42.2 17.68 42.2 43.75 0 26.77-17.67 44.09-43.06 44.09-12 0-25.39-5.14-32.08-17.15V859h-13.73zm74.8 42.55c0-19-12.52-30.37-29.85-30.37-17.67 0-29.68 13-29.68 30.37s12.52 30.36 29.68 30.53c16.99 0 29.85-11.49 29.85-30.53zm104.84 28.3c-8.58 10.12-23.33 15.1-36.54 15.1-26.25 0-44.61-17.33-44.61-44.26 0-25.56 18.36-43.92 43.92-43.92 25.91 0 45.64 16 42.38 49.75h-72.06c1.55 15.61 14.41 25.39 30.71 25.39 9.61 0 21.28-3.77 26.94-10.64l9.43 8.58zm-8.23-35c-.69-16.47-12-25.39-28.65-25.39-14.76 0-27.62 8.92-30 25.22h58.68zM997 709.74c-15.27 0-31.57 6-31.57 20.59 0 13 14.92 16.81 32.6 19.73 24 3.77 47.69 8.58 47.69 35.68-.17 26.94-25.91 35.69-48.89 35.69-21.28 0-41.52-7.72-50.79-27.79l12.36-7.21c7.72 14.24 23.84 21.1 38.6 21.1 14.58 0 34-4.63 34-22.3.18-14.93-16.64-19.22-34.65-22-23.16-3.6-45.63-8.92-45.63-33.28-.35-25 25.21-33.63 46-33.63 17.85 0 34.83 3.6 45.47 21.79l-11.33 7c-6.59-10.39-20.48-15.2-33.86-15.37zm73.22-10.63v49.23c7.21-11.15 18.53-14.92 29.34-15.09 23.85 0 35.51 15.78 35.51 39.11V819h-13.89v-46.5c0-16.64-8.58-26.07-24-26.07s-26.77 12.18-26.77 27.62V819h-14.06V698.93h13.89zm76.3 119.89h14.07v-83.52h-14.07zm7.2-96.32l-11.13-12.19 11.13-12.19 11.14 12.19z" transform="translate(-224.74 -510.01)"/><path class="cls-1" d="M962.11 309.19v-.17h-.17l.17.17z"/><path class="cls-1" d="M1200.75 728.61c0-12.69 5.84-18.35 14.93-18.35h.53l3.17-12.09a32 32 0 0 0-4.05-.28c-17.84 0-28.47 11.32-28.47 30.7v6.69h-16.65v12.36h16.65V819h13.89v-71.34h16.83V735.3h-16.83zm71.47 78.64a20.41 20.41 0 0 1-3.26.28c-10.12 0-13.38-6.35-13.38-16.3v-43.68h18.06v-12.19h-17.89v-25.79l-14.07 1.54v24.25h-17v12.19h17v43.68c0 18.7 8.58 29.34 26.77 29a38.43 38.43 0 0 0 6.55-.78z" transform="translate(-224.74 -510.01)"/><path fill="url(#linear-gradient)" d="M97.8 101.17L.04 186.99l136.26 78.44.51-161.67-39.01-2.59z"/><path fill="#466385" d="M83.88 154.24l52.54 140.3.37-132.46-52.91-7.84z"/><path fill="#364e6b" d="M188.96 154.75l-52.54 139.79.37-132.46 52.17-7.33z"/><path fill="url(#linear-gradient-2)" d="M230.77.08l-52.16 27.38-41.74 9.16-42.11-9.16L42.76 0l17.91 82.77-17.05 46.48 59.68 37.05 33.23 35.99v.34l.16-.17.15.17v-.34l33.23-35.99 59.81-37.02-16.98-46.44L230.77.08z"/><path fill="url(#linear-gradient-3)" d="M230.77.08L216.27 83l13.61 46.28-16.98-46.44L230.77.08z"/><path fill="url(#linear-gradient-4)" d="M42.76 0l14.58 82.94-13.72 46.31 17.05-46.48L42.76 0z"/><path fill="url(#linear-gradient-5)" d="M42.76 0l60.7 25.37h66.62L230.77.08l-52.16 27.38-41.74 9.16-42.11-9.16L42.76 0z"/><path fill="url(#linear-gradient-6)" d="M60.67 82.77l-3.02 8.28 62.99-58-59.97 49.72z"/><path fill="url(#linear-gradient-7)" d="M212.9 82.84l-59.7-49.79 62.57 57.63-2.87-7.84z"/><path fill="url(#linear-gradient-8)" d="M.04 186.99l146.43 80.81 18.55 46.34-39.24 14.98-61.06-6.36L0 233.71l.04-46.72z"/><path class="cls-1" d="M121.22 253.94l-56.34 68.62-.16.2 60.98 20.5.08.02 47.64-24.4.1-.05v-36.2l-52.3-28.69z"/><path fill="url(#linear-gradient-9)" d="M212.9 82.84L230.77.08l-52.16 27.38-25.41 5.59 59.7 49.79z"/><path class="cls-1" d="M136.81 202.63l-16.59-18.16 16.59-18.16 16.59 18.16-16.59 18.16z"/><path fill="url(#linear-gradient-10)" d="M135.19 36.25l1.68.37 1.52-.33-1.63 105.67-1.57-105.71z"/></svg>