<svg xmlns="http://www.w3.org/2000/svg" viewBox="0 0 103.8 103.4"><path d="M102.2 64.2c-6.8 27.8-34.9 44.5-62.5 37.6C11.9 94.9-4.8 66.9 2.1 39.2 8.9 11.4 37-5.3 64.6 1.6c27.8 6.7 44.6 34.9 37.6 62.6z" fill="#004651"/><path d="M70.6 21.1c-.2.3-.5.4-.8.2-5.5-3.2-11.8-5-18.2-5-5.9 0-11.7 1.5-16.8 4.2-.3.2-.6.1-.8-.2l-2-3.5c-.2-.3-.1-.7.2-.8 5.9-3.2 12.6-4.8 19.3-4.8 7.4 0 14.6 2 20.9 5.7.3.2.4.5.2.8l-2 3.4zm15.8 20.7c-1.3-4.5-3.5-8.7-6.5-12.4-.2-.3-.2-.6.1-.8l2.4-2c.3-.2.6-.2.8.1 3.4 4.2 5.8 8.9 7.3 14 .1.3-.1.7-.4.7l-3.1.8c-.2.1-.6-.1-.6-.4zm-8.7 41l-2.6-3.1c-.2-.2-.2-.6.1-.8 7.6-6.7 12-16.2 12.2-26.3 0-.3.3-.6.6-.6h4c.3 0 .6.3.6.6-.2 11.6-5.3 22.6-14 30.3-.3.2-.7.2-.9-.1zM51.7 93c-9.3 0-18.4-3.2-25.6-9-.3-.2-.3-.6-.1-.8l2.6-3.1c.2-.2.6-.3.8-.1 6.3 5 14.2 7.8 22.3 7.8 5.6 0 10.9-1.3 15.9-3.7.3-.1.6 0 .8.3l1.9 3.6c.2.3 0 .7-.3.8-5.7 2.7-12 4.2-18.3 4.2zM18.4 74c-.3.2-.7.1-.8-.2-4.1-6.5-6.3-14-6.3-21.8 0-10.9 4.2-21 11.9-28.7.2-.2.6-.2.8 0l2.2 2.3c.2.2.2.6 0 .8-6.9 6.9-10.7 16-10.7 25.6 0 6.9 1.9 13.6 5.6 19.4.2.3.1.6-.2.8L18.4 74zm33.3 4.7C37 78.7 25 66.7 25 52s12-26.7 26.6-26.7c14.7 0 26.7 12 26.7 26.7S66.4 78.7 51.7 78.7zm0-48.1c-11.8 0-21.4 9.6-21.4 21.4s9.6 21.4 21.4 21.4c11.8 0 21.4-9.6 21.4-21.4 0-11.8-9.6-21.4-21.4-21.4z" fill="#fff"/></svg>