<svg id="Layer_1" xmlns="http://www.w3.org/2000/svg" viewBox="0 0 103.8 103.4"><style>.st1{fill:#fff}</style><g id="master"><path id="bg" d="M102.2 64.2c-6.8 27.8-34.9 44.5-62.5 37.6C11.9 94.9-4.8 66.9 2.1 39.2 8.9 11.4 37-5.3 64.6 1.6c27.8 6.7 44.6 34.9 37.6 62.6z" fill="#4fb3df"/></g><path id="aragon" class="st1" d="M76 48.6c.5-6.8-7.5-9.8-7.5-9.8V37c-14-8.2-24.5-6.5-24.5-6.5l2.8 2.9c-8.7.2-15.2 4.4-19.1 12-4 7.5-1.3 14.6-1.3 14.6l-.9 1.6C30.6 72.5 52.2 84 52.2 84c5.1-1.9 28.4-19.3 22.3-19-6.1.3-10-1.9-11.2-4.4-1.2-2.5.1-8.3 4.5-8.1 4.4.2 2.3 3.8 2.3 3.8s5.4-.9 5.9-7.7zm-11.3-9.9s-.4.5-1.3 1.1c0 0-2.9-.3-5.3-2.9 0 0 4.2-.2 9.6 2.4l-3-.6z"/><path class="st1" d="M51.9 21.8c3.8 1.4 20.7 7.7 33.1 18-.9 4.1-4 16.2-11 25.8-5.4 7.5-12.9 13.3-22.1 17.2-9.2-3.9-16.7-9.6-22.1-17.2-6.9-9.6-10.1-21.8-11-25.8 12.4-10.3 29.3-16.6 33.1-18m0-2.6s-21.3 7-35.9 19.7c0 0 2.9 16 11.8 28.2 8.8 12.3 20.6 17 24.1 18.4 3.6-1.4 15.3-6.1 24.1-18.4 8.8-12.3 11.8-28.2 11.8-28.2-14.6-12.7-35.9-19.7-35.9-19.7z" id="aragon_1_"/></svg>