<svg id="Layer_1" xmlns="http://www.w3.org/2000/svg" viewBox="0 0 103.8 103.4"><style>.st1{fill:none;stroke:#fff;stroke-width:4}</style><g id="master"><path id="bg" d="M102.2 64.2c-6.8 27.8-34.9 44.5-62.5 37.6C11.9 94.9-4.8 66.9 2.1 39.2 8.9 11.4 37-5.3 64.6 1.6c27.8 6.7 44.6 34.9 37.6 62.6z" fill="#5f2651"/></g><g id="augurSvg_1_"><path id="Line_9_" class="st1" d="M24.9 67.4s8.3-5.2 11.8-5.2 5.8 2.5 7.5 3.8c1.6 1.4 4.8 2.4 4.8 2.4"/><path id="Line_8_" class="st1" d="M24.1 68.4c-.5-.3-.6-.9-.4-1.4l27-47.6c.8-1.4 2.1-1.4 2.9 0L80.5 67c.3.5.1 1.1-.4 1.4L53 84.5c-.5.3-1.2.3-1.6 0L24.1 68.4z"/><path id="Line_7_" class="st1" d="M52.2 19.8s.1 10 0 16.6c0 2.8 0 5-.2 5.7-.6 1.9-4.8 4.2-6.3 5.1-1.5.9-3.5 2.6-4.5 4.3s-1 6.7-1 6.7"/><path id="Line_6_" class="st1" d="M62.8 63s-.8 1.6-2.6 2.9c-2.1 1.6-5.4 3.2-5.9 3.6-1 .7-1.7 1.7-2 3-.2 1.3 0 10.8 0 10.8"/><path id="Line_5_" class="st1" d="M55.4 45.6s3.3 1 5.9 3.6 2.7 6.5 4.4 10.2c1.6 3.7 14.7 8.3 14.7 8.3"/></g></svg>