<svg id="Layer_1" data-name="Layer 1" xmlns="http://www.w3.org/2000/svg" viewBox="0 0 103.4 103.4"><defs><style>.cls-2{fill:#fff}</style></defs><circle cx="51.7" cy="51.7" r="51.7" fill="#1b5bb9"/><circle class="cls-2" cx="43.15" cy="52.69" r="2.79"/><circle class="cls-2" cx="47.94" cy="60.47" r="2.79"/><circle class="cls-2" cx="44.35" cy="66.26" r="2.39"/><circle class="cls-2" cx="41.22" cy="71.44" r="2.2" transform="rotate(-86.71 40.988 71.694)"/><circle class="cls-2" cx="65.57" cy="68.65" r="2.2" transform="rotate(-86.71 65.334 68.898)"/><circle class="cls-2" cx="70.55" cy="44.5" r="2.2" transform="rotate(-86.71 70.323 44.751)"/><circle class="cls-2" cx="49" cy="32.33" r="2.2" transform="rotate(-86.71 48.773 32.577)"/><circle class="cls-2" cx="30.84" cy="49.09" r="2.2" transform="rotate(-86.71 30.609 49.343)"/><circle class="cls-2" cx="37.19" cy="75.75" r="1.74" transform="rotate(-86.71 36.964 75.998)"/><circle class="cls-2" cx="33.51" cy="79.41" r="1.42" transform="rotate(-86.71 33.277 79.659)"/><circle class="cls-2" cx="70.63" cy="78.41" r="1.42" transform="rotate(-86.71 70.4 78.66)"/><circle class="cls-2" cx="81.2" cy="42.69" r="1.42" transform="rotate(-86.71 80.977 42.94)"/><circle class="cls-2" cx="86.21" cy="42.7" r="1.22" transform="rotate(-19.76 85.95 44.016)"/><circle class="cls-2" cx="72.24" cy="83.01" r="1.22" transform="rotate(-19.76 71.98 84.324)"/><circle class="cls-2" cx="29.34" cy="82.21" r="1.22" transform="rotate(-16.66 29.1 83.789)"/><circle class="cls-2" cx="16.97" cy="41.5" r="1.22" transform="rotate(-16.66 16.713 43.083)"/><circle class="cls-2" cx="52.09" cy="16.76" r="1.22" transform="rotate(-54.24 51.85 17.215)"/><circle class="cls-2" cx="53.86" cy="12.57" r=".95" transform="rotate(-30 53.622 13.428)"/><circle class="cls-2" cx="90.78" cy="43.1" r=".95" transform="rotate(-30 90.54 43.96)"/><circle class="cls-2" cx="13.55" cy="38.31" r=".95" transform="rotate(-30 13.324 39.17)"/><circle class="cls-2" cx="25.53" cy="84.6" r=".95" transform="rotate(-30 25.296 85.478)"/><circle class="cls-2" cx="73.22" cy="87.6" r=".95" transform="rotate(-30 72.992 88.478)"/><circle class="cls-2" cx="50.47" cy="21.54" r="1.42" transform="rotate(-86.71 50.245 21.788)"/><circle class="cls-2" cx="20.94" cy="44.29" r="1.42" transform="rotate(-86.71 20.702 44.538)"/><circle class="cls-2" cx="68.33" cy="73.55" r="1.74" transform="rotate(-86.71 68.097 73.8)"/><circle class="cls-2" cx="75.91" cy="43.42" r="1.74" transform="rotate(-86.71 75.676 43.665)"/><circle class="cls-2" cx="49.57" cy="26.86" r="1.74" transform="rotate(-86.71 49.332 27.105)"/><circle class="cls-2" cx="25.62" cy="46.81" r="1.74" transform="rotate(-86.71 25.391 47.062)"/><circle class="cls-2" cx="36.56" cy="50.89" r="2.39"/><circle class="cls-2" cx="61.31" cy="63.46" r="2.39"/><circle class="cls-2" cx="63.9" cy="46.5" r="2.39"/><circle class="cls-2" cx="48.54" cy="38.92" r="2.39"/><circle class="cls-2" cx="56.92" cy="58.27" r="2.79"/><circle class="cls-2" cx="57.52" cy="49.09" r="2.79"/><circle class="cls-2" cx="49.13" cy="45.7" r="2.79"/></svg>