<svg xmlns="http://www.w3.org/2000/svg" viewBox="0 0 103.8 103.4"><path d="M102.2 64.2c-6.8 27.8-34.9 44.5-62.5 37.6C11.9 94.9-4.8 66.9 2.1 39.2 8.9 11.4 37-5.3 64.6 1.6c27.8 6.7 44.6 34.9 37.6 62.6z" fill="#f7931a"/><path d="M75.5 46.2c1-6.9-4.2-10.5-11.3-13.1l2.3-9.4-5.7-1.3-2.3 9.1c-1.4-.3-3.1-.6-4.5-1.1l2.3-9.2-5.7-1.4-2.3 9.4c-1.3-.3-2.4-.5-3.6-.8l-7.8-1.9-1.4 6.1s4.2 1 4.1 1c2.3.6 2.7 2.1 2.6 3.2l-2.6 10.6c.1 0 .3.1.6.1-.1 0-.3-.1-.6-.1l-3.8 14.8c-.3.6-1 1.8-2.6 1.3 0 .1-4.2-1-4.2-1L26.2 69l7.4 1.8c1.4.3 2.7.6 4.1 1l-2.4 9.4 5.7 1.4 2.3-9.4c1.6.5 3.1.8 4.5 1.1l-2.3 9.2 5.7 1.4 2.4-9.4c9.7 1.8 17 1.1 20.1-7.6 2.4-7.1-.1-11.2-5.2-13.7 3.4-.4 6.2-2.9 7-8zm-13 18.3c-1.8 7.1-13.6 3.2-17.5 2.3l3.1-12.4c3.9.9 16.2 2.6 14.4 10.1zm1.8-18.3c-1.6 6.5-11.5 3.2-14.7 2.4l2.7-11.3c3.3.7 13.6 2.1 12 8.9z" fill="#fff"/></svg>