<svg id="Layer_1" xmlns="http://www.w3.org/2000/svg" viewBox="0 0 103.8 103.4"><style>.st1{fill:#fff}</style><g id="master"><path id="bg" d="M102.2 64.2c-6.8 27.8-34.9 44.5-62.5 37.6C11.9 94.9-4.8 66.9 2.1 39.2 8.9 11.4 37-5.3 64.6 1.6c27.8 6.7 44.6 34.9 37.6 62.6z" fill="#fc0"/></g><path class="st1" d="M70.3 33c-10.3-8.5-25.6-6.9-34 3.4v-24c-1.9.9-3.7 1.9-5.5 3.1v36.2c0 7.2 3.2 14.1 8.9 18.7 10.3 8.5 25.5 7 34-3.4 8.4-10.3 6.9-25.5-3.4-34zM55 70.4c-10.3 0-18.7-8.4-18.7-18.7C36.3 41.4 44.6 33 55 33s18.7 8.4 18.7 18.7S65.3 70.4 55 70.4z"/><path class="st1" d="M40.5 23.8v-6C54.3 11.9 70.4 15 81 25.6c1.1 1.1 1.1 2.8 0 3.8s-2.8 1-3.8 0c-9.7-9.6-24.6-11.9-36.7-5.6zm40.6 54c-14.3 14.4-37.7 14.5-52.1.1-13.8-13.6-14.6-35.6-2-50.2v9.7c-8 15.4-1.9 34.4 13.6 42.3 12.2 6.2 27 3.9 36.6-5.8 1.1-1.1 2.8-1.1 3.8 0s1.1 2.8.1 3.9z"/></svg>