<svg id="Layer_1" xmlns="http://www.w3.org/2000/svg" viewBox="0 0 103.8 103.4"><style>.st1,.st2{enable-background:new}.st1{fill:#fff}.st2{display:none}.st2,.st3{fill:#fff}</style><g id="master"><path id="bg" d="M102.2 64.2c-6.8 27.8-34.9 44.5-62.5 37.6C11.9 94.9-4.8 66.9 2.1 39.2 8.9 11.4 37-5.3 64.6 1.6c27.8 6.7 44.6 34.9 37.6 62.6z" fill="#efa672"/></g><g id="Page-1"><g id="endless-stairs"><g id="Group" transform="translate(-40 -39)"><path id="Combined-Shape-Copy-4" class="st1" d="M115.8 60.6c-5.4-4-12-6.6-19.2-7.2C75.7 51.6 57.3 67 55.5 87.9c-1.5 16.9 8.3 32.2 23.2 38.4l9-21.8c-5.6-2.3-9.3-8.1-8.8-14.5.7-7.9 7.6-13.7 15.5-13 2.7.2 5.2 1.2 7.2 2.7l14.2-19.1z"/><g id="stairs" transform="translate(276.236 695.298)"><path id="Combined-Shape-Copy-5" class="st1" d="M-184.1-566.2c-4.7-.1-9.4-1.2-13.6-3l9.1-21.7c1.6.7 3.4 1.1 5.2 1.1l-.7 23.6z"/><path id="Combined-Shape-Copy-6" class="st2" d="M-182.4-566.2h-1.9l.7-22.5h.8l.4 22.5z"/></g><g id="stairs-copy" transform="rotate(-24 2079.202 -473.913)"><path id="Combined-Shape-Copy-5_1_" class="st1" d="M33.8-727.6c-4.7-.1-9.4-1.2-13.6-3l8.4-20c1.8.8 3.8 1.2 5.8 1.3l-.6 21.7z"/><path id="Combined-Shape-Copy-6_1_" class="st2" d="M35.5-727.5h-1.9l.6-20.1h.9l.4 20.1z"/></g><g id="stairs-copy-2" transform="rotate(-43 1366.652 -268.384)"><path id="Combined-Shape-Copy-5_2_" class="st1" d="M188.3-836.2c-3.5-.1-7-.7-10.2-1.7l4.9-15.8c1.9.5 3.8.7 5.8.6l-.5 16.9z"/><path id="Combined-Shape-Copy-6_2_" class="st2" d="M190-836.1h-1.9l.5-16.1h1.1l.3 16.1z"/></g><g id="stairs-copy-3" transform="rotate(-55 1138.103 -242.173)"><path id="Combined-Shape-Copy-5_3_" class="st3" d="M264.1-869.2c-2.2-.1-4.4-.3-6.5-.8l2.8-13.9c1.3.3 2.7.4 4.1.3l-.4 14.4z"/><path id="Combined-Shape-Copy-6_3_" class="st2" d="M265.8-869.2h-1.9l.4-13.8h1.2l.3 13.8z"/></g><g id="top-stairs" transform="rotate(-138 528.471 137.862)"><path id="Combined-Shape-Copy-6_4_" class="st3" d="M884.2-80.8h-1.9l.8-24.8h.7l.4 24.8z"/></g><g id="top-stairs-copy" transform="rotate(-121 544.928 92.076)"><path id="Combined-Shape-Copy-6_5_" class="st3" d="M780.1-256.6h-1.9l.8-26.6h.6l.5 26.6z"/></g></g></g></g></svg>