<svg id="Layer_1" xmlns="http://www.w3.org/2000/svg" viewBox="0 0 103.8 103.4"><style>.st1{fill:#fff}</style><g id="master"><path id="bg" d="M102.2 64.2c-6.8 27.8-34.9 44.5-62.5 37.6C11.9 94.9-4.8 66.9 2.1 39.2 8.9 11.4 37-5.3 64.6 1.6c27.8 6.7 44.6 34.9 37.6 62.6z" fill="#362b63"/><path class="st1" d="M80 28.8H25.1c-3 0-5.4 2.4-5.4 5.4V68c0 3 2.4 5.4 5.4 5.4H80c3 0 5.4-2.4 5.4-5.4V34.2c0-2.9-2.4-5.4-5.4-5.4zm2.1 5.8v3c-2.8-.7-5.1-2.8-5.8-5.7h3.1c1.5 0 2.7 1.2 2.7 2.7zm-8.9 35.7H31.6c-.8-4.5-4.3-7.8-8.7-8.7v-21c4.5-.8 8-4.2 8.8-8.7h41.5c.8 4.5 4.3 8.1 8.9 8.8v20.7c-4.6.7-8.2 4.3-8.9 8.9zM25.6 31.9h3c-.7 2.7-3 4.9-5.7 5.5v-2.8c0-1.5 1.2-2.7 2.7-2.7zm-2.7 35.7v-2.8c2.7.7 4.9 2.8 5.5 5.5h-2.8c-1.5 0-2.7-1.2-2.7-2.7zm56.5 2.7h-3.2c.7-2.8 3-5.1 6-5.8v3.1c-.1 1.5-1.3 2.7-2.8 2.7z"/><path class="st1" d="M52.7 36.5c-8.1 0-14.7 6.6-14.7 14.7S44.6 66 52.7 66s14.7-6.6 14.7-14.7-6.6-14.8-14.7-14.8zm0 26.8c-6.6 0-12-5.4-12-12s5.4-12 12-12 12 5.4 12 12-5.4 12-12 12z"/><path class="st1" d="M51.5 43.5c-.8 0-1.4.6-1.4 1.4v6.9c0 .8.6 1.4 1.4 1.4s1.4-.6 1.4-1.4v-6.9c0-.8-.6-1.4-1.4-1.4z"/><path class="st1" d="M50 51.8c0 .8.6 1.4 1.4 1.4h6.9c.8 0 1.4-.6 1.4-1.4s-.6-1.4-1.4-1.4h-6.9c-.7 0-1.4.6-1.4 1.4z"/></g></svg>