<svg xmlns="http://www.w3.org/2000/svg" viewBox="0 0 103.8 103.4"><style>.st1{fill:#fff}</style><g id="master"><path id="Shape_1_" d="M102.2 64.2c-6.8 27.8-34.9 44.5-62.5 37.6C11.9 94.9-4.8 66.9 2.1 39.2 8.9 11.4 37-5.3 64.6 1.6c27.8 6.7 44.6 34.9 37.6 62.6z" fill="#39b03e"/><g id="civic_1_"><path class="st1" d="M52.6 79.5c-15.5 0-27.9-12.5-27.9-27.9 0-15.5 12.5-27.9 27.9-27.9 12.6 0 23.2 8.3 26.7 19.7H89c-3.8-16.7-18.6-29.1-36.3-29.1-20.6 0-37.3 16.7-37.3 37.3S32 88.9 52.6 88.9c17.8 0 32.6-12.4 36.3-29.1h-9.7c-3.5 11.5-14.1 19.7-26.6 19.7z"/><path class="st1" d="M56.1 65.3V54.5c3.1-1.4 5.2-4.4 5.2-8 0-4.9-4-8.8-8.8-8.8s-8.8 4-8.8 8.8c0 3.4 1.9 6.3 4.7 7.8v11h7.7z"/></g></g></svg>