<svg id="Layer_1" xmlns="http://www.w3.org/2000/svg" viewBox="0 0 103.8 103.4"><style>.st1{fill:#fff}</style><g id="master"><path id="bg" d="M102.2 64.2c-6.8 27.8-34.9 44.5-62.5 37.6C11.9 94.9-4.8 66.9 2.1 39.2 8.9 11.4 37-5.3 64.6 1.6c27.8 6.7 44.6 34.9 37.6 62.6z" fill="#0299e5"/><path class="st1" d="M44.3 61.6c-2.5 2.7-6.1 4.4-10 4.4-7.6 0-13.7-6.1-13.7-13.7s6.1-13.7 13.7-13.7c3.9 0 7.5 1.7 10 4.3l3.6-3.6c-3.4-3.6-8.2-5.8-13.5-5.8-10.4 0-18.8 8.4-18.8 18.8S24 71.1 34.4 71.1c5.4 0 10.3-2.3 13.7-5.9l-3.8-3.6z"/><path class="st1" d="M69.6 33.5c-5.2 0-9.8 2.1-13.2 5.5l-13 13.2 13 13.2c3.4 3.4 8.1 5.5 13.2 5.5 10.3 0 18.7-8.4 18.7-18.7 0-10.3-8.3-18.7-18.7-18.7zm.1 32.6c-3.9 0-7.4-1.6-9.9-4.1l-9.7-9.9 9.7-9.9c2.5-2.5 6-4.1 9.9-4.1 7.7 0 14 6.3 14 14 0 7.8-6.3 14-14 14z"/></g></svg>