<svg id="Layer_1" xmlns="http://www.w3.org/2000/svg" viewBox="0 0 103.4 103.4"><style>.st0{fill:#2c3d4f}.st1{fill:#fff}.st2{fill:#f4f4f4}</style><path class="st0" d="M55.9.1c1.9.3 3.7.5 5.6.8C81.2 4.4 98 20.5 102.1 40.1c3.8 18.4-.6 34.6-13.8 48.1-7.7 7.9-17.2 12.8-28.2 14.4-17.5 2.5-32.8-2.3-45.3-14.9C6.8 79.7 2 69.9.6 58.6c-2-16.9 2.8-31.7 15-43.8C23.6 6.8 33.4 2 44.7.5c1-.1 1.9-.3 2.9-.4h8.3zm-4.1 4C25.5 4 4.7 25.1 4.1 50.6c-.5 26.7 20.8 48.3 46.8 48.7 26.6.4 48.5-21 48.5-47.6 0-26.3-21.3-47.6-47.6-47.6z"/><path class="st1" d="M51.8 4.1c26.3 0 47.6 21.3 47.6 47.7 0 26.6-21.9 48-48.5 47.6-26-.4-47.4-22-46.8-48.7C4.7 25.1 25.5 4 51.8 4.1zM8.2 51.7C8 75.3 27.3 94.8 50.9 95.3c23.7.5 44.4-18.4 44.4-43.5 0-24.4-19.5-43.6-43.5-43.7C27.6 8 8.2 27.5 8.2 51.7z"/><path class="st0" d="M8.2 51.7C8.2 27.5 27.6 8 51.9 8.1c23.9.1 43.5 19.3 43.5 43.7 0 25.1-20.8 44-44.4 43.5-23.7-.5-43-20-42.8-43.6zm76.5-12.9c-4.2-12.3-18.6-24.5-36.9-22.4-18.1 2.1-31.8 17.4-31.4 36 .3 18.7 15 33.8 33.6 34.7 9 .4 17.1-2.3 24.2-7.9 4.8-3.8 8.2-8.7 10.6-14.5-.4-.1-.6-.1-.7-.1H70.2c-.4 0-.9.3-1.1.6-5.4 6.2-12.1 9.4-20.4 8.1-12.6-2-20.4-13.1-18.3-25.7C32 37.9 41.1 30 50.8 29.8c7.4-.2 13.5 2.5 18.2 8.3.3.4 1 .7 1.5.7 3.3.1 6.5 0 9.8 0h4.4zm-33 0c-6.8-.1-12.7 5.6-12.9 12.3-.2 6.9 5.1 13.3 12.7 13.4 7.1.1 12.9-5.6 13-12.7.1-7.1-5.6-12.9-12.8-13z"/><path class="st1" d="M84.7 38.8H70.5c-.5 0-1.2-.3-1.5-.7-4.7-5.7-10.8-8.4-18.2-8.3C41 30 32 37.9 30.4 47.6c-2.1 12.6 5.7 23.7 18.3 25.7 8.3 1.3 15-1.8 20.4-8.1.3-.3.7-.6 1.1-.6h13.9c.2 0 .4.1.7.1-2.4 5.7-5.8 10.6-10.6 14.5-7 5.6-15.1 8.4-24.2 7.9-18.6-.9-33.4-16-33.7-34.6-.4-18.6 13.3-33.9 31.4-36 18.4-2.1 32.8 10.1 37 22.3z"/><path class="st1" d="M51.7 38.8c7.2.1 12.9 5.8 12.8 13-.1 7.1-5.9 12.8-13 12.7-7.6-.1-12.9-6.5-12.7-13.4.3-6.6 6.1-12.3 12.9-12.3z"/><path class="st2" d="M57.6 74.5s-.1 0-.1.1c-.6.3-1.1.5-1.7.7.6-.3 1.2-.5 1.8-.8zm-2.6 1c.1 0 .1 0 .2-.1-.1.1-.2.1-.2.1zm.4-.1c.1 0 .1 0 .2-.1-.1 0-.1.1-.2.1z"/><path class="st2" d="M84.7 65H69.3s-4.3 6.2-11.8 9.6c0 0 .1 0 .1-.1-.6.3-1.2.5-1.9.8.6-.2 1.2-.5 1.7-.7-2 .7-3.4 1.2-3.9 1.4-1 .3-2 .5-3 .6-1.2.2-2.4.2-3.6.2-1.3 0-2.6-.2-3.9-.4-1.6-.3-3.1-.7-4.6-1.3-1.3-.6-2.6-1.3-3.9-2-1.6-.8-2.9-1.9-4.2-3.2-.5-.5-1-1-1.4-1.5-.7-.8-1.3-1.5-1.9-2.3-1.1-1.5-2-3.1-2.7-4.8-.7-1.7-1.2-3.4-1.6-5.1-.3-1.5-.5-3-.5-4.6v-3.1c0-1.3.2-2.6.5-3.8.4-1.6.8-3.2 1.3-4.7s1.2-2.9 2-4.3c1.1-1.9 2.3-3.7 3.8-5.3.8-.9 1.7-1.8 2.7-2.7.9-.8 1.8-1.5 2.8-2.2.8-.6 1.6-1.2 2.5-1.6 1.3-.7 2.7-1.3 4.1-1.9 1.2-.5 2.4-.9 3.6-1.2 1.5-.4 3.1-.7 4.7-1 .8-.2 1.7-.2 2.6-.3.5-.1 1-.1 1.5-.1.4 0 .8-.1 1.2-.1.8 0 1.6.1 2.4.2.7.1 1.3.1 2 .2 1.5.3 3 .5 4.4.9 1.8.4 3.5 1.2 5.2 2 .5.3 1.1.5 1.6.8.7.4 1.4.7 2.1 1.1.9.6 1.9 1.2 2.8 1.9.8.6 1.6 1.3 2.4 1.9.1.1.2.1.2.1l.1-.1c-.8-.7-1.5-1.4-2.3-2.1-1.2-1.1-2.4-2.2-3.7-3.1-1.9-1.4-4-2.6-6.1-3.6-1.9-.8-3.8-1.5-5.8-2.1-2.3-.6-4.6-1-6.9-1.1-2-.1-3.9-.1-5.9.2-1.5.2-3 .4-4.5.8-3.3.8-6.4 2-9.4 3.7-1.8 1-3.4 2.1-5 3.4-1.1.9-2.2 1.9-3.2 3-1 1-1.9 2.1-2.7 3.2-2.4 3.1-4.2 6.6-5.4 10.3-1 3.2-1.6 6.5-1.7 9.9 0 .2 0 .4-.1.5v1.1c0 .2.1.3.1.5 0 2 .2 3.9.7 5.8.3 1.4.7 2.8 1.1 4.2.5 1.8 1.3 3.6 2.2 5.3 1.1 2.1 2.3 4 3.7 5.8.8 1 1.7 2 2.6 2.9 1.2 1.2 2.5 2.3 3.8 3.4 1.9 1.4 3.9 2.7 6 3.7 2.6 1.3 5.3 2.2 8.2 2.8 2.1.4 4.1.7 6.2.7.2 0 .3 0 .5.1h1.4c1.2-.1 2.3-.1 3.5-.2 1.8-.2 3.6-.6 5.4-1.1 3.2-.9 6.3-2.2 9.1-4 2.2-1.4 4.3-2.9 6.1-4.8.6-.6 1.2-1.2 1.8-1.9.9-1 1.8-2.1 2.5-3.2.9-1.3 1.7-2.6 2.5-4 .6-1.1 1.1-2.2 1.6-3.4h-.3zM55 75.5c.1 0 .1 0 .2-.1-.1.1-.1.1-.2.1zm.6-.2c-.1 0-.1 0-.2.1.1 0 .1-.1.2-.1z"/></svg>