<svg xmlns="http://www.w3.org/2000/svg" viewBox="0 0 103.4 103.4"><path d="M101.7 64.2c-6.8 27.8-34.9 44.5-62.5 37.6C11.4 94.9-5.3 66.9 1.6 39.2 8.4 11.4 36.5-5.3 64.1 1.6c27.8 6.7 44.6 34.9 37.6 62.6z" fill="#b4d100"/><path d="M16.8 56.6s26.6-2.1 39.8-7.4c0 0 3.9 0 12.6-23.6l7.5-5.6s1.4-1.2 1.6.7c.2 1.8 1.2 9.1 1.2 9.1l-9.7 18s-2.2 5.7-12.5 6.8c-10.4 1.2-25.9 2.1-40.5 2zM20 73.8h12.6s-1.4-1-1.4-2.6-.1-12.6-.1-12.6-5.8.3-9.8.3l.1 12.4c.1 0 .5 1.3-1.4 2.5zm16.5-15.6v13.5s.1 1-1.5 2h12.8s-1.4-1.1-1.4-2.4V57.9s-6.8.2-9.9.3zm14.9-.6V72s-.7 1.8-1.6 1.8h13.1s-1.5-1.1-1.5-2.1V55.9s-2.3 1-10 1.7zm15-3.4v17.5s-.6 2.1-1.8 2.1H78s-1.6-.8-1.6-2.2V40s-4.5 11.9-10 14.2z" fill="#fff"/></svg>