<svg id="Layer_1" xmlns="http://www.w3.org/2000/svg" viewBox="0 0 103.8 103.4"><style>.st1{fill:#fff}</style><g id="master"><path id="bg" d="M102.2 64.2c-6.8 27.8-34.9 44.5-62.5 37.6C11.9 94.9-4.8 66.9 2.1 39.2 8.9 11.4 37-5.3 64.6 1.6c27.8 6.7 44.6 34.9 37.6 62.6z" fill="#1c75bc"/></g><path class="st1" d="M47.4 46.9H26.7l-2.4 7.8H45z"/><path class="st1" d="M80.5 36.9c-1.2-3-5.3-3-5.3-3H36.4l-2.6 8.5h34.7l-5.2 17h-35l-2.6 8.5H63s2.8.5 7.2-2.2 5.7-7.4 5.7-7.4 3.9-12.3 4.6-15.1 1.2-3.3 0-6.3z"/></svg>