<svg xmlns="http://www.w3.org/2000/svg" viewBox="0 0 103.8 103.4"><path d="M102.2 64.2c-6.8 27.8-34.9 44.5-62.5 37.6C11.9 94.9-4.8 66.9 2.1 39.2 8.9 11.4 37-5.3 64.6 1.6c27.8 6.7 44.6 34.9 37.6 62.6z"/><path d="M27.4 69.2L15.9 88.6s4.7 6.4 18 11.5l6.6-17.8 4.4-12 4.6-13.2s1.5-4.3 1.6-4.3l.2-.5.1-.2.1-.1.1-.1.1-.1h.1l.1.1.2.4.4 1.3.9 2.5 3.1 9.5 2.7 8.4 4.2 12.8 3.3 9 1.7 4.9S78.9 97.8 87.8 89l-6.4-9.5-4.2-7.1-4.2-8.2-3.5-7.2-2.8-6.6-2.3-6.5-2.2-6.4-2.2-7.4-2.3-7.6-2-7.6-2.3-8.4-1.3-4.2-2.5 8-3.4 11.2-2.7 8.5-3.2 9.5-2.7 7.7-3.1 7.4-3.3 7.1-3.8 7.5z" fill="#fff"/></svg>