<svg xmlns="http://www.w3.org/2000/svg" xmlns:xlink="http://www.w3.org/1999/xlink" viewBox="0 0 103.4 103.4"><style>.st2{display:none}.st4{display:inline}.st5{fill:none;stroke:#ededed;stroke-width:4}.st8{fill:#fff}</style><g id="Layer_1"><g id="Welcome_1_"><g id="AUGlogo-gray" transform="translate(-1)"><g id="Layer_1_1_"><g id="Page-1_3_"><path id="Shape_6_" d="M102.8 64.2c-6.8 27.8-35 44.6-62.6 37.7C12.4 95-4.4 66.9 2.5 39.2c6.8-27.8 35-44.6 62.6-37.7 27.9 6.6 44.7 34.8 37.7 62.7z" opacity=".75" fill="#ecb634"/><g id="Page-1" class="st2"><path id="Path-12" fill="#fff" d="M8.3 64.6l14-.1.1-39.2 30.1 30.3 30.6-30.4.1 39.3h14L92.9 74l-19.9.1-.1-25.1-20.3 20.8-20.4-20.5.1 24.8H12.8z"/></g><g id="Welcome_2_" transform="translate(24 19)" class="st2"><g id="augurSvg_1_" class="st4"><path id="Line_9_" class="st5" d="M1.4 48.3s8.3-5.2 11.8-5.2 5.8 2.5 7.5 3.8c1.6 1.4 4.8 2.4 4.8 2.4"/><path id="Line_8_" class="st5" d="M.7 49.5c-.5-.3-.6-.9-.4-1.4L27.2.6c.8-1.4 2.1-1.4 2.9 0L57 48.1c.3.5.1 1.1-.4 1.4L29.5 65.7c-.5.3-1.2.3-1.6 0L.7 49.5z"/><path id="Line_7_" class="st5" d="M28.7.8s.1 10 0 16.6c0 2.8 0 5-.2 5.7-.6 1.9-4.8 4.2-6.3 5.1s-3.5 2.6-4.5 4.3-1 6.7-1 6.7"/><path id="Line_6_" class="st5" d="M39.3 44.1s-.8 1.6-2.6 2.9c-2.1 1.6-5.4 3.2-5.9 3.6-1 .7-1.7 1.7-2 3-.2 1.3 0 10.8 0 10.8"/><path id="Line_5_" class="st5" d="M32 26.6s3.3 1 5.9 3.6 2.7 6.5 4.4 10.2c1.6 3.7 14.7 8.3 14.7 8.3"/></g></g></g></g></g></g><g class="st2"><defs><path id="SVGID_1_" d="M10.5 32.8h27.4v11.4H10.5V32.8zm73.3 29.8H62V40.8h30.9v-8H53.2v37.8h39.5V47.9H68.6v8h15.2v6.7zm-64.5-6.7h21.8v6.7H19.3v-6.7zm-8.8 0v-8h30.7V32.8H50v37.8H10.5V55.9z"/></defs><clipPath id="SVGID_2_" class="st4"><use xlink:href="#SVGID_1_" overflow="visible"/></clipPath><g clip-path="url(#SVGID_2_)"><defs><path id="SVGID_3_" d="M-528.4-551.3h3903.5v752.5H-528.4z"/></defs><clipPath id="SVGID_4_"><use xlink:href="#SVGID_3_" overflow="visible"/></clipPath><path clip-path="url(#SVGID_4_)" fill="#fff" d="M7.4 29.7h88.5v43.9H7.4z"/></g></g></g><g id="Layer_2"><path class="st8" d="M53.2 32.8h39.7v8H62v21.8h21.8v-6.7H68.6v-8h24.1v22.7H53.2zm-12 0H50v37.8H10.5V47.8h30.6v-15zM19.3 55.9v6.7h21.8v-6.7H19.3z"/><path class="st8" d="M10.5 32.8h27.4v11.4H10.5z"/></g></svg>