<svg id="Layer_1" xmlns="http://www.w3.org/2000/svg" viewBox="0 0 103.8 103.4"><style>.st1{fill:#fff}</style><g id="master"><path id="bg" d="M102.2 64.2c-6.8 27.8-34.9 44.5-62.5 37.6C11.9 94.9-4.8 66.9 2.1 39.2 8.9 11.4 37-5.3 64.6 1.6c27.8 6.7 44.6 34.9 37.6 62.6z" fill="#301147"/></g><path class="st1" d="M65.2 22.8c-5.1-4.4-13-15-13-15s-7.9 10.6-13 15-8.8 10.5-4.2 16.6 14 1.8 14 1.8-.5 4.9-3.5 8.1c0 0-1.2 1.3-.1 2.5s6.9 6.9 6.9 6.9 5.8-5.7 6.9-6.9-.1-2.5-.1-2.5c-3-3.2-3.5-8.1-3.5-8.1s9.5 4.4 14-1.8.7-12.2-4.4-16.6z"/><path class="st1" d="M70.3 54.6c-4.7 0-8.9 1.9-12 5l-6.7 5.9-5.8-6c-3.1-3.1-7.3-5-12-5-9.3 0-16.9 7.6-16.9 16.9 0 9.3 7.6 16.9 16.9 16.9 4.9 0 9.3-2.1 12.4-5.4l1-1 .1-.1c.1-.2.3-.4.3-.7 0-.3-.1-.5-.3-.7l-.1-.1-3.6-4c-.2-.3-.5-.5-.8-.5-.3 0-.6.1-.8.4l-1.2 1.2c-1.9 1.6-4.2 3.2-7 3.2-5.1 0-9.2-4.1-9.2-9.2s4.1-9.2 9.2-9.2c2.4 0 4.6.9 6.3 2.4l17.7 18.1c3.1 3.4 7.5 5.6 12.5 5.6 9.3 0 16.9-7.6 16.9-16.9 0-9.2-7.5-16.8-16.9-16.8zm0 26.1c-2.3 0-4.3-.8-6-2.2-.4-.3-.8-.7-1.1-1.1L57 71l7.8-6.9c1.5-1.2 3.5-1.9 5.6-1.9 5.1 0 9.2 4.1 9.2 9.2s-4.2 9.3-9.3 9.3z"/></svg>