<svg xmlns="http://www.w3.org/2000/svg" viewBox="0 0 103.8 103.4"><path d="M102.2 64.2c-6.8 27.8-34.9 44.5-62.5 37.6C11.9 94.9-4.8 66.9 2.1 39.2 8.9 11.4 37-5.3 64.6 1.6c27.8 6.7 44.6 34.9 37.6 62.6z" fill="#9877e3"/><path d="M82.5 51.6c0-3.4-2.7-6.1-6.1-6.1H31.3c2.2-6.4 7.9-11 15-11.3h30.6c3.2-.2 5.8-2.8 5.8-6.1s-2.6-5.9-5.8-6.1h-28c-.6 0-1.3-.1-1.9-.1-16.4 0-28.6 13.3-28.6 29.7 0 16.3 12 29.5 28.2 29.7l29.8.1c3.4 0 6.1-2.7 6.1-6.1s-2.7-6.1-6.1-6.1H47.1c-7.5 0-13.5-4.7-15.8-11.4h45.1c3.4 0 6.1-2.8 6.1-6.2z" fill="#fff"/></svg>