<svg id="Layer_1" xmlns="http://www.w3.org/2000/svg" viewBox="0 0 103.8 103.4"><style>.st0{fill:#089a8b}</style><g id="master"><path id="bg" class="st0" d="M102.2 64.2c-6.8 27.8-34.9 44.5-62.5 37.6C11.9 94.9-4.8 66.9 2.1 39.2 8.9 11.4 37-5.3 64.6 1.6c27.8 6.7 44.6 34.9 37.6 62.6z"/><path d="M52.5 19.2v15.2l10.6 17.3-10.3 33.5 21.4-13.1L67 39.4zm10.6 32.5L67 39.4m7.2 32.7L63.1 51.7M52.5 19.2v15.2L41.7 51.7l10.2 33.5-21.4-13.1 7.2-32.7zM41.7 51.7l-4-12.3m-7.2 32.7l11.2-20.4m32.5 20.4H30.5" fill="none" stroke="#fff" stroke-width=".5" stroke-miterlimit="10"/></g><path class="st0" d="M51.6 16.8h2.3v2.3h-2.3z"/></svg>