<svg id="Layer_1" xmlns="http://www.w3.org/2000/svg" viewBox="0 0 103.8 103.4"><style>.st1{fill:#fff}</style><g id="master"><path id="bg" d="M102.2 64.2c-6.8 27.8-34.9 44.5-62.5 37.6C11.9 94.9-4.8 66.9 2.1 39.2 8.9 11.4 37-5.3 64.6 1.6c27.8 6.7 44.6 34.9 37.6 62.6z" fill="#5bd000"/><path class="st1" d="M31.5 55.4L52.2 68l20.9-12.6-20.8 29.8z"/><path class="st1" d="M72 52.2s-15.3-8.8-17.6-10.1c-2.2-1.3-3.9 0-3.9 0l-16.6 9.7c-2.2 1-1 2.1-1 2.1s13.5 8 16.7 10 4.7 0 4.7 0S70.9 54.3 72 53.6c1.1-.7 0-1.4 0-1.4zm-19.5 3.1c-2.2 0-4-1-4-2.3 0-1.3 1.8-2.3 4-2.3s4 1 4 2.3c-.1 1.3-1.8 2.3-4 2.3zm-1.4-18.1V19c0-2.2-1.4-1.2-1.4-1.2s-15 8.8-17.1 9.9-1.7 2.8-1.7 2.8V48c0 2.8 1.4 1.9 1.4 1.9s14.8-8.4 16.9-9.9 1.9-2.8 1.9-2.8zm-14.3 8.2c-1.2 1.7-2.9 2.6-3.9 1.9-1-.7-.9-2.6.3-4.4 1.2-1.7 2.9-2.6 3.9-1.9 1 .7.8 2.6-.3 4.4zM43.2 35c-1.2 1.7-2.9 2.6-3.9 1.9-1-.7-.9-2.6.3-4.4 1.2-1.7 2.9-2.6 3.9-1.9.9.7.8 2.6-.3 4.4zm6-10.4c-1.2 1.7-2.9 2.6-3.9 1.9-1-.7-.9-2.6.3-4.4 1.2-1.7 2.9-2.6 3.9-1.9 1 .7.9 2.7-.3 4.4zM72 27.7c-2.1-1.2-17.1-9.9-17.1-9.9s-1.4-1.1-1.4 1.2v18.2s-.2 1.4 1.9 2.9S72.3 50 72.3 50s1.4.8 1.4-1.9V30.5c.1 0 .4-1.6-1.7-2.8zM59.8 40.3c-1 .7-2.8-.2-3.9-1.9-1.2-1.7-1.3-3.7-.3-4.4 1-.7 2.8.2 3.9 1.9s1.3 3.7.3 4.4zm12.3-6.8c-1 .7-2.8-.2-3.9-1.9-1.2-1.7-1.3-3.7-.3-4.4 1-.7 2.8.2 3.9 1.9s1.3 3.7.3 4.4z"/></g></svg>