<svg id="Layer_1" xmlns="http://www.w3.org/2000/svg" viewBox="0 0 103.8 103.4"><style>.st1{fill:#fff;stroke:#77557b;stroke-miterlimit:10}</style><g id="master"><path id="bg" d="M102.2 64.2c-6.8 27.8-34.9 44.5-62.5 37.6C11.9 94.9-4.8 66.9 2.1 39.2 8.9 11.4 37-5.3 64.6 1.6c27.8 6.7 44.6 34.9 37.6 62.6z" fill="#77557b"/></g><g id="logo_1_"><path id="Shape_6_" class="st1" d="M51.8 15.6l23.1 37-23.1 13.1z"/><path id="Shape_5_" class="st1" d="M74.9 56.8L51.8 88.1V69.7z"/><path id="Shape_4_" class="st1" d="M51.8 15.6l-23.3 37 23.3 13.1z"/><path id="Shape_3_" class="st1" d="M28.5 56.8l23.3 31.3V69.7z"/><path id="Shape_2_" class="st1" d="M51.8 65.7L28.5 52.6l23.3-9.8z"/><path id="Shape_1_" class="st1" d="M51.8 65.7l23.1-13.1-23.1-9.8z"/></g></svg>