<svg xmlns="http://www.w3.org/2000/svg" xmlns:xlink="http://www.w3.org/1999/xlink" viewBox="0 0 103.8 103.4"><path d="M102.2 64.2c-6.8 27.8-34.9 44.5-62.5 37.6C11.9 94.9-4.8 66.9 2.1 39.2 8.9 11.4 37-5.3 64.6 1.6c27.8 6.7 44.6 34.9 37.6 62.6z" fill="#4d8bc6"/><defs><path id="a" d="M70 36.1H52.7c-.6 0-.4.5-.3.6 1.9 2.8 2.4 3.4 5.3 7.6 2.9 4.2 4 7.1 3.8 11 0 1.3 0 2-.5 3.3-.3.7-.4 1.2-1.6 2.8-1.9 2.3-2.6 3-5 4.6-.1.1.3.4.9.4h26c.6 0 .4-.5.3-.7-.7-1.7-1.3-3.4-2-5.1-.1-.1-.2-.4-.6-.4H67l-1.6-5.7h8.9c.2 0 .4 0 .2-.4-.8-1.8-1.3-3.6-2-5.5-.1-.3-.3-.4-.6-.4h-6.1L64 42.5h8.6c.1 0 .4-.1.2-.6-.7-1.8-1.4-3.6-2.1-5.3-.1-.3-.2-.5-.7-.5z"/></defs><use xlink:href="#a" overflow="visible" fill-rule="evenodd" clip-rule="evenodd" fill="#fff"/><defs><path id="b" d="M98 65.4c-.7-1.9-1-3.2-1.7-5.1-.1-.3-.3-.4-.5-.3h-6.2c-.3 0-.4-.1-.5-.4 0-.1-.1-.2-.1-.2-3-7.2-5.3-14.4-8.2-21.5-.2-.4-.3-.7-.4-1.1-.3-.7-.7-.7-.9-.7h-6.4c-.6 0-.5.4-.5.6 3.8 9.7 6.9 19.3 10.8 28.9.2.6.7.6.9.6h13.3c.3 0 .7-.1.4-.8z"/></defs><use xlink:href="#b" overflow="visible" fill-rule="evenodd" clip-rule="evenodd" fill="#fff"/><defs><path id="c" d="M49.3 36.1c.3 0 .4.1.6.3 2.4 3.5 4.8 6.9 7.1 10.4 1.2 1.8 2 3.9 2.2 6 .4 3.4-.5 6.4-2.7 8.9-1.1 1.3-2.5 2.4-4 3.2-1.8 1.1-3.8 1.9-5.9 2.2-3.8.6-7.2-.4-10-3.1-1-.9-1.8-2-2.5-3.1-1.4-2.2-2.8-4.4-4.1-6.6-.2-.3-.4-.4-.7-.4h-8.6c-.5 0-.5 0-.6.4-1.5 3.6-2.9 7.2-4.4 10.9-.1.2-.1.6-.9.6H8.6c-.3 0-.8 0-.5-.7 3.8-9.5 7.7-18.9 11.3-28.4.3-.7 1.1-.7 1.3-.7h13.2c.4 0 .6.1.8.4 1.2 1.8 2.1 3.1 3.4 4.9.1.1.8.9 0 .9H25.6c-.6 0-.5-.1-.7.5-.6 1.6-1.2 3.1-1.9 4.6 0 .1-.1.2-.2.4h11.4c.4 0 .6.1.8.4 1.9 2.8 3.8 5.6 5.8 8.4.4.6.8 1.2 1.4 1.8 1.7 1.8 4.1 2.2 6.4 1.2.8-.3 1.5-.8 2.1-1.4.7-.8 1.1-1.7 1.1-2.7.1-1.8-.5-3.5-1.6-4.9-3.2-4.6-6.4-9.2-9.6-13.9-.1-.2-.3-.4-.4-.6"/></defs><use xlink:href="#c" overflow="visible" fill-rule="evenodd" clip-rule="evenodd" fill="#fff"/></svg>