<svg id="Layer_1" xmlns="http://www.w3.org/2000/svg" viewBox="0 0 103.8 103.4"><style>.st1{fill:#fff}</style><g id="master"><path id="bg" d="M102.2 64.2c-6.8 27.8-34.9 44.5-62.5 37.6C11.9 94.9-4.8 66.9 2.1 39.2 8.9 11.4 37-5.3 64.6 1.6c27.8 6.7 44.6 34.9 37.6 62.6z" fill="#f60051"/><path id="F" class="st1" d="M35.1 44.8v-4.5H18.7v21.8h6.5v-8.9h8.3v-3.8h-8.3v-4.6z"/><path id="U" class="st1" d="M53.3 40.3v12.8c0 2.1-1.7 3.8-3.8 3.8-2.1 0-3.8-1.7-3.8-3.8V40.3h-6.1v13.1c0 5.5 4.4 9.9 9.9 9.9s9.9-4.4 9.9-9.9V40.3h-6.1z"/><path id="N" class="st1" d="M79.7 40.3v13.2l-9.1-13.2h-5.4v21.8h5.4v-12l9.1 12h5.4V40.3z"/></g></svg>