<svg id="Layer_1" xmlns="http://www.w3.org/2000/svg" viewBox="0 0 103.4 103.4"><style>.st2{display:none}.st5{fill:none;stroke:#ededed;stroke-width:4}.st6{fill:#fff}</style><g id="Welcome_1_"><g id="AUGlogo-gray" transform="translate(-1)"><g id="Layer_1_1_"><g id="Page-1_3_"><path id="Shape_6_" d="M102.8 64.2c-6.8 27.8-35 44.6-62.6 37.7C12.4 95-4.4 66.9 2.5 39.2c6.8-27.8 35-44.6 62.6-37.7 27.9 6.6 44.7 34.8 37.7 62.7z" opacity=".75" fill="#426483"/><g id="Page-1" class="st2"><path id="Path-12" fill="#fff" d="M8.3 64.6l14-.1.1-39.2 30.1 30.3 30.6-30.4.1 39.3h14L92.9 74l-19.9.1-.1-25.1-20.3 20.8-20.4-20.5.1 24.8H12.8z"/></g><g id="Welcome_2_" transform="translate(24 19)" class="st2"><g id="augurSvg_1_"><path id="Line_9_" class="st5" d="M1.4 48.3s8.3-5.2 11.8-5.2 5.8 2.5 7.5 3.8c1.6 1.4 4.8 2.4 4.8 2.4"/><path id="Line_8_" class="st5" d="M.7 49.5c-.5-.3-.6-.9-.4-1.4L27.2.6c.8-1.4 2.1-1.4 2.9 0L57 48.1c.3.5.1 1.1-.4 1.4L29.5 65.7c-.5.3-1.2.3-1.6 0L.7 49.5z"/><path id="Line_7_" class="st5" d="M28.7.8s.1 10 0 16.6c0 2.8 0 5-.2 5.7-.6 1.9-4.8 4.2-6.3 5.1s-3.5 2.6-4.5 4.3-1 6.7-1 6.7"/><path id="Line_6_" class="st5" d="M39.3 44.1s-.8 1.6-2.6 2.9c-2.1 1.6-5.4 3.2-5.9 3.6-1 .7-1.7 1.7-2 3-.2 1.3 0 10.8 0 10.8"/><path id="Line_5_" class="st5" d="M32 26.6s3.3 1 5.9 3.6 2.7 6.5 4.4 10.2c1.6 3.7 14.7 8.3 14.7 8.3"/></g></g></g></g></g></g><path id="face" class="st6" d="M37.5 42.4l-1.7-1.9c-2 3.4-3.2 7.5-3.2 11.8 0 11.8 8.5 21.4 19 21.4s19-9.6 19-21.4c0-4.3-1.1-8.4-3.1-11.8L66 42.2c.6 1.1 3.2 6.6-1.4 11.2-3 2.9-6.5 1.8-8.8.4l-4.1 4.6-4-4.5c-2.4 1.4-5.8 2.4-8.7-.5-4.5-4.3-2.1-9.7-1.5-11z"/><path id="top" class="st6" d="M36.2 37.6c3.7-4.9 9.3-8.1 15.4-8.1 6.2 0 11.8 3.2 15.5 8.2L51.8 55.3 36.2 37.6zm2.6.2l13 14.7 12.9-14.6c-3.1-4.2-7.8-6.8-13-6.8s-9.8 2.6-12.9 6.7z"/><path id="eye" class="st6" d="M40.1 45.3l-.4-.4s-1.9 3.4.1 5.8 4.3 1 5.2.5c.1-.1.2-.1.2-.2l-5.1-5.7z"/><path id="eye_1_" class="st6" d="M63.4 45.3l.4-.4s1.9 3.4-.1 5.8-4.3 1-5.2.5c-.1-.1-.2-.1-.2-.2l5.1-5.7z"/><path id="Path-6" class="st6" d="M2 46.7h28.2s-2.1 11.1 4.2 19.6c0 .1-27.4.9-32.4-19.6z"/><path id="Path-6_1_" class="st6" d="M101.4 46.7H73.2s2.1 11.1-4.2 19.6c0 .1 27.4.9 32.4-19.6z"/></svg>