<svg xmlns="http://www.w3.org/2000/svg" xmlns:xlink="http://www.w3.org/1999/xlink" viewBox="0 0 103.4 103.4"><style>.st2{display:none}.st4{display:inline}.st5{fill:none;stroke:#ededed;stroke-width:4}.st8{clip-path:url(#SVGID_2_)}.st12,.st8{fill:#fff}</style><g id="Layer_1"><g id="Welcome_1_"><g id="AUGlogo-gray" transform="translate(-1)"><g id="Layer_1_1_"><g id="Page-1_3_"><path id="Shape_6_" d="M102.8 64.2c-6.8 27.8-35 44.6-62.6 37.7C12.4 95-4.4 66.9 2.5 39.2c6.8-27.8 35-44.6 62.6-37.7 27.9 6.6 44.7 34.8 37.7 62.7z" opacity=".75" fill="#20c1d1"/><g id="Page-1" class="st2"><path id="Path-12" fill="#fff" d="M8.3 64.6l14-.1.1-39.2 30.1 30.3 30.6-30.4.1 39.3h14L92.9 74l-19.9.1-.1-25.1-20.3 20.8-20.4-20.5.1 24.8H12.8z"/></g><g id="Welcome_2_" transform="translate(24 19)" class="st2"><g id="augurSvg_1_" class="st4"><path id="Line_9_" class="st5" d="M1.4 48.3s8.3-5.2 11.8-5.2 5.8 2.5 7.5 3.8c1.6 1.4 4.8 2.4 4.8 2.4"/><path id="Line_8_" class="st5" d="M.7 49.5c-.5-.3-.6-.9-.4-1.4L27.2.6c.8-1.4 2.1-1.4 2.9 0L57 48.1c.3.5.1 1.1-.4 1.4L29.5 65.7c-.5.3-1.2.3-1.6 0L.7 49.5z"/><path id="Line_7_" class="st5" d="M28.7.8s.1 10 0 16.6c0 2.8 0 5-.2 5.7-.6 1.9-4.8 4.2-6.3 5.1s-3.5 2.6-4.5 4.3-1 6.7-1 6.7"/><path id="Line_6_" class="st5" d="M39.3 44.1s-.8 1.6-2.6 2.9c-2.1 1.6-5.4 3.2-5.9 3.6-1 .7-1.7 1.7-2 3-.2 1.3 0 10.8 0 10.8"/><path id="Line_5_" class="st5" d="M32 26.6s3.3 1 5.9 3.6 2.7 6.5 4.4 10.2c1.6 3.7 14.7 8.3 14.7 8.3"/></g></g></g></g></g></g><g class="st2"><g class="st4"><g class="st2"><g class="st4"><defs><path id="SVGID_1_" d="M10.5 32.8h27.4v11.4H10.5V32.8zm73.3 29.8H62V40.8h30.9v-8H53.2v37.8h39.5V47.9H68.6v8h15.2v6.7zm-64.5-6.7h21.8v6.7H19.3v-6.7zm-8.8 0v-8h30.7V32.8H50v37.8H10.5V55.9z"/></defs><clipPath id="SVGID_2_"><use xlink:href="#SVGID_1_" overflow="visible"/></clipPath><path class="st8" d="M53.2 32.8h39.7v8H62v21.8h21.8v-6.7H68.6v-8h24v22.7H53.2zm-42.7 0h27.4v11.4H10.5z"/><path class="st8" d="M41.1 32.8H50v37.8H10.5V47.8h30.6v-15zM19.3 55.9v6.7h21.8v-6.7H19.3z"/></g></g><defs><path id="SVGID_5_" d="M51.2 86c5.8 0 10.6-4.7 10.6-10.6S57 64.9 51.2 64.9s-10.6 4.7-10.6 10.6S45.4 86 51.2 86zm0-42.6c5.6 0 10.1-4.5 10.1-10.1s-4.5-10.1-10.1-10.1-10.1 4.5-10.1 10.1 4.5 10.1 10.1 10.1zm3.5 17.1V48.2c6.8-1.6 11.8-7.7 11.8-14.9 0-3.1-.9-5.9-2.4-8.3l9-9-3.4-3.4-8.8 8.8c-2.6-2.1-6-3.4-9.7-3.4-8.5 0-15.4 6.9-15.4 15.4 0 7.7 5.6 14 13 15.2v11.8c-7.4 1.1-13 7.5-13 15.2 0 8.5 6.9 15.4 15.4 15.4s15.3-7 15.3-15.5c0-7.3-5-13.4-11.8-15z"/></defs><clipPath id="SVGID_6_"><use xlink:href="#SVGID_5_" overflow="visible"/></clipPath><g clip-path="url(#SVGID_6_)"><path class="st12" d="M66.4 33.3c0 8.4-6.8 15.2-15.2 15.2S36 41.7 36 33.3s6.8-15.2 15.2-15.2 15.2 6.8 15.2 15.2zM51.2 22.7c-5.8 0-10.6 4.7-10.6 10.6s4.7 10.6 10.6 10.6 10.6-4.7 10.6-10.6S57 22.7 51.2 22.7zm15.2 52.8c0 8.4-6.8 15.2-15.2 15.2S36 83.9 36 75.5s6.8-15.2 15.2-15.2 15.2 6.8 15.2 15.2zM51.2 64.9c-5.8 0-10.6 4.7-10.6 10.6 0 5.8 4.7 10.6 10.6 10.6s10.6-4.7 10.6-10.6c0-5.9-4.8-10.6-10.6-10.6z"/><path class="st12" d="M48.8 47.4h6v15.5h-6z"/><path transform="rotate(-45.001 66.787 18.916)" class="st12" d="M60.3 16.4h13v5h-13z"/></g></g></g></g><g id="Layer_2"><path class="st12" d="M66.4 33.3c0 8.4-6.8 15.2-15.2 15.2S36 41.7 36 33.3s6.8-15.2 15.2-15.2 15.2 6.8 15.2 15.2zM51.2 22.8c-5.8 0-10.5 4.7-10.5 10.5s4.7 10.5 10.5 10.5 10.5-4.7 10.5-10.5S57 22.8 51.2 22.8zm15.2 52.6c0 8.4-6.8 15.2-15.2 15.2S36 83.8 36 75.4s6.8-15.2 15.2-15.2 15.2 6.9 15.2 15.2zM51.2 64.9c-5.8 0-10.5 4.7-10.5 10.5S45.4 86 51.2 86s10.5-4.7 10.5-10.6c.1-5.8-4.7-10.5-10.5-10.5z"/><path class="st12" d="M48.7 47.5h6v14.8h-6zm11.5-25.7l9.4-9.3 3.5 3.5-9.7 9.7z"/></g></svg>