<svg id="Layer_1" xmlns="http://www.w3.org/2000/svg" viewBox="0 0 103.8 103.4"><style>.st1{fill:#fff}</style><g id="master"><path id="bg" d="M102.2 64.2c-6.8 27.8-34.9 44.5-62.5 37.6C11.9 94.9-4.8 66.9 2.1 39.2 8.9 11.4 37-5.3 64.6 1.6c27.8 6.7 44.6 34.9 37.6 62.6z" fill="#fb0"/></g><g id="logo"><path id="_x33_" class="st1" d="M75 43.2c-4.9 0-8.9 4-8.9 8.9.1 1.9 0 2.7-1.7 3.8-1.6 1.2-3.5 0-3.5 0-1.4-.8-2.9-1.3-4.6-1.3-4.6 0-8.3 3.4-8.8 7.9 0 .3-.1.6-.1 1v.1c-.1 1.6-.3 2.5-1.6 3.6-1.4 1.1-3.6.1-4.2-.2 0 0-.1 0-.1-.1h-.1c-1.2-.6-2.6-1-4.1-1-4.9 0-8.9 4-8.9 8.9s4 8.9 8.9 8.9 8.9-4 8.9-8.9c.1-1.4.4-2.9 1.7-3.9 1.3-1 4.4.6 4.4.6 1.2.6 2.5.9 3.9.9 4.9 0 8.9-4 8.9-8.9v-.6c0-1.4.3-2.5 1.8-3.4 1.5-.9 4.1.5 4.1.5 1.2.6 2.5.9 4 .9 4.9 0 8.9-4 8.9-8.9s-4-8.8-8.9-8.8z"/><path id="_x32_" class="st1" d="M56.2 31.8c-4.9 0-8.9 4-8.9 8.9.1 1.9 0 2.7-1.7 3.8-1.6 1.2-3.5 0-3.5 0-1.4-.8-2.9-1.3-4.6-1.3-4.9 0-8.9 4-8.9 8.9s4 8.9 8.9 8.9 8.9-4 8.9-8.9v-.6c0-1.4.3-2.5 1.8-3.4 1.5-.9 4.1.5 4.1.5 1.2.6 2.5.9 4 .9 4.9 0 8.9-4 8.9-8.9s-4.1-8.8-9-8.8z"/><path class="st1" d="M43.9 35.6l-.8-3.7-1.8-1.4-1.5-1.6-2.4-2.4-2.2-2.3-2.6 2.3-.7-.3-.4-2.7-.1-.1c-1.8 1.6-2.9 3.9-2.9 6.5 0 4.9 4 8.9 8.9 8.9 2.6 0 4.9-1.1 6.5-2.9v-.3z"/><circle class="st1" cx="31.2" cy="23.4" r="1.2"/><circle class="st1" cx="35.3" cy="24.3" r="1.2"/><circle class="st1" cx="37.4" cy="20.8" r="1.2"/><circle class="st1" cx="43.9" cy="23.2" r="1.2"/><circle class="st1" cx="46.5" cy="29.8" r="1.2"/><circle class="st1" cx="42.9" cy="32" r="1.2"/><circle class="st1" cx="40.5" cy="29.8" r="1.2"/><circle class="st1" cx="42.9" cy="27.6" r="1.2"/><circle class="st1" cx="39.8" cy="24.3" r="1.2"/><circle class="st1" cx="37.4" cy="26.9" r="1.2"/><circle class="st1" cx="43.6" cy="36" r="1.2"/><path d="M43.9 35.6l2.6-5.8m-2.6-6.6l2.2 5.9m-3.2-1.5l3 2m-4.7-.4l.9-.8m1.5-4.7l-.7 3.9m-.5-.7l-2.2-2.3m3.1-1.3l-2.8.7M38 21l4.9 1.9m-3.6.5l-1.5-2m-2.1 2l1.5-1.9m-5.1 1.6l4.2-1.9m-2.1 2.9l-2.2-.4m7.1 1.2L38 26.4m7.9 3.8l-2.3 1.4" fill="none" stroke="#fff" stroke-width=".5" stroke-miterlimit="10"/></g></svg>