<svg id="Layer_1" xmlns="http://www.w3.org/2000/svg" viewBox="0 0 103.4 103.4"><style>.st1{fill:#fff}</style><path id="Shape_1_" d="M101.7 64.2c-6.8 27.8-34.9 44.5-62.5 37.6C11.4 94.9-5.3 66.9 1.6 39.2 8.4 11.4 36.5-5.3 64.1 1.6c27.8 6.7 44.6 34.9 37.6 62.6z" fill="#003dc6"/><path class="st1" d="M47.5 43.1h-4.1V61h4.1c.8 0 1.5-.7 1.5-1.5V44.6c0-.8-.7-1.5-1.5-1.5zm9 0H61V61h-4.5c-.9 0-1.7-.7-1.7-1.5V44.6c.1-.8.8-1.5 1.7-1.5z"/><path class="st1" d="M54.9 46.4c0 1.6-1.3 2.9-2.9 2.9s-3-1.3-3-2.9h-.3v11.5h.3c0-1.6 1.3-2.9 2.9-2.9s2.9 1.3 2.9 2.9h1.9V46.4h-1.8z"/><g id="left"><path class="st1" d="M39.4 37.3h2.3c1 0 1.8.8 1.8 1.8v4.1h-4c-1 0-1.8-.8-1.8-1.8v-2.3c-.1-1 .7-1.8 1.7-1.8zm-6.2 11.9h2.3c1 0 1.8.8 1.8 1.8v2.3c0 1-.8 1.8-1.8 1.8h-2.3c-1 0-1.8-.8-1.8-1.8V51c0-.9.8-1.8 1.8-1.8zm17.6-17.6h2.3c1 0 1.8.8 1.8 1.8v2.3c0 1-.8 1.8-1.8 1.8h-2.3c-1 0-1.8-.8-1.8-1.8v-2.3c0-1 .8-1.8 1.8-1.8zM39.3 66.9h2.3c1 0 1.8-.8 1.8-1.8V61h-4c-1 0-1.8.8-1.8 1.8v2.3c-.1 1 .7 1.8 1.7 1.8zm11.5.2h2.3c1 0 1.8.8 1.8 1.8v2.3c0 1-.8 1.8-1.8 1.8h-2.3c-1 0-1.8-.8-1.8-1.8v-2.3c0-1 .8-1.8 1.8-1.8z"/><circle class="st1" cx="41.9" cy="75.4" r="1.9"/><circle class="st1" cx="32.1" cy="72.2" r="1.1"/><circle class="st1" cx="29.6" cy="61.5" r="1.9"/><circle class="st1" cx="29.3" cy="43" r="1.9"/><circle class="st1" cx="42.7" cy="29.9" r="1.9"/><circle class="st1" cx="23.8" cy="52.2" r="1.1"/><circle class="st1" cx="32" cy="32.4" r="1.1"/><circle class="st1" cx="13.5" cy="52.3" r=".9"/><circle class="st1" cx="15.9" cy="67" r="1.5"/><circle class="st1" cx="23.9" cy="78.7" r=".9"/><circle class="st1" cx="36.3" cy="86.7" r=".9"/><circle class="st1" cx="17" cy="37.5" r="1.2"/><circle class="st1" cx="23.9" cy="25.9" r="1.8"/><circle class="st1" cx="36.5" cy="17.6" r=".9"/><circle class="st1" cx="51.8" cy="24.2" r="1.1"/><circle class="st1" cx="51.8" cy="15" r="1.2"/><circle class="st1" cx="51.9" cy="80.4" r="1.1"/><circle class="st1" cx="51.9" cy="89.6" r="1.2"/></g><g id="right"><path class="st1" d="M65.1 37.3h-2.3c-1 0-1.8.8-1.8 1.8v4.1h4c1 0 1.8-.8 1.8-1.8v-2.3c.1-1-.7-1.8-1.7-1.8zm5.5 12h-2.3c-1 0-1.8.8-1.8 1.8v2.3c0 1 .8 1.8 1.8 1.8h2.3c1 0 1.8-.8 1.8-1.8v-2.3c0-1-.8-1.8-1.8-1.8zm-5.5 17.6h-2.3c-1 0-1.8-.8-1.8-1.8V61h4c1 0 1.8.8 1.8 1.8v2.3c.1 1-.7 1.8-1.7 1.8z"/><circle class="st1" cx="61.2" cy="74.6" r="1.9"/><circle class="st1" cx="71.7" cy="72.2" r="1.1"/><circle class="st1" cx="74.2" cy="61.6" r="1.9"/><circle class="st1" cx="74.5" cy="43" r="1.9"/><circle class="st1" cx="61.1" cy="29.9" r="1.9"/><circle class="st1" cx="80" cy="52.2" r="1.1"/><circle class="st1" cx="71.8" cy="32.4" r="1.1"/><circle class="st1" cx="89" cy="52.3" r="1.1"/><circle class="st1" cx="85.9" cy="66.6" r="1.7"/><circle class="st1" cx="76.5" cy="78.7" r="1.1"/><circle class="st1" cx="65.4" cy="85.9" r="1.2"/><circle class="st1" cx="87" cy="36.7" r="1"/><circle class="st1" cx="78.1" cy="25.6" r=".9"/><circle class="st1" cx="65.9" cy="16.9" r="1.5"/></g></svg>