<svg id="Layer_1" xmlns="http://www.w3.org/2000/svg" viewBox="0 0 103.8 103.4"><style>.st1{fill:#fff}</style><g id="master"><path id="bg" d="M102.2 64.2c-6.8 27.8-34.9 44.5-62.5 37.6C11.9 94.9-4.8 66.9 2.1 39.2 8.9 11.4 37-5.3 64.6 1.6c27.8 6.7 44.6 34.9 37.6 62.6z" fill="#00499d"/></g><g id="logo"><path class="st1" d="M68.6 66.7l.5-10-9.5-.7s-6.9 14.5-7.1 15.1c-.2.7 0 2 0 2l1.7-2.3 1.2 1.3 1.4-2 3.9.1 1.1-2.3 3.5.1v-1l3.3-.3zm-32.3-5.9l9.6-3.9 3.6-7.2 4.8 12-2.9 8.3-1.8 1.3-1.2-2.7-3.1-.9-.7 1.4-1.9-.3-1.2 1-1.4-2-3.3-1.3zm18.8-1.1l-4.8-12.3-.5-8.3 7.1-5.7v-3.6l-2.6-5.9V14l3.6 10.4 4.6 4.4-.4 4.2 3.3 2.7-5.3 7.1v4l-3.3 7.1 1.4 1z"/><path class="st1" d="M70 54.6s1.6-.5 1.6-1.4.7-17.2 1.2-18.9l-5.4 1.9-5.4 7.3v4.1s-3.6 5.9-3.1 6.1c.5.2 6 1.7 11.1.9zm-3.1-20.3L64.1 32l.5-4.3-5.2-4.6-2.6-6.1s9.5 8.9 9.7 9.3 1.5 3 2.1 3.6 3.4 3 3.4 3l-5.1 1.4zm-35.8-.5s4.2 19.2 4.1 20.1-.4 3.3-.4 3.3l.8 2 8.8-3.6 4-7.8-.6-8.4-16.7-5.6zm.4-1.9l21-19s.5-.8.5 3.5v8.2l2.5 5.2v3.1l-7 5.2-17-6.2z"/><path d="M34.3 65.2l-2.8.7-2.1 3.4v8l15.5 8h2l6 3.2L76 76.8v-6.7l-2.9-4.5-1.9-1.1-.7.6 1.7.9s-8.8 7-10.8 7.7c-2 .7-3.8.9-3.8.9l-4.8 2.7s-10.3-4.1-17.4-9.5l-2-1.8 1.4-.1-.5-.7z" fill="none" stroke="#fff" stroke-width=".761" stroke-miterlimit="10"/><path fill="none" stroke="#fff" stroke-width=".893" stroke-miterlimit="10" d="M52.4 77.4l1.5 5.2-.8 1-.3 5"/><path class="st1" d="M70.8 65.4l.2-.5 2.5 1.4-.7-.1zm-37.8.5l1.2-.6.3.5.2.4z"/></g></svg>