<svg xmlns="http://www.w3.org/2000/svg" viewBox="0 0 103.8 103.4"><path d="M102.2 64.2c-6.8 27.8-34.9 44.5-62.5 37.6C11.9 94.9-4.8 66.9 2.1 39.2 8.9 11.4 37-5.3 64.6 1.6c27.8 6.7 44.6 34.9 37.6 62.6z" fill="#bb9c58"/><path d="M21.2 27.3H35l18.2 32.9 16.1-32.9h14.3s.6 1.3-.6 1.6-3.8.5-5.2 1.9-2.1 1.9-2.1 6.4.7 31.9.7 31.9 0 3.8 1.9 5.2 3.4 1.7 4.9 1.9 1.5.9 1.5 1.5H61.4s-.2-1 .7-1.2c.8-.2 3.5-.5 4.4-1.2s2.9-2.4 2.9-6-.8-37.8-.8-37.8L53.9 61.6l4.7 8.5s.4.6 0 1-.9.1-1.3-.3-2.8-3.5-7.8-3L30.3 33.1l-.5 33.2s-.1 5.7 1.8 7.4 4.1 2.2 5.5 2.4c1.5.1 1.2 1.6 1.2 1.6H19.8s-.3-1.1.9-1.4 4.4-.5 5.8-3.5c1.5-3 1.6-4.4 1.6-6.6 0-2.2.8-31.4.8-31.4s.2-3.4-2.1-4.3-5.2-1.6-5.2-1.6-1-.4-.4-1.6z" fill="#fff"/></svg>