<svg id="Layer_1" xmlns="http://www.w3.org/2000/svg" viewBox="0 0 103.4 103.4"><style>.st1{fill:#fff}</style><circle cx="51.6" cy="51.7" r="51.4" fill="#27dbd8"/><path class="st1" d="M28.3 58.3c.2.3.3.5-.1.8 0-.3 0-.5.1-.8zm-.1 6.5c.4.3.3.6.1 1-.1-.4-.1-.7-.1-1z"/><path class="st1" d="M39.7 36.7s-20.5 21.1-7.6 38.8 7.6-38.8 7.6-38.8z"/><path class="st1" d="M28 64.3c0-.1 0-.3.1-.4.1-1.3.1-2.5 0-3.8 0-.1 0-.3-.1-.4.1-.2.1-.4.2-.6.2-.2.1-.5.1-.8.4-3.1 1.5-6 3.2-8.7 2.6-4.2 5.3-8.3 7.9-12.5.4-.6.6-.7 1.2-.2 3.2 2.5 6.5 4.8 10 6.8.9.5 1.6.5 2.5 0 3.4-2 6.7-4.2 9.8-6.7.7-.5.9-.4 1.3.2 2.6 4.1 5.2 8.3 7.8 12.4 1.7 2.7 2.8 5.7 3.2 8.9-.1.3-.2.7.1 1 .2.2.1.5.2.8 0 .2 0 .4-.1.6-.1.7-.1 1.5 0 2.2 0 .2 0 .4.1.6-.6 5.9-2.9 11-7.1 15.2-12 11.8-32.6 7.4-38.7-8.3-.6-1.6-1.1-3.2-1.3-4.9.1-.3.2-.7-.1-1-.2-.1-.2-.2-.3-.4z"/><path class="st1" d="M51.6 17.8c3.2 5 6.3 9.9 9.4 14.7.3.4.2.7-.2 1-2.8 2.2-5.6 4.2-8.7 6-.4.2-.7.2-1.1 0-3-1.9-5.9-3.9-8.7-6.1-.3-.2-.4-.4-.2-.8 3.2-4.9 6.3-9.8 9.5-14.8zm23.6 41.7c-.4-.3-.3-.6-.1-1 0 .3 0 .7.1 1zm.1 3.6c-.3-.7-.3-1.5 0-2.2v2.2z"/><path class="st1" d="M63.5 36.5S84 57.6 71.1 75.3s-7.6-38.8-7.6-38.8z"/></svg>