<svg xmlns="http://www.w3.org/2000/svg" viewBox="0 0 103.8 103.4"><path d="M102.2 64.2c-6.8 27.8-34.9 44.5-62.5 37.6C11.9 94.9-4.8 66.9 2.1 39.2 8.9 11.4 37-5.3 64.6 1.6c27.8 6.7 44.6 34.9 37.6 62.6z" fill="#003c4c"/><path d="M82.5 40.2c-.1-1.5-.9-2.8-2.1-3.6h-.1L55.1 22.2l-1-.4c-.3-.2-.7-.4-1.1-.5h-.1c-.2 0-.4-.1-.6-.1-.2 0-.4 0-.6.1h-.1c-.4.1-.8.2-1.1.5l-1 .4-25.3 14.4h-.1c-1.2.8-1.9 2.1-2.1 3.6v34.6c0 .6.5 1 1 1h10.4c.5 0 1-.4 1-1V48.1s0-3.1 1.8-4.2 7.2-4.1 7.2-4.1 2.3-1.4 2.7 1.1v16.5c0 1.1.9 2 2 2h8.3c1.1 0 2-.9 2-2V40.8c.4-2.5 2.7-1.1 2.7-1.1s5.4 3 7.2 4.1 1.8 4.2 1.8 4.2v26.8c0 .6.5 1 1 1h10.4c.5 0 1-.4 1-1V40.2z" fill="#fff"/></svg>