<svg id="Layer_1" xmlns="http://www.w3.org/2000/svg" viewBox="0 0 103.4 103.4"><style>.st0{fill:#fff}</style><circle class="st0" cx="51.8" cy="51.7" r="51.7"/><path d="M49.6 83.9l2.1 1.8 2.1-1.8.1-33.8 20.6-12-.2 24.1L57 71.8l1.6 4.5 20.3-11.8V33.2L51.8 17.6 24.7 33.2v31.3l20.4 12 .8-4.7-16.8-9.5V38.4l20.4 11.8z"/><path class="st0" d="M31.4 34.5L51.7 46l20.6-11.5-20.6-11.9z"/><path d="M51.1 22.6l.2 5h.8l.2-5.2-1.2-.2zm.2 8.1h.8v4.9h-.8zm0 8h.8v4.9h-.8zm23.1 22.8L70.1 59l-.5.7 4.4 3 .8-1z"/><path transform="rotate(-57.778 65.238 56.437)" d="M64.8 54h.8v4.9h-.8z"/><path transform="rotate(-57.778 58.395 52.123)" d="M58 49.7h.8v4.9H58z"/><path d="M29 61.7l4.4-2.5.4.7-4.3 3-.9-.9z"/><path transform="rotate(-32.221 38.194 56.646)" d="M35.8 56.2h4.9v.8h-4.9z"/><path transform="rotate(-32.221 45.038 52.33)" d="M42.6 51.9h4.9v.8h-4.9z"/></svg>