<svg id="Layer_1" xmlns="http://www.w3.org/2000/svg" viewBox="0 0 103.8 103.4"><style>.st1{fill:#fff}</style><g id="master"><path id="bg" d="M102.2 64.2c-6.8 27.8-34.9 44.5-62.5 37.6C11.9 94.9-4.8 66.9 2.1 39.2 8.9 11.4 37-5.3 64.6 1.6c27.8 6.7 44.6 34.9 37.6 62.6z" fill="#de7f6b"/></g><g id="monaco"><path class="st1" d="M39.9 50.9l-11-6.8-13 9.5 17.6 29.9h6.4l8.6-7.4v-4.5l-8.6-7.5zM52.3 38h23.2l-4.8-19.5H33.6L28.9 38h23.2z"/><path class="st1" d="M60 50.8l4.5-9.8H39.9l4.4 9.8L43 62.5h18.3z"/><path class="st1" d="M75.5 44.1l-11 6.8v13.2l-8.7 7.5v4.5l8.7 7.4h6.3l17.6-29.9z"/></g></svg>