<svg xmlns="http://www.w3.org/2000/svg" viewBox="0 0 103.8 103.4"><path d="M102.2 64.2c-6.8 27.8-34.9 44.5-62.5 37.6C11.9 94.9-4.8 66.9 2.1 39.2 8.9 11.4 37-5.3 64.6 1.6c27.8 6.7 44.6 34.9 37.6 62.6z" fill="#00aff5"/><path d="M90.3 50.4c-.8 0-1.6.5-1.9 1.2-2.5.2-8.6 0-10.7-5.9-2.8-7.9-2.8-9-6.8-12 .1-.3.1-.7.1-1 0-2.2-1.8-3.9-3.9-3.9-2.2 0-3.9 1.8-3.9 3.9 0 1.4.7 2.6 1.8 3.3l-6.8 18.2c-.5 0-.9.1-1.3.3L31.5 33.6c.3-.6.5-1.3.5-2 0-2.3-1.9-4.1-4.1-4.1-2.3 0-4.1 1.9-4.1 4.1 0 1.8 1.1 3.3 2.7 3.9l-4.3 28.9c-2.8.1-5 2.4-5 5.3s2.4 5.3 5.3 5.3 5.3-2.4 5.3-5.3c0-2.2-1.4-4.1-3.3-4.9l4.3-29.1c.4-.1.8-.2 1.2-.5l25.3 20.7c-.4.6-.6 1.3-.6 2.1 0 2.1 1.7 3.8 3.8 3.8 2.1 0 3.8-1.7 3.8-3.8 0-1.4-.7-2.5-1.8-3.2l6.8-18.2c1 0 1.9-.4 2.6-1.1.9.7 3.6 3.3 5.5 10.7 2 7.8 11.1 7.5 13 7.3.4.7 1 1.1 1.8 1.1 1.2 0 2.1-.9 2.1-2.1s-.8-2.1-2-2.1z" fill="#fff"/></svg>