<svg xmlns="http://www.w3.org/2000/svg" viewBox="0 0 103.8 103.4"><path d="M102.2 64.2c-6.8 27.8-34.9 44.5-62.5 37.6C11.9 94.9-4.8 66.9 2.1 39.2 8.9 11.4 37-5.3 64.6 1.6c27.8 6.7 44.6 34.9 37.6 62.6z" fill="#7abebe"/><path d="M79.8 17.7c-1.2-1.3-3.1-1.3-4.4-.2L67 25c-1.3 1.2-3.2 1.1-4.4-.2l-1.2-1.3-6.5-7.1c-2.2-2.4-5.9-2.6-8.3-.4L17.1 42.9c-2.4 2.2-2.6 5.9-.4 8.3l8.7 9.6c1.1 1.2 3 1.3 4.2.2l2.5-2.3c1.2-1.1 1.3-3 .2-4.2L28.2 50c-1.4-1.6-1.3-4 .3-5.4l18.6-16.9c1.6-1.4 4-1.3 5.4.3l5.8 6.4 3.5 3.7c1.5 1.7 4.2 1.8 5.8.2l14-12.7c1.7-1.5 1.8-4.2.2-5.8l-2-2.1zM23.3 86.5c1.2 1.3 3.1 1.4 4.4.2l8.5-7.7c1.3-1.2 3.2-1.1 4.4.2l1.2 1.3 6.4 7.1c2.2 2.4 5.9 2.6 8.3.4l29.6-26.6c2.4-2.2 2.6-5.9.4-8.3l-8.7-9.6c-1.1-1.2-3-1.3-4.2-.2l-2.5 2.3c-1.2 1.1-1.3 3-.2 4.2l4.1 4.5c1.4 1.6 1.3 4-.3 5.4L56 76.5c-1.6 1.4-4 1.3-5.4-.3l-5.8-6.4-3.4-3.8c-1.5-1.7-4.2-1.8-5.8-.3l-14 12.8c-1.7 1.5-1.8 4.2-.3 5.8l2 2.2z" fill="#fff"/></svg>