<svg xmlns="http://www.w3.org/2000/svg" viewBox="0 0 103.8 103.4"><path d="M102.2 64.2c-6.8 27.8-34.9 44.5-62.5 37.6C11.9 94.9-4.8 66.9 2.1 39.2 8.9 11.4 37-5.3 64.6 1.6c27.8 6.7 44.6 34.9 37.6 62.6z" fill="#00c063"/><path d="M73.2 28.3c-7-7-14.6-.7-14.6-.7L30.8 55.4V70l-6.6 6.7h3.4s2.1-2.1 5.3-5.4H47S69.7 48 72.7 45s7.5-9.7.5-16.7zM47.4 42v11.3l-6.2 6.2V48.2l6.2-6.2zm1.9 12.8h10.8c-2.1 2.1-4.2 4.3-6.2 6.3H43.1c2-2 4.2-4.2 6.2-6.3zm2.2-2.2l6.5-6.5h10.7c-1.6 1.6-3.9 4-6.4 6.5H51.5zm-1.9-1.5V39.8l6.7-6.8v11.2l-6.7 6.9zm-16.5 5.2l6-6v11.4l-6 6V56.3zm13 12.9l-11-.1c1.7-1.8 3.7-3.7 5.7-5.8h10.9c-3.2 3.4-5.6 5.9-5.6 5.9zM71 43.8c0 .1-.1.1 0 0l-10.8.1c3.7-3.7 6.2-6.3 6.4-6.4.7-.7 1-1.4.3-2.2-.7-.7-2 .3-2 .3l-6.4 6.5V30.8l1-1.1s6.1-5.1 11.7.6c5.7 5.7 2.2 11.1-.2 13.5z" fill="#fff"/></svg>