<svg id="Layer_1" xmlns="http://www.w3.org/2000/svg" viewBox="0 0 103.8 103.4"><style>.st1{fill:#fff}</style><g id="master"><path id="bg" d="M102.2 64.2c-6.8 27.8-34.9 44.5-62.5 37.6C11.9 94.9-4.8 66.9 2.1 39.2 8.9 11.4 37-5.3 64.6 1.6c27.8 6.7 44.6 34.9 37.6 62.6z" fill="#062b48"/><circle class="st1" cx="51.7" cy="25" r="5"/><path class="st1" d="M48.9 31h5.6v52.2h-5.6z"/><path class="st1" d="M61 61.2h-8.6c-.5 0-1-.5-1-1V32c0-.5.5-1 1-1H61c.5 0 1 .5 1 1v28.2c0 .6-.4 1-1 1zM46.8 31h-4c-.6 0-1 .5-1 1v28.2c0 .6.4 1 1 1h5V31h-1z"/></g></svg>