<svg id="Layer_1" xmlns="http://www.w3.org/2000/svg" viewBox="0 0 103.8 103.4"><style>.st1{fill:#fff}</style><path d="M102.2 51.5c0 27.9-22.6 50.5-50.5 50.5S1.2 79.4 1.2 51.5 23.8 1 51.7 1s50.5 22.6 50.5 50.5z" fill="#2388bf"/><path class="st1" d="M54.2 59.5c1.9-.9 3.5-2.2 4.9-3.8 1.3-1.6 2.5-3.5 3.1-5.5.8-2 1.1-4.2 1.1-6.3 0-2.1-.4-4.2-1.2-6.1-.8-1.9-1.9-3.8-3.3-5.4-1.4-1.6-3.1-2.9-5-3.9-2-1-4.2-1.5-6.3-1.5H27.3v48.8h12.8V60.9h7.7c2.2 0 4.4-.4 6.4-1.4zm-14-10.3V38.8h6.5c.9.1 1.8.5 2.4 1.1.8.8 1.2 2.1 1.2 4.2s-.5 3.3-1.1 4c-.6.7-1.3 1.1-2.2 1.1h-6.8z"/><path class="st1" d="M45.9 66.7H76V76H45.9z"/></svg>