<svg xmlns="http://www.w3.org/2000/svg" viewBox="0 0 103.4 103.4"><circle cx="51.5" cy="51.7" r="51.4" fill="#3fa8da"/><path d="M85.1 75.4c-.9 0-1.8.3-2.5.9l-6.8-5.8L81 54.4h.2c1.5 0 2.7-1.2 2.7-2.7S82.7 49 81.2 49H81l-4.5-14c.7-.5 1.2-1.3 1.2-2.2 0-1.5-1.2-2.7-2.7-2.7-.7 0-1.2.2-1.7.6l-12-8.7c.1-.3.2-.6.2-1 0-1.5-1.2-2.7-2.7-2.7-1.2 0-2.3.9-2.6 2H41.7c-.3-1.2-1.3-2-2.6-2-1.5 0-2.7 1.2-2.7 2.7 0 .3.1.7.2 1l-12.1 8.7c-.5-.4-1.1-.6-1.7-.6-1.5 0-2.7 1.2-2.7 2.7 0 .9.5 1.8 1.2 2.2l-4.6 14h-.2c-1.5 0-2.7 1.2-2.7 2.7 0 1.5 1.2 2.7 2.7 2.7h.2l4.6 14.1c-.7.5-1.2 1.3-1.2 2.2 0 1.5 1.2 2.7 2.7 2.7.6 0 1.2-.2 1.7-.6l12.1 8.7c-.1.3-.2.6-.2 1 0 1.5 1.2 2.7 2.7 2.7 1.2 0 2.3-.9 2.6-2h14.6c.3 1.2 1.3 2 2.6 2 1.5 0 2.7-1.2 2.7-2.7 0-.3-.1-.7-.2-1l13.6-10 6.8 5.8c-.3.6-.6 1.3-.6 2 0 2.1 1.7 3.9 3.9 3.9 2.1 0 3.9-1.7 3.9-3.9s-1.8-3.9-3.9-3.9zm-9.6-39.2l4.3 13.3c-.6.4-1 .9-1.2 1.6h-2.2c-.2-.9-.9-1.7-1.8-1.9l.9-13zm-1.2-.9L73.4 49h-.2l-5.5-10.4c.5-.5.9-1.2.9-2v-.4l.7-.3 3.7-1.6c.3.5.7.8 1.3 1zm-15 13.8c-.2 0-.3-.1-.5-.1-.3 0-.5 0-.7.1l-7.3-12.7c.3-.3.5-.6.6-.9L63.3 37c.1.7.4 1.3.9 1.7l-4.9 10.4zm6.1-9.8c.2 0 .3.1.5.1s.4 0 .6-.1L72 49.7c-.4.4-.7.8-.8 1.4h-9.9c-.1-.5-.4-1-.8-1.3l4.9-10.5zM57 49.8c-.3.3-.6.8-.7 1.3H41.7c-.1-.5-.4-.9-.7-1.3l7.3-12.7c.2.1.4.1.7.1.2 0 .5 0 .7-.1L57 49.8zm-17.2-.6c-.2-.1-.5-.1-.7-.1-.2 0-.3 0-.5.1l-4.9-10.3c.5-.4.9-1 .9-1.7l11.8-1.5c.1.4.4.7.6.9l-7.2 12.6zm-2.4.5c-.4.4-.7.8-.9 1.4h-9.8c-.1-.5-.4-1-.8-1.3l5.5-10.4c.2 0 .4.1.6.1.2 0 .3 0 .5-.1l4.9 10.3zm-10.7 2.6h9.8c.1.6.5 1 .9 1.4L32.5 64c-.2 0-.3-.1-.5-.1s-.4 0-.6.1l-5.5-10.4c.4-.3.7-.7.8-1.3zm11.9 2c.2 0 .3.1.5.1.3 0 .5 0 .7-.1l7.3 12.6c-.3.3-.5.6-.6.9l-11.8-1.5c-.1-.7-.4-1.3-1-1.7l4.9-10.3zm2.3-.7c.3-.3.6-.8.7-1.3h14.6c.1.5.4.9.7 1.3l-7.3 12.7c-.2-.1-.5-.1-.7-.1s-.5 0-.7.1l-7.3-12.7zm17.2.6c.2.1.5.1.7.1.2 0 .3 0 .5-.1l4.9 10.3c-.5.4-.9 1-.9 1.7l-11.8 1.5c-.1-.4-.4-.7-.6-.9l7.2-12.6zm2.4-.5c.4-.4.7-.8.9-1.4h9.9c.1.5.4.9.8 1.3l-5.6 10.5c-.2 0-.4-.1-.6-.1-.2 0-.3 0-.5.1l-4.9-10.4zm0-30.7l12.1 8.7c-.1.3-.2.6-.2 1v.4l-4.4 2c-.5-.6-1.2-1-2.1-1h-.5l-4.7-10.4-.2-.7c0 .1 0 .1 0 0zm-2.7.5c.3.1.6.2 1 .2h.5l.7 1.6 4.3 9.4c-.4.3-.7.7-.8 1.1l-11.9-1.5c-.1-.5-.3-1-.6-1.3l6.8-9.5zm-16.1-1.8h14.6c.1.4.3.7.5 1L49.9 32c-.3-.1-.6-.2-.9-.2-.3 0-.7.1-1 .2l-6.8-9.4c.2-.2.4-.6.5-.9zm-2.6 2c.4 0 .7-.1 1-.2l6.8 9.4c-.3.4-.5.8-.6 1.3l-11.8 1.5c-.2-.4-.5-.8-.8-1.1l5-11c.1 0 .2.1.4.1zm-1.7-.7c0 .1 0 .1 0 0l-4.9 11.1H32c-.9 0-1.6.4-2.1 1l-4.5-1.9v-.4c0-.3-.1-.7-.2-1L37.4 23zM24.9 34.3l4.5 1.9v.4c0 .8.3 1.5.9 2L24.8 49h-.2l-1-13.8c.6-.1 1-.4 1.3-.9zm-2.5 33L18 53.9c.6-.3 1-.9 1.2-1.5h2.4c.2.9.9 1.6 1.7 1.9l-.9 13zm-.8-16.2h-2.3c-.2-.7-.6-1.3-1.2-1.7l4.3-13.3.9 13.1c-.8.3-1.5 1-1.7 1.9zm2.1 17.1l1-13.8h.1l5.1 9.7.4.7c-.5.5-.9 1.2-.9 2v.4L24.9 69c-.3-.4-.7-.7-1.2-.8zm13.7 12.2l-12.1-8.7c.1-.3.2-.7.2-1v-.4l4.5-1.9c.5.6 1.2 1 2.1 1h.5l4.8 11c0-.1 0 0 0 0zm2.7-.5c-.3-.1-.6-.2-1-.2h-.5l-1.1-2.4-3.9-8.6c.4-.3.7-.7.8-1.1l2.9.4 9 1.1c.1.5.3 1 .6 1.4l-1.2 1.6-5.6 7.8zm16.2 1.8H41.7c-.1-.4-.3-.7-.5-1l6.9-9.4c.3.1.6.2 1 .2s.7-.1 1-.2l6.9 9.4c-.4.3-.6.7-.7 1zm3-1.9h-.5c-.4 0-.7.1-1 .2L55 76.1l-4-5.6c.3-.4.5-.8.6-1.4l9.1-1.1 2.7-.3c.2.4.4.8.8 1.1l-4.7 10.7-.2.3zm1.2.6s0-.1 0 0l.1-.4 4.8-10.6h.5c.8 0 1.6-.4 2.1-1l5.8 2.5-13.3 9.5zm8-13.3v-.4c0-.8-.3-1.5-.9-2l3.1-5.8 2.5-4.7h.1l1 15.4-5.8-2.5zm6.2-12.9c.8-.3 1.5-.9 1.7-1.8h2.3c.2.7.6 1.2 1.2 1.6l-4.3 13.3-.9-13.1z" fill="#fff"/></svg>