<svg xmlns="http://www.w3.org/2000/svg" viewBox="0 0 103.8 103.4"><path d="M102.2 64.2c-6.8 27.8-34.9 44.5-62.5 37.6C11.9 94.9-4.8 66.9 2.1 39.2 8.9 11.4 37-5.3 64.6 1.6c27.8 6.7 44.6 34.9 37.6 62.6z" fill="#696"/><path d="M77.1 54.8l1.3-.7c.4-.2.6-.5.7-.9.3-.8-.3-1.6-1-1.7-.5-.1-.8 0-1.1.2l-1.3.8c1.6-4.5 5.9-3.4 7.7-2.9-.5 1.7-1.6 6-6.3 5.2m-9.9 6.4c-1.2 0-2.2-1-2.2-2.2 0-1.2 1-2.2 2.2-2.2 1.2 0 2.2 1 2.2 2.2 0 1.2-1 2.2-2.2 2.2m2.2 16.2c0 1.2-1 2.2-2.2 2.2s-2.2-1-2.2-2.2c0-1.2 1-2.2 2.2-2.2s2.2 1 2.2 2.2m-13.3-8.3c.1-.3.1-.7.1-1 0-.4 0-.7-.1-1l7.8-4.5c.5.5 1.1.9 1.8 1.1v9.1c-.6.2-1.2.5-1.7 1l-7.9-4.7zm6.3 9.2l-7.9 4.5c-.5-.5-1.1-.8-1.8-1v-9.1c.7-.2 1.3-.6 1.8-1l7.9 4.6c-.1.4-.1.7-.1 1.1 0 .3 0 .6.1.9M51.3 88.7c-1.2 0-2.2-1-2.2-2.2s1-2.2 2.2-2.2c1.2 0 2.2 1 2.2 2.2s-1 2.2-2.2 2.2M40.2 78.3c.1-.3.1-.6.1-.9 0-.4 0-.8-.1-1.1l7.9-4.6c.5.5 1.1.8 1.8 1v9.1c-.7.2-1.3.6-1.8 1l-7.9-4.5zm-1.6-4.6c-.5-.4-1.1-.8-1.7-1v-9.1c.7-.2 1.3-.6 1.8-1.1l7.8 4.5c-.1.3-.1.7-.1 1 0 .4 0 .7.1 1.1l-7.9 4.6zm-3.2 5.9c-1.2 0-2.2-1-2.2-2.2 0-1.2 1-2.2 2.2-2.2 1.2 0 2.2 1 2.2 2.2 0 1.2-1 2.2-2.2 2.2M33.2 59c0-1.2 1-2.2 2.2-2.2 1.2 0 2.2 1 2.2 2.2 0 1.2-1 2.2-2.2 2.2-1.2 0-2.2-1-2.2-2.2M48 53.3c.5.4 1.1.8 1.8 1v9.1c-.7.2-1.3.6-1.8 1L40.2 60c.1-.3.1-.6.1-1s0-.7-.1-1.1l7.8-4.6zm3.3-5.8c1.2 0 2.2 1 2.2 2.2 0 1.2-1 2.2-2.2 2.2-1.2 0-2.2-1-2.2-2.2 0-1.2 1-2.2 2.2-2.2m-7.9-20c.2-4.2 2.9-8.8 7.9-13.4 5 4.6 7.7 9.1 7.9 13.4 0 4-2.1 7.8-6.4 11.5V28.4c0-.8-.7-1.5-1.5-1.5s-1.5.7-1.5 1.5V39c-4.3-3.7-6.4-7.5-6.4-11.5m10.1 40.6c0 1.2-1 2.2-2.2 2.2-1.2 0-2.2-1-2.2-2.2 0-1.2 1-2.2 2.2-2.2 1.2 0 2.2 1 2.2 2.2m8.9-10.2c-.1.4-.1.7-.1 1.1 0 .3 0 .6.1 1l-7.8 4.5c-.5-.5-1.1-.8-1.8-1v-9.1c.7-.2 1.2-.6 1.7-1l7.9 4.5zM85.5 47s-5.5-2.1-9.2-.1c-2.1 1.2-3.7 3.6-4.1 7.3l-1.8 1c-.9-.8-2-1.2-3.2-1.2-1.2 0-2.4.5-3.2 1.2l-8-4.4c.1-.4.1-.7.1-1.1 0-2.2-1.4-4-3.4-4.7v-2.1l.7-.5c6-4.8 8.9-9.7 8.7-14.9-.1-5.3-3.4-10.8-9.9-16.5-.3-.2-.6-.4-.9-.4H51c-.3 0-.6.2-.9.4-6.6 5.7-9.9 11.2-9.9 16.5-.2 5.2 2.7 10.2 8.7 14.9l.7.5V45c-2 .6-3.4 2.5-3.4 4.7 0 .4 0 .7.1 1.1l-7.9 4.6c-.9-.8-2-1.2-3.2-1.2-2.7 0-4.9 2.2-4.9 4.9 0 2.2 1.4 4 3.4 4.7v9.1c-2 .6-3.4 2.5-3.4 4.7 0 2.7 2.2 4.9 4.9 4.9 1.3 0 2.5-.5 3.4-1.3l7.8 4.5c-.1.3-.1.7-.1 1.1 0 2.7 2.2 4.9 4.9 4.9s4.9-2.2 4.9-4.9c0-.4 0-.7-.1-1.1l7.8-4.5c.9.8 2.1 1.3 3.4 1.3 2.7 0 4.9-2.2 4.9-4.9 0-2.2-1.4-4-3.4-4.7v-9.1c2-.6 3.4-2.5 3.4-4.7 0-.4 0-.8-.1-1.1l1.7-1c3.6 1.5 6.5 1.3 8.6 0 3.5-2.3 4.4-8.1 4.4-8.1.1-.8-.5-1.7-1.2-1.9" fill="#fff"/></svg>