<svg id="Layer_1" xmlns="http://www.w3.org/2000/svg" viewBox="0 0 103.8 103.4"><style>.st1{fill:#fff}</style><g id="master"><path id="bg" d="M102.2 64.2c-6.8 27.8-34.9 44.5-62.5 37.6C11.9 94.9-4.8 66.9 2.1 39.2 8.9 11.4 37-5.3 64.6 1.6c27.8 6.7 44.6 34.9 37.6 62.6z" fill="#1d649c"/><g id="logo"><text transform="translate(14.726 59.449)" class="st1" font-size="21.697" font-family="PTSans-Narrow">santiment</text><circle class="st1" cx="10.3" cy="53.6" r="1.4"/><circle class="st1" cx="94" cy="53.7" r="1.4"/><path class="st1" d="M10.8 49.2l-1-.2c.1-.2.7-3.7 2.6-7.7 2.5-5.4 5.8-9.2 9.6-10.9 9.8-4.2 19.6-.6 26 10.4l-1.3.1c-6.5-10.1-15.2-13.5-24.4-9.5-8.7 3.8-11.4 17.7-11.5 17.8zm66.5 25.2c-4.6 0-9.3-2-13.6-5.8-3.2-2.8-5.5-6.2-5.6-6.3h1.3c.1.1 7.4 11 17.9 11 10.9 0 15.2-10.1 15.9-15.4l1 .2c-.8 5.6-5.3 16.3-16.9 16.3z"/></g></g></svg>