<svg id="Layer_1" xmlns="http://www.w3.org/2000/svg" viewBox="0 0 103.8 103.4"><style>.st1{fill:none;stroke:#fff;stroke-linejoin:round}</style><path id="bg" d="M102.2 64.2c-6.8 27.8-34.9 44.5-62.5 37.6C11.9 94.9-4.8 66.9 2.1 39.2 8.9 11.4 37-5.3 64.6 1.6c27.8 6.7 44.6 34.9 37.6 62.6z" fill="#96f"/><g id="Layer_2_1_"><g id="_"><g id="white_outline"><path class="st1" d="M49.4 64.2l9.4 11.1L74.6 62zM56 39.8l-9.3-11.2L30.8 42zm0 0l-6.6 24.4L30.8 42z"/><path class="st1" d="M49.4 64.2L74.6 62 56 39.8z"/><path d="M56 39.8l-9.3-11.2 15.8-13.3zm-6.6 24.4l9.4 11.1-15.9 13.3z" stroke-miterlimit="10" fill="none" stroke="#fff"/></g></g></g></svg>