<svg id="Layer_1" xmlns="http://www.w3.org/2000/svg" viewBox="0 0 103.8 103.4"><style>.st1{fill:#fff}</style><path id="bg" d="M102.2 64.2c-6.8 27.8-34.9 44.5-62.5 37.6C11.9 94.9-4.8 66.9 2.1 39.2 8.9 11.4 37-5.3 64.6 1.6c27.8 6.7 44.6 34.9 37.6 62.6z" fill="#ec672f"/><path class="st1" d="M31.6 47.6h18.5v14.6c-2.8.9-4.9 3.6-4.9 6.7 0 3.9 3.1 7 7 7s7-3.1 7-7c0-3.1-2-5.7-4.8-6.7V47.6h18.3c.6 0 1.1-.5 1.1-1.1v-2.4c0-.6-.5-1.1-1.1-1.1H53.9V17.5h18.8c.6 0 1.1-.5 1.1-1.1V14c0-.6-.5-1.1-1.1-1.1H31.6c-.6 0-1.1.5-1.1 1.1v2.4c0 .6.5 1.1 1.1 1.1h18.2V43H31.6c-.6 0-1.1.5-1.1 1.1v2.4c-.1.6.4 1.1 1.1 1.1zM55.5 69c0 1.8-1.5 3.3-3.3 3.3s-3.3-1.5-3.3-3.3 1.5-3.3 3.3-3.3 3.3 1.4 3.3 3.3z"/><path class="st1" d="M68.3 53.4c0-.1 0-.1 0 0l-.1-.1c-.1-.1-.3-.2-.5-.2s-.4.1-.5.2l-1.8 1.8c-.2.2-.3.4-.3.6 0 .1 0 .3.1.4 0 0 0 .1.1.1l.1.1c2.9 3.5 4.7 7.5 4.7 12.2 0 9.7-8 17.6-17.9 17.7-9.9 0-17.9-7.9-17.9-17.7 0-4.6 1.9-8.6 4.7-12.2l.1-.1s0-.1.1-.1c.1-.1.1-.2.1-.4s-.1-.5-.3-.6l-1.8-1.8c-.1-.1-.3-.2-.5-.2s-.4.1-.5.2l-.1.1c-4.2 4-6.4 9.2-6.4 15.2 0 12.5 10.1 22.6 22.5 22.6s22.5-10.1 22.5-22.6c0-6-2.2-11.2-6.4-15.2z"/></svg>