<svg xmlns="http://www.w3.org/2000/svg" viewBox="0 0 103.8 103.4"><path d="M102.2 64.2c-6.8 27.8-34.9 44.5-62.5 37.6C11.9 94.9-4.8 66.9 2.1 39.2 8.9 11.4 37-5.3 64.6 1.6c27.8 6.7 44.6 34.9 37.6 62.6z" fill="#333"/><path d="M24.5 42c8.3-6.1 16.7-11.8 26-12 6.7 0 13.4 3 18.7 7 1.9 1.5 3.8 3.6 5.6 5.7-3.3-2.1-6.7-4.3-10.2-5.9-5.6-2.6-12.2-3.2-18.2-1.9-6.1 1.2-12 4.8-17.2 8.3-5.9 4-12 7.9-19.1 10.2-1.6.5-3 .9-4.4 1.2 6.4-3.9 12.8-8.2 18.8-12.6zM99 48.6c-1.4.4-2.9.7-4.4 1.2C87.5 52.1 81.5 56 75.5 60c-5.2 3.5-11.1 7.1-17.2 8.3-6 1.2-12.6.6-18.2-1.9-3.5-1.6-6.8-3.7-10.2-5.9 1.9 2.1 3.7 4.2 5.6 5.7 5.3 4.1 12 7.1 18.7 7 9.2-.1 17.7-5.9 25.9-12 6.2-4.4 12.6-8.7 18.9-12.6zm-52.6 5.1l-3.1-5.3 3.1-5.3h10.3l-2-3.5H44.5l-5.1 8.9 5.1 8.9h10.2l2.1-3.6H46.4zm1.4 6.9l2.1 3.6h10.2l5.1-8.9-5.1-8.9H49.9l-2 3.5h10.3l3.1 5.3-3.1 5.3H47.8z" fill="#fff"/></svg>