<svg xmlns="http://www.w3.org/2000/svg" xmlns:xlink="http://www.w3.org/1999/xlink" viewBox="0 0 103.4 103.4"><style>.st2{display:none}.st4{display:inline}.st5{fill:none;stroke:#ededed;stroke-width:4}.st14{fill:#fff}</style><g id="Layer_1"><g id="Welcome_1_"><g id="AUGlogo-gray" transform="translate(-1)"><g id="Layer_1_1_"><g id="Page-1_3_"><path id="Shape_6_" d="M102.8 64.2c-6.8 27.8-35 44.6-62.6 37.7C12.4 95-4.4 66.9 2.5 39.2c6.8-27.8 35-44.6 62.6-37.7 27.9 6.6 44.7 34.8 37.7 62.7z" opacity=".75" fill="#b50909"/><g id="Page-1" class="st2"><path id="Path-12" fill="#fff" d="M8.3 64.6l14-.1.1-39.2 30.1 30.3 30.6-30.4.1 39.3h14L92.9 74l-19.9.1-.1-25.1-20.3 20.8-20.4-20.5.1 24.8H12.8z"/></g><g id="Welcome_2_" transform="translate(24 19)" class="st2"><g id="augurSvg_1_" class="st4"><path id="Line_9_" class="st5" d="M1.4 48.3s8.3-5.2 11.8-5.2 5.8 2.5 7.5 3.8c1.6 1.4 4.8 2.4 4.8 2.4"/><path id="Line_8_" class="st5" d="M.7 49.5c-.5-.3-.6-.9-.4-1.4L27.2.6c.8-1.4 2.1-1.4 2.9 0L57 48.1c.3.5.1 1.1-.4 1.4L29.5 65.7c-.5.3-1.2.3-1.6 0L.7 49.5z"/><path id="Line_7_" class="st5" d="M28.7.8s.1 10 0 16.6c0 2.8 0 5-.2 5.7-.6 1.9-4.8 4.2-6.3 5.1s-3.5 2.6-4.5 4.3-1 6.7-1 6.7"/><path id="Line_6_" class="st5" d="M39.3 44.1s-.8 1.6-2.6 2.9c-2.1 1.6-5.4 3.2-5.9 3.6-1 .7-1.7 1.7-2 3-.2 1.3 0 10.8 0 10.8"/><path id="Line_5_" class="st5" d="M32 26.6s3.3 1 5.9 3.6 2.7 6.5 4.4 10.2c1.6 3.7 14.7 8.3 14.7 8.3"/></g></g></g></g></g></g><g class="st2"><g class="st4"><g id="Layer_1_2_"><g class="st2"><defs><path id="SVGID_1_" d="M10.5 32.8h27.4v11.4H10.5V32.8zm73.3 29.8H62V40.8h30.9v-8H53.2v37.8h39.5V47.9H68.6v8h15.2v6.7zm-64.5-6.7h21.8v6.7H19.3v-6.7zm-8.8 0v-8h30.7V32.8H50v37.8H10.5V55.9z"/></defs><clipPath id="SVGID_2_" class="st4"><use xlink:href="#SVGID_1_" overflow="visible"/></clipPath><g clip-path="url(#SVGID_2_)"><g class="st2"><g class="st4"><defs><path id="SVGID_3_" d="M-528.4-551.3h3903.5v752.5H-528.4z"/></defs><clipPath id="SVGID_4_"><use xlink:href="#SVGID_3_" overflow="visible"/></clipPath><path clip-path="url(#SVGID_4_)" fill="#fff" d="M7.4 29.7h88.5v43.9H7.4z"/></g></g><defs><path id="SVGID_5_" d="M10.5 32.8h27.4v11.4H10.5V32.8zm73.3 29.8H62V40.8h30.9v-8H53.2v37.8h39.5V47.9H68.6v8h15.2v6.7zm-64.5-6.7h21.8v6.7H19.3v-6.7zm-8.8 0v-8h30.7V32.8H50v37.8H10.5V55.9z"/></defs><clipPath id="SVGID_6_"><use xlink:href="#SVGID_5_" overflow="visible"/></clipPath><path clip-path="url(#SVGID_6_)" fill="#fff" d="M53.2 32.8h39.7v8H62v21.8h21.8v-6.7H68.6v-8h24v22.7H53.2z"/><defs><path id="SVGID_7_" d="M10.5 32.8h27.4v11.4H10.5V32.8zm73.3 29.8H62V40.8h30.9v-8H53.2v37.8h39.5V47.9H68.6v8h15.2v6.7zm-64.5-6.7h21.8v6.7H19.3v-6.7zm-8.8 0v-8h30.7V32.8H50v37.8H10.5V55.9z"/></defs><clipPath id="SVGID_8_"><use xlink:href="#SVGID_7_" overflow="visible"/></clipPath><path clip-path="url(#SVGID_8_)" fill="#fff" d="M10.5 32.8h27.4v11.4H10.5z"/><defs><path id="SVGID_9_" d="M10.5 32.8h27.4v11.4H10.5V32.8zm73.3 29.8H62V40.8h30.9v-8H53.2v37.8h39.5V47.9H68.6v8h15.2v6.7zm-64.5-6.7h21.8v6.7H19.3v-6.7zm-8.8 0v-8h30.7V32.8H50v37.8H10.5V55.9z"/></defs><clipPath id="SVGID_10_"><use xlink:href="#SVGID_9_" overflow="visible"/></clipPath><path d="M41.1 32.8H50v37.8H10.5V47.8h30.6v-15zM19.3 55.9v6.7h21.8v-6.7H19.3z" clip-path="url(#SVGID_10_)" fill="#fff"/></g></g><g class="st2"><g class="st4"><defs><path id="SVGID_11_" d="M51.2 86c5.8 0 10.6-4.7 10.6-10.6S57 64.9 51.2 64.9s-10.6 4.7-10.6 10.6S45.4 86 51.2 86zm0-42.6c5.6 0 10.1-4.5 10.1-10.1s-4.5-10.1-10.1-10.1-10.1 4.5-10.1 10.1 4.5 10.1 10.1 10.1zm3.5 17.1V48.2c6.8-1.6 11.8-7.7 11.8-14.9 0-3.1-.9-5.9-2.4-8.3l9-9-3.4-3.4-8.8 8.8c-2.6-2.1-6-3.4-9.7-3.4-8.5 0-15.4 6.9-15.4 15.4 0 7.7 5.6 14 13 15.2v11.8c-7.4 1.1-13 7.5-13 15.2 0 8.5 6.9 15.4 15.4 15.4s15.3-7 15.3-15.5c0-7.3-5-13.4-11.8-15z"/></defs><clipPath id="SVGID_12_"><use xlink:href="#SVGID_11_" overflow="visible"/></clipPath><g clip-path="url(#SVGID_12_)"><g class="st2"><g class="st4"><defs><path id="SVGID_13_" d="M-351.6-144.3H990.2v313.8H-351.6z"/></defs><clipPath id="SVGID_14_"><use xlink:href="#SVGID_13_" overflow="visible"/></clipPath><path clip-path="url(#SVGID_14_)" fill="#fff" d="M34.8 11.5h39.3v80.3H34.8z"/></g></g><defs><path id="SVGID_15_" d="M51.2 86c5.8 0 10.6-4.7 10.6-10.6S57 64.9 51.2 64.9s-10.6 4.7-10.6 10.6S45.4 86 51.2 86zm0-42.6c5.6 0 10.1-4.5 10.1-10.1s-4.5-10.1-10.1-10.1-10.1 4.5-10.1 10.1 4.5 10.1 10.1 10.1zm3.5 17.1V48.2c6.8-1.6 11.8-7.7 11.8-14.9 0-3.1-.9-5.9-2.4-8.3l9-9-3.4-3.4-8.8 8.8c-2.6-2.1-6-3.4-9.7-3.4-8.5 0-15.4 6.9-15.4 15.4 0 7.7 5.6 14 13 15.2v11.8c-7.4 1.1-13 7.5-13 15.2 0 8.5 6.9 15.4 15.4 15.4s15.3-7 15.3-15.5c0-7.3-5-13.4-11.8-15z"/></defs><clipPath id="SVGID_16_"><use xlink:href="#SVGID_15_" overflow="visible"/></clipPath><g clip-path="url(#SVGID_16_)"><path class="st14" d="M66.4 33.3c0 8.4-6.8 15.2-15.2 15.2S36 41.7 36 33.3s6.8-15.2 15.2-15.2 15.2 6.8 15.2 15.2zM51.2 22.7c-5.8 0-10.6 4.7-10.6 10.6s4.7 10.6 10.6 10.6 10.6-4.7 10.6-10.6S57 22.7 51.2 22.7zm15.2 52.8c0 8.4-6.8 15.2-15.2 15.2S36 83.9 36 75.5s6.8-15.2 15.2-15.2 15.2 6.8 15.2 15.2zM51.2 64.9c-5.8 0-10.6 4.7-10.6 10.6 0 5.8 4.7 10.6 10.6 10.6s10.6-4.7 10.6-10.6c0-5.9-4.8-10.6-10.6-10.6z"/><path class="st14" d="M48.8 47.4h6v15.5h-6z"/><path transform="rotate(-45.001 66.785 18.896)" class="st14" d="M60.3 16.4h13v5h-13z"/></g></g></g></g></g><g id="Layer_2"><path class="st14" d="M66.4 33.3c0 8.4-6.8 15.2-15.2 15.2S36 41.7 36 33.3s6.8-15.2 15.2-15.2 15.2 6.8 15.2 15.2zM51.2 22.8c-5.8 0-10.5 4.7-10.5 10.5s4.7 10.5 10.5 10.5 10.5-4.7 10.5-10.5S57 22.8 51.2 22.8zm15.2 52.6c0 8.4-6.8 15.2-15.2 15.2S36 83.8 36 75.4s6.8-15.2 15.2-15.2 15.2 6.9 15.2 15.2zM51.2 64.9c-5.8 0-10.5 4.7-10.5 10.5S45.4 86 51.2 86s10.5-4.7 10.5-10.6c.1-5.8-4.7-10.5-10.5-10.5z"/><path class="st14" d="M48.7 47.5h6v14.8h-6zm11.5-25.7l9.4-9.3 3.5 3.5-9.7 9.7z"/></g></g></g><g id="Layer_2_1_" class="st2"><g class="st4"><defs><path id="SVGID_17_" d="M51.1 37h-2.4l-5.9 9.4-2.3-4.1 3-4.4-1.4-.3-3.4.7-2.8 1-2.2.6-4.1 1.5-2.2.9-2.6 1.1-2.9 1.3L19 46l-2.1 1-1.8.9-2.1 1-3.3 2-.9.6-.8.4.1.4 2.5 1.7 4 2.2 3.8 1.9 4.2 2.1 3.9 1.6 3.9 1.5 3.1 1.1 3 .8 2.9.7 1.5.3 2.7.5h1.1l-.5-1.2-1.7-2.8-3.1-5.2-2-3.7-1.8-3.5 2.6-4 4.2 7.7 2.8 5.5 2.6 5 1.4 2.7h4.1l1.4-2.7 2.6-5 2.8-5.5 4.2-7.7 2.6 4-1.8 3.5-2 3.7-3.1 5.2-1.7 2.8-.3 1.3h1l2.7-.5 1.5-.3 2.9-.7 3-.8 3.1-1.1 3.9-1.5 3.9-1.6 4.2-2.1 3.8-1.9 4-2.2 2.5-1.7.1-.4-.8-.4-.9-.6-3.3-2-2.1-1-1.7-1-2.1-1-2.9-1.4-2.8-1.3-2.6-1.1-2.2-.9-4.1-1.5-2.2-.6-2.8-1-3.4-.7-1.4.3 3 4.4-2.3 4.1-6-9.3h-2.9zm.3 41.7l.2.4v-.8l4-6.9 4.5-.5 3.3-.4L69 69l3.5-1.1 4.7-1.9 3.3-1.4 3.1-1.6 7-4.3 3.5-2.5 5-4-5-4.2-3.2-2.2-5.6-3.4L81 40l-4.6-2.2-2.9-1.2-2.9-.9-4.8-1.5-5.5-1.1-3-.4h-1.2l-4.5-7.5v-.9l-.3.4-.2-.4v.8l-4.5 7.5h-1.2l-3 .4-5.5 1.1-4.8 1.5-2.9.9-2.9 1.2-4.5 2.3-4.4 2.3-5.6 3.4-3.2 2.2-5 4.2 5 4 3.5 2.5 7 4.3 3.1 1.6 3.3 1.4 4.7 1.9 3.5 1.1 5.6 1.5 3.3.4 4.5.5 4 6.9v.8l.3-.3z"/></defs><clipPath id="SVGID_18_"><use xlink:href="#SVGID_17_" overflow="visible"/></clipPath><g clip-path="url(#SVGID_18_)"><defs><path id="SVGID_19_" d="M-259-159.1h1395.8v326.5H-259z"/></defs><clipPath id="SVGID_20_"><use xlink:href="#SVGID_19_" overflow="visible"/></clipPath><path clip-path="url(#SVGID_20_)" fill="#fff" d="M2.5 23.2h97.8v57H2.5z"/></g></g></g></g><path class="st14" d="M56.1 32.7c24.5 1.8 43.1 19.4 43.1 19.4-17.4 16.8-43.7 19.3-43.7 19.3l-4.2 7.2-4.2-7.3C23.3 69.9 3.6 52.1 3.6 52.1c17.7-16.8 43.1-19.4 43.1-19.4l4.7-7.9 4.7 7.9zm-11.4 34l-9-16.3 2.6-4 10.9 20.8h4.2l10.9-20.8 2.6 4-9 16.3c19.6-2.6 36.7-14.8 36.7-14.8-20.4-13.1-35.4-14-35.4-14l2.9 4.4-2.3 4.2L54 37h-5.2l-5.9 9.4-2.5-3.9 3-4.5c-15 1.1-35.3 14.1-35.3 14.1 14.2 10.6 36.6 14.6 36.6 14.6z" id="Layer_3"/></svg>