<svg xmlns="http://www.w3.org/2000/svg" viewBox="0 0 103.8 103.4"><path d="M102.2 64.2c-6.8 27.8-34.9 44.5-62.5 37.6C11.9 94.9-4.8 66.9 2.1 39.2 8.9 11.4 37-5.3 64.6 1.6c27.8 6.7 44.6 34.9 37.6 62.6z" fill="#0c1c25"/><path d="M52.3 15c-19.9 0-36.1 16.1-36.1 36s16.2 36.1 36.1 36.1S88.4 70.9 88.4 51 72.2 15 52.3 15zm26.2 40.2c0-.8.7-1.5 1.5-1.5s1.5.7 1.5 1.5-.7 1.5-1.5 1.5c-.9-.1-1.5-.7-1.5-1.5zM48.1 26.5c0-2.3 1.9-4.2 4.2-4.2 2.3 0 4.2 1.9 4.2 4.2s-1.9 4.2-4.2 4.2c-2.3-.1-4.2-2-4.2-4.2zm4.2 7.2c1.3 0 2.5-.3 3.5-.9-1.8 2-3.1 4.6-3.5 7.3-.5-2.8-1.7-5.3-3.5-7.3 1.1.6 2.2.9 3.5.9zm0 11.4c.7 3.8 2.7 7.2 5.7 9.4-1.7-.7-3.7-1.1-5.7-1.1s-3.9.4-5.7 1.1c2.9-2.3 5-5.7 5.7-9.4zm0 11.9c6.1 0 11.1 5 11.1 11.1s-5 11.1-11.1 11.1-11.1-5-11.1-11.1c0-6.2 5-11.1 11.1-11.1zm-14.2 6.7v-.5c0-2.5-1.4-4.8-3.3-6.1 1 .2 1.9.3 2.9.3 2 0 3.9-.4 5.7-1.1-2.5 1.8-4.3 4.4-5.3 7.4zm23.1-7.5c1.7.7 3.7 1.1 5.7 1.1 1 0 2-.1 2.9-.3-2 1.3-3.3 3.5-3.3 6.1v.5c-1-2.9-2.9-5.5-5.3-7.4zm15.5.4c-.9-.4-2-.7-3-.7h-.5c1.3-.6 2.4-1.4 3.5-2.3-.2.4-.3.9-.3 1.5s0 1.1.3 1.5zm-9.8-2.9c-6.1 0-11.1-5-11.1-11.1s5-11.1 11.1-11.1S78 36.5 78 42.6s-5 11.1-11.1 11.1zm-8.7-23.1c.8-1.1 1.3-2.6 1.3-4.2v-.1c.6 1.1 1.6 1.9 2.9 2-1.5.7-2.9 1.4-4.2 2.3zm4.5-4.3c-.8 0-1.5-.7-1.5-1.5s.7-1.5 1.5-1.5 1.5.7 1.5 1.5-.6 1.5-1.5 1.5zm-3.6-2c-.7-2.2-2.4-3.9-4.5-4.6 2.7.2 5.2.7 7.7 1.5-1.6.2-2.9 1.5-3.2 3.1zm-13.7 0c-.2-1.6-1.5-2.9-3.2-3 2.4-.8 5-1.4 7.7-1.5-2.2.6-3.8 2.3-4.5 4.5zm-3.5-.9c.8 0 1.5.7 1.5 1.5s-.7 1.5-1.5 1.5-1.5-.7-1.5-1.5.6-1.5 1.5-1.5zm3.1 3.1c0 1.5.5 2.9 1.2 4.1-1.2-.9-2.7-1.6-4.2-2.1 1.4-.2 2.5-.9 3-2zm3.8 16.1c0 6.1-5 11.1-11.1 11.1s-11.1-5-11.1-11.1 5-11.1 11.1-11.1 11.1 5 11.1 11.1zM27.9 53.7c1.1.9 2.3 1.7 3.5 2.3h-.5c-1.1 0-2.1.2-3 .7.2-.5.3-1 .3-1.5 0-.6 0-1.1-.3-1.5zm-3.3 2.9c-.8 0-1.5-.7-1.5-1.5s.7-1.5 1.5-1.5 1.5.7 1.5 1.5c-.1.9-.7 1.5-1.5 1.5zm0 2.2c.2 0 .5 0 .7-.1-1 1.2-1.6 2.8-1.6 4.5 0 .5.1.9.2 1.4-1.2-2.5-2-5.1-2.5-8 .5 1.3 1.7 2.2 3.2 2.2zm6.3.3c2.3 0 4.2 1.9 4.2 4.2 0 2.3-1.9 4.2-4.2 4.2s-4.2-1.9-4.2-4.2c.1-2.3 1.9-4.2 4.2-4.2zm6.7 6.8c-.1.7-.2 1.5-.2 2.2 0 1.1.2 2.2.3 3.2-.6-1-1.7-1.6-3-1.6-.2 0-.3 0-.6.1 1.6-1 2.9-2.3 3.5-3.9zm-2.8 5.8c.8 0 1.5.7 1.5 1.5s-.7 1.5-1.5 1.5-1.5-.7-1.5-1.5.6-1.5 1.5-1.5zm0 5.1c2 0 3.6-1.6 3.6-3.6 1.6 4.4 5.2 7.7 9.7 9.1-5.1-.7-10-2.6-13.9-5.5h.6zm31.6-4.2c0 .2-.1.4-.1.7 0 2 1.6 3.6 3.6 3.6h.5c-4.1 2.9-8.8 4.8-13.9 5.5 4.7-1.5 8.4-5.2 9.9-9.8zm3.6 2.1c-.8 0-1.5-.7-1.5-1.5s.7-1.5 1.5-1.5 1.5.7 1.5 1.5-.7 1.5-1.5 1.5zm0-5.1c-1.5 0-2.9 1-3.3 2.3.3-1.2.5-2.4.5-3.8 0-.7-.1-1.5-.2-2.2.7 1.6 1.9 2.9 3.3 3.8-.1-.1-.2-.1-.3-.1zm-.5-6.4c0-2.3 1.9-4.2 4.2-4.2 2.3 0 4.2 1.9 4.2 4.2 0 2.3-1.9 4.2-4.2 4.2-2.3-.1-4.2-1.9-4.2-4.2zM80 58.8c1.5 0 2.8-.9 3.3-2.1-.5 2.8-1.4 5.5-2.5 8 .1-.4.2-.9.2-1.4 0-1.7-.6-3.3-1.6-4.5h.6zm0-7.3c-.6 0-1.1.2-1.5.3 2-2.5 3.3-5.8 3.3-9.3 0-1.5-.2-2.9-.6-4.2 1.7 3.8 2.7 8.2 2.7 12.6 0 1.2-.1 2.4-.2 3.6-.4-1.6-1.9-3-3.7-3zm-2.5-19.2c-2.7-2.8-6.4-4.5-10.6-4.5-.8 0-1.5.1-2.3.2 1.1-.7 1.8-1.8 1.8-3.1 0-.9-.3-1.7-.9-2.4 4.7 2.3 8.9 5.6 12 9.8zm-38.4-9.8c-.6.7-.9 1.5-.9 2.4 0 1.3.7 2.4 1.8 3.1-.7-.1-1.5-.2-2.3-.2-4.2 0-7.9 1.7-10.6 4.5 3.1-4.2 7.3-7.5 12-9.8zm-15.6 16c-.4 1.3-.6 2.7-.6 4.2 0 3.5 1.2 6.8 3.3 9.3-.5-.2-1-.3-1.5-.3-1.9 0-3.3 1.4-3.6 3.2-.2-1.2-.2-2.4-.2-3.6-.1-4.7.9-9 2.6-12.8zm2.6 30.1c1.3 1.1 2.9 1.8 4.8 1.8.7 0 1.2-.1 1.8-.2-1 .7-1.6 1.8-1.6 3 0 .5.1 1 .3 1.5-1.9-1.8-3.7-3.9-5.3-6.1zm47.2 5.8c.2-.4.2-.8.2-1.2 0-1.2-.6-2.3-1.5-2.9.5.1 1.1.2 1.6.2 1.9 0 3.5-.7 4.8-1.8-1.4 2.1-3.1 4-5.1 5.7z" fill="#fff"/></svg>