<svg xmlns="http://www.w3.org/2000/svg" viewBox="0 0 103.8 103.4"><path d="M102.2 64.2c-6.8 27.8-34.9 44.5-62.5 37.6C11.9 94.9-4.8 66.9 2.1 39.2 8.9 11.4 37-5.3 64.6 1.6c27.8 6.7 44.6 34.9 37.6 62.6z" fill="#4f5bbd"/><path d="M24.3 66.4s-.1 5 3.6 8.7c3.7 3.7 11.5 3.6 11.5 3.6s23.3.3 28.9-24.5c0 0-3.8 1.4-11 .4S35.4 51.3 29 56.5c-5.3 4.3-4.7 9.9-4.7 9.9zm56.2-30.6s.1-5-3.6-8.7c-3.7-3.7-11.5-3.6-11.5-3.6s-23.3-.3-29 24.5c0 0 3.8-1.4 11-.4 7.2 1 22.1 3.3 28.4-1.9 5.3-4.3 4.7-9.9 4.7-9.9z" fill="#fff"/></svg>