<svg xmlns="http://www.w3.org/2000/svg" viewBox="0 0 103.8 103.4" enable-background="new 0 0 103.8 103.4"><path d="M102.2 64.2c-6.8 27.8-34.9 44.5-62.5 37.6C11.9 94.9-4.8 66.9 2.1 39.2 8.9 11.4 37-5.3 64.6 1.6c27.8 6.7 44.6 34.9 37.6 62.6z" fill="#002670"/><defs><filter id="a" filterUnits="userSpaceOnUse" x="26.1" y="15.3" width="50.3" height="70.8"><feColorMatrix values="1 0 0 0 0 0 1 0 0 0 0 0 1 0 0 0 0 0 1 0"/></filter></defs><mask maskUnits="userSpaceOnUse" x="26.1" y="15.3" width="50.3" height="70.8" id="b"><circle cx="52.5" cy="51.8" r="50.3" fill="#fff" filter="url(#a)"/></mask><path d="M76.4 15.3L52.1 39.8l20.6 12.9c.4.3.6.9.3 1.3l-.3.3-46.6 31.8 28.7-27.8-20.6-13c-.4-.3-.6-.9-.3-1.3l.3-.3 42.2-28.4z" mask="url(#b)" fill="#fff"/></svg>