<svg id="Layer_1" xmlns="http://www.w3.org/2000/svg" viewBox="0 0 103.8 103.4"><style/><g id="master"><path id="Shape_1_" d="M102.2 64.2c-6.8 27.8-34.9 44.5-62.5 37.6C11.9 94.9-4.8 66.9 2.1 39.2 8.9 11.4 37-5.3 64.6 1.6c27.8 6.7 44.6 34.9 37.6 62.6z" fill="#7322ef"/><path d="M72.5 51.9h3.1V76h-3.1zM15.2 72.8v3.5s11.4.7 18.7-9c0 0 5.3-6.1 5.3-15.4s6.4-14.7 6.4-14.7 5-5.9 15.1-5.9h29.2V28H60.2s-12.1 0-17.6 6.8c-5.5 6.6-6.8 10.5-7 17.3 0 6.8-3.3 11.4-5 13.6-1.8 2.3-6 6.9-15.4 7.1z" fill="#fff" id="S"/></g></svg>