<svg xmlns="http://www.w3.org/2000/svg" viewBox="0 0 103.8 103.4"><path d="M102.2 64.2c-6.8 27.8-34.9 44.5-62.5 37.6C11.9 94.9-4.8 66.9 2.1 39.2 8.9 11.4 37-5.3 64.6 1.6c27.8 6.7 44.6 34.9 37.6 62.6z" fill="#f4b13f"/><path d="M89.7 29.7c-11 .1-35.9-.3-36.6-.1L41.3 40.7 26.7 26.3s-.1-.5-1.3-.5c-.3 0-.6.1-.9.3L11.9 38.8c-.3.3-.4.7-.4 1.2.1.9 1 1.2 1 1.2H24s-.3 15.9.1 16.5 28.1 26.5 28.1 26.5c.3.3.7.5 1.1.6 1.2.2 1.4-1 1.4-1l.1-22.6s24.8-20.3 35-28.8c.3-.2.6.1.7-1.4 0-.8-.2-1.3-.8-1.3zm-65.8 8.5H17l7-7-.1 7zm3.4-6.9l11.5 11.5-11.5 10.8V31.3zm16 39.7l8.5-7.1-.1 15.7-8.4-8.6zm-2.5-2.2L27.9 57.1l26.5-24.6 30.6-.1-44.2 36.4z" fill="#fff"/></svg>