<svg xmlns="http://www.w3.org/2000/svg" viewBox="0 0 103.8 103.4"><path d="M102.2 64.2c-6.8 27.8-34.9 44.5-62.5 37.6C11.9 94.9-4.8 66.9 2.1 39.2 8.9 11.4 37-5.3 64.6 1.6c27.8 6.7 44.6 34.9 37.6 62.6z" fill="#00dbe2"/><path d="M87.2 50.1l-19-20.4L52 46.8 36.6 29.7s-17.7 19-19 20.4c-1.3 1.4 0 2.9 0 2.9l19 20.7 15.6-16.8 16.1 16.8s17.4-19 18.9-20.6c1.4-1.6 0-3 0-3zM36.6 63.5L26.4 52.6s-.9-1 0-2.1 10.2-10.8 10.2-10.8l11.2 11.8-11.2 12zM77.9 53c-1.2 1.4-9.5 10.3-9.5 10.3L56.8 51.9l11.4-12.2 9.7 10.4s1.2 1.5 0 2.9z" fill="#fff"/></svg>