<svg id="Layer_1" xmlns="http://www.w3.org/2000/svg" viewBox="0 0 103.8 103.4"><style>.st1{fill:#fff}</style><path id="bg" d="M102.2 64.2c-6.8 27.8-34.9 44.5-62.5 37.6C11.9 94.9-4.8 66.9 2.1 39.2 8.9 11.4 37-5.3 64.6 1.6c27.8 6.7 44.6 34.9 37.6 62.6z" fill="#c93"/><path class="st1" d="M16.7 47.2l-6.5 6.6 20.1 20s5.8 6.7 11.8 5.3 8.6-3.6 16-10.3 9-14.1 9-16.2c0-2.1-.5-3.4-1.9-5.9-1.4-2.5-10.8-11.4-10.8-11.4l-13-13-7.1 7.3 17.8 17.6s3.6 3.3 3.8 5.2.3 3.4-1.6 6-8.6 9.3-11.4 10.1-4.9-.2-7.4-2.8"/><path class="st1" d="M69.3 29.1l-6.6-6.5-20 20.1s-6.7 5.8-5.3 11.8 3.6 8.6 10.3 16 14.1 9 16.2 9c2.1 0 3.4-.5 5.9-1.9s11.4-10.8 11.4-10.8l13-13-7.3-7.1-17.7 17.8s-3.3 3.6-5.3 3.8c-1.9.2-3.4.3-6-1.6s-9.3-8.6-10.1-11.4.2-4.9 2.8-7.4"/></svg>