<svg xmlns="http://www.w3.org/2000/svg" viewBox="0 0 103.8 103.4"><path d="M102.2 64.2c-6.8 27.8-34.9 44.5-62.5 37.6C11.9 94.9-4.8 66.9 2.1 39.2 8.9 11.4 37-5.3 64.6 1.6c27.8 6.7 44.6 34.9 37.6 62.6z" fill="#fcbe5b"/><path d="M64.5 52.5c0-2.6-.5-4.6-2.5-5.2 0 1.3-.6 2-.5 3.4.8.9 1.6 1.7 3 1.8zm-3.6-17.7c-2.6-8.6-5.2-17.3-8-25.8-3.1 10.2-6.2 20.4-9.4 30.5 5.8-1.5 11.6-3.1 17.4-4.7zm.9 35.9c-2.2-2-2.5-4.3-4.9-6.6-3-2.9-8.3-3.7-6.9-10.1-4.4-1-11.8 3.4-13.7 7.9-3.5 9.8-6.9 19.6-10.4 29.4 9-6.4 18.1-13.2 27.1-19.8 8.7 6.3 17.5 13.1 26.2 19.4.2.2.5.4.8.4-2.3-6.8-4.7-13.8-7-20.7-3.5.4-7.4 0-11.2.1zM27.1 40.6c-5.9-.1-11.7-.2-17.3 0 .4.6 1.1.9 1.6 1.3 5.2 3.6 10.5 7.3 15.7 11V40.6zm40.3.4l-4.6 2.2c.6 2.1 3.4 1.9 4.4 3.4.3 4.4 1.1 8.7 2.4 12.9 8.7-6.2 17.8-12.5 26.5-18.6.3-.2.7-.5.6-.6-9.7.3-19.5.5-29.3.7z" fill="#fff"/></svg>