<svg id="Layer_1" xmlns="http://www.w3.org/2000/svg" viewBox="0 0 103.8 103.4"><style>.st1{fill:#fff}</style><g id="master"><path id="bg" d="M102.2 64.2c-6.8 27.8-34.9 44.5-62.5 37.6C11.9 94.9-4.8 66.9 2.1 39.2 8.9 11.4 37-5.3 64.6 1.6c27.8 6.7 44.6 34.9 37.6 62.6z" fill="#f68e20"/></g><path class="st1" d="M38.1 42.3l-4.7 12.8-4.7-12.8H21l-4.7 12.9-4.7-12.9H5.2l6.9 18.8h8.4L24.9 49l4.3 12.1h8.4l6.8-18.8zm52.1 7.6l9.1-7.6h-9.2l-4.6 3.8z"/><path class="st1" d="M69.9 36.3h-9.3l18.3 15.4-5.8 4.8-12-14.2h-7.8L32.5 67.1h7.8l16.9-20.2 4.9 5.8h-6.4l-3.2 3.9h12.9l3.7 4.5h7.8l6.6-5.5 6.6 5.5h9.2z"/></svg>