<svg id="Layer_1" xmlns="http://www.w3.org/2000/svg" viewBox="0 0 103.8 103.4"><style>.st1{fill:#fff}</style><g id="master"><path id="bg" d="M102.2 64.2c-6.8 27.8-34.9 44.5-62.5 37.6C11.9 94.9-4.8 66.9 2.1 39.2 8.9 11.4 37-5.3 64.6 1.6c27.8 6.7 44.6 34.9 37.6 62.6z" fill="#63c5ba"/><path class="st1" d="M51.7 20.3c-17.7 0-32.1 14.4-32.1 32.1s14.4 32 32.1 32S83.8 70 83.8 52.3s-14.4-32-32.1-32zm0 55.8C38.6 76.1 28 65.4 28 52.4c0-13.1 10.6-23.7 23.7-23.7s23.7 10.6 23.7 23.7c0 13-10.6 23.7-23.7 23.7z"/><path class="st1" d="M36.6 41.3h29.5v8.9H36.6z"/><path class="st1" d="M46.6 45.8h8.9V70h-8.9z"/></g></svg>