<svg id="Layer_1" xmlns="http://www.w3.org/2000/svg" viewBox="0 0 103.8 103.4"><style>.st1{fill:#fff}</style><g id="master"><path id="bg" d="M102.2 64.2c-6.8 27.8-34.9 44.5-62.5 37.6C11.9 94.9-4.8 66.9 2.1 39.2 8.9 11.4 37-5.3 64.6 1.6c27.8 6.7 44.6 34.9 37.6 62.6z" fill="#60d7af"/></g><g id="Shape"><path class="st1" d="M40.9 40.9v21.2h21.2c11.6 0 21-9.4 21-21V19.9H61.9c-11.6 0-21 9.4-21 21z"/><path class="st1" d="M77.8 72.8H30.2V25.2c0-2.9-2.3-5.2-5.2-5.2h-5.5v63.5H83V78c0-2.9-2.3-5.2-5.2-5.2z"/></g></svg>