<svg xmlns="http://www.w3.org/2000/svg" viewBox="0 0 103.8 103.4"><path d="M102.2 64.2c-6.8 27.8-34.9 44.5-62.5 37.6C11.9 94.9-4.8 66.9 2.1 39.2 8.9 11.4 37-5.3 64.6 1.6c27.8 6.7 44.6 34.9 37.6 62.6z" fill="#00c4c3"/><path d="M80.4 62.3c-2.7 0-2.8-6.2-2.8-6.2l-2.4-30.2s.1-12.3-12.4-13.2c-12.5-.9-13.7 11.4-13.7 11.4s-4 46.8-4.6 50.6c-.5 3.8-1.1 4.8-3 4.8s-2.4-4.7-2.4-4.7-.9-11.3-2-26.1C36 34 35.5 26.4 23.2 26.1c-10.7-.2-12.6 6-14.2 24.4-1.1 14.2-2.8 20.9-3.5 23.3 2 4.2 4.5 8.1 7.5 11.6 5.9-9.7 6.7-28.5 6.7-28.5s1-15.4 1-16.6.2-3.8 2.8-3.8c2.3 0 2.2 3.4 2.2 3.4s3 36.6 3.3 38.6c.3 2 1.8 11.6 13.9 11.6S55.2 76 55.2 76l4.2-47.8s.5-4.8 2.7-4.8 2.5 4.4 2.5 4.4 2.7 30.7 3 33.4c.4 2.6 1.4 11.6 13.8 11.6 11.2 0 12.3-14.3 12.3-14.3l4.9-29.4c-2.2-4.6-5.2-8.9-8.7-12.7l-6.6 39.3s-.2 6.6-2.9 6.6z" fill="#fff"/></svg>