<svg xmlns="http://www.w3.org/2000/svg" viewBox="0 0 103.4 103.4"><path d="M101.8 64.3c-6.8 27.8-35 44.6-62.6 37.7C11.4 95.1-5.4 67 1.5 39.3c6.8-27.8 35-44.6 62.6-37.7 27.9 6.6 44.7 34.8 37.7 62.7z" opacity=".75" fill="#564228"/><path d="M87.4 21.8H65.7v2.5h9.2v12.5h-5.2v3.9h-6.9V43l-7.8.1V43c.1-.7 1.9-1.7 1.9-1.7 0 1.3 1.1 1.3 1.1 1.3s1-.1 1-1v-.1c0-.8-1-1-1-1-2.8 0-3.6 2.4-3.6 2.4l-2.6-6.7-2.6 6.6c-.9-1.8-2.5-2.3-3.6-2.3s-1.1 1.1-1.1 1.1c0 .9 1 1 1 1 1.1 0 1.1-1.3 1.1-1.3 1.7.4 1.9 1.8 1.9 1.8h-7.7v-2.4h-7v-3.9h-5.2V24.4H38v-2.6H16.2v2.5h5.2v16.1h5.2v4.3h6.9v3.9h7.1V50l-5.1 1.9 5.1 1.9v1h-7.1v3.9h-6.9v4.2h-5.2v16.2h-5.2v2.5H38v-2.5h-9.2V66.5H34v-3.9h6.9v-1.9h7.5c-.1 1-1.9 1.7-1.9 1.7v-.1c-.1-1.5-1.2-1.2-1.2-1.2-1 0-1 1-1 1 .1 1 1.1 1.1 1.1 1.1 2.8 0 3.6-2.3 3.6-2.3l2.7 6.9 2.6-6.8c.8 2.5 3.6 2.5 3.6 2.5s1 .2 1.1-.9c.1-1.1-1-1.2-1-1.2-1 0-1.2 1.2-1.2 1.2-1-.1-1.9-1.8-1.9-1.8h7.8v2h6.9v3.8h5.2v12.5h-9.2v2.5h21.8v-2.5h-5.2V62.8H77v-4.2h-6.9v-3.9H63v-.8l5.2-2-5.2-2.1v-1.1h7.2v-3.9h6.9v-4.2h5.2V24.4h5.3v-2.6zM42 51.8l1-1 1 1-1 1-1-1zm16.7 2.6L56.3 52l-1.5 1.5.8 1.7-1.8-.7-2.2 2.2-1.9-1.9-1.7.7.7-1.7-1.7-1.7-2.3 2.3-1.1-1.1 1.5-1.5-1.5-1.5 1.2-1.2 2.2 2.2 1.7-1.7-.7-1.8 1.7.8 2-1.9 2 2 1.7-.8-.7 1.8 1.5 1.6 2.4-2.3 1.2 1.2-1.5 1.5 1.6 1.6-1.2 1.1zm1.9-1.6l-1-1 1-1 1 1-1 1z" fill="#fff"/></svg>