<svg xmlns="http://www.w3.org/2000/svg" viewBox="0 0 103.8 103.4"><path d="M102.2 64.2c-6.8 27.8-34.9 44.5-62.5 37.6C11.9 94.9-4.8 66.9 2.1 39.2 8.9 11.4 37-5.3 64.6 1.6c27.8 6.7 44.6 34.9 37.6 62.6z" fill="#06f"/><path d="M52.4 16c-7.7 12.6-15.3 25.1-23 37.7-.4.9-.4 2 .2 2.8.7 1.1 1.9 1.2 2.1 1.2h15.5c-1.1 9.2-2.1 18.4-3.2 27.6-.1 1.3.7 2.5 1.9 3 1.3.5 2.8-.1 3.5-1.3 8.2-14 16.5-27.9 24.7-41.9.6-.8.7-2 .2-2.9-.5-.9-1.4-1.4-2.4-1.4H56.5c.4-7.7.7-15.3 1.1-23 0-1.2-.7-2.2-1.8-2.7s-2.5-.1-3.4.9z" fill="#fff"/></svg>