<svg xmlns="http://www.w3.org/2000/svg" width="192" height="192"><path fill="#FFF" d="M69.55 95.31c-.03-3.7.95-4.89 4.6-4.52 3.86.38 9.01-1.21 11.34.75 2.76 2.32.8 7.63.9 11.64.17 7.311.05 14.62.05 21.931.3.06.61.109.92.159 4.3-10.17 8.73-20.289 12.82-30.549 1.24-3.1 2.851-4.2 6.141-3.95 4.04.32 8.13.08 12.149.08.84 1.8-.399 2.98-.93 4.21-4.64 10.77-9.25 21.55-14.17 32.19-1.45 3.14-1.28 5.68.04 8.74 5.109 11.8 10.02 23.689 14.95 35.56.55 1.311 1.479 2.57 1.109 4.521-5.359 0-10.7-.09-16.04.04-2.59.06-2.68-1.92-3.29-3.48-3.689-9.399-7.32-18.82-10.99-28.22-.62-1.58-1.38-3.12-2.71-4.48 0 10.7-.11 21.4.06 32.11.06 3.12-.71 4.46-4.01 4.07-4.15-.48-9.71 1.8-12.12-.98-2.05-2.36-.7-7.75-.71-11.8-.029-22.682.081-45.352-.109-68.022z"/><path fill="#F29620" d="M62.68 9.31c31.8-20.27 73.07-3.42 84.37 34.07 1.95 6.44 2.96 13.04 2.79 19.77-.06 2.32.21 4.14 2.55 5.19 1.65.75 2.16 2.3 2.521 3.96 6.51 30.28 8.859 60.95 8.91 91.851 0 2.39-.94 2.84-3.08 3.22-11.38 1.99-17.431 8.06-19.24 19.64-.47 3.01-1.47 3.66-4.26 3.641-15.01-.12-30.021-.061-45.03-.061-14.85 0-29.69-.09-44.54.07-3.26.03-4.85-.48-5.37-4.25-1.52-11.021-8.1-17.45-19.18-19.04-2.76-.4-3.44-1.32-3.36-3.93.91-29.7 2.61-59.301 8.75-88.48.64-3.05 1.15-6.02 4.46-7.59 2.32-1.1 1.25-3.49 1.28-5.31C34.68 39.58 43.62 21.47 62.68 9.31zm5.92 43.84c2.7-.97 3.71-.51 4.1 2.48.79 6.04 2.73 11.76 6.38 16.73 7.45 10.12 18.58 10.06 25.92-.13 3.21-4.44 5.31-9.45 5.91-14.83.53-4.78 2.399-5.32 6.5-3.67 4.77 1.93 9.78 3.27 15.31 5.07-.87-15.26-7.35-26.57-19.89-33.89-14.36-8.37-29.06-7.98-43.01 1.08-11.48 7.45-17.45 18.33-18.12 32.67 6.1-1.97 11.55-3.59 16.9-5.51zm1.06 110.18c.01 4.05-1.34 9.439.71 11.8 2.41 2.78 7.97.5 12.12.98 3.3.39 4.07-.95 4.01-4.07-.17-10.71-.06-21.41-.06-32.11 1.33 1.36 2.09 2.9 2.71 4.48 3.67 9.399 7.3 18.82 10.99 28.22.61 1.561.7 3.54 3.29 3.48 5.34-.13 10.681-.04 16.04-.04.37-1.95-.56-3.21-1.109-4.521-4.931-11.87-9.841-23.76-14.95-35.56-1.32-3.061-1.49-5.601-.04-8.74 4.92-10.64 9.53-21.42 14.17-32.19.53-1.23 1.77-2.41.93-4.21-4.02 0-8.109.24-12.149-.08-3.29-.25-4.9.85-6.141 3.95-4.09 10.26-8.52 20.379-12.82 30.549-.31-.05-.62-.1-.92-.159 0-7.311.12-14.62-.05-21.931-.1-4.01 1.86-9.32-.9-11.64-2.33-1.96-7.48-.37-11.34-.75-3.65-.37-4.63.82-4.6 4.52.189 22.672.079 45.342.109 68.022z"/></svg>