<svg id="Layer_1" xmlns="http://www.w3.org/2000/svg" viewBox="0 0 822 186"><style>.st0{fill:#354d6a}.st4{fill:#466284}.st12{fill:#fff}.st16{fill:#273c51}</style><path class="st0" d="M170.7-978.2c-11 0-22.7 4.3-22.7 14.8 0 9.4 10.7 12.1 23.4 14.2 17.2 2.7 34.2 6.2 34.2 25.6-.1 19.3-18.6 25.6-35.1 25.6-15.3 0-29.8-5.5-36.5-20l8.9-5.2c5.5 10.2 17.1 15.1 27.7 15.1 10.5 0 24.4-3.3 24.4-16 .1-10.7-11.9-13.8-24.9-15.8-16.6-2.6-32.8-6.4-32.8-23.9-.2-18 18.1-24.1 33-24.1 12.8 0 25 2.6 32.6 15.6l-8.1 5c-4.5-7.3-14.5-10.8-24.1-10.9zm52.6-7.6v35.3c5.2-8 13.3-10.7 21.1-10.8 17.1 0 25.5 11.3 25.5 28.1v33.5h-10v-33.4c0-11.9-6.2-18.7-17.2-18.7s-19.2 8.7-19.2 19.8v32.3h-10.1v-86.2h10v.1zm108.2 86.3l-.2-11.1c-4.8 8.4-14 12.3-22.4 12.3-17.5 0-31.2-12.1-31.2-31.9 0-19.7 13.9-31.5 31.3-31.4 9.1 0 18.1 4.2 22.5 12.1l.1-11.1h9.9v60.8h-9.7l-.3.3zM309.3-952c-12.1 0-21.8 8.6-21.8 22.2s9.7 22.3 21.8 22.3c29.3 0 29.3-44.6.1-44.6l-.1.1zm40.2-8.3h9.6l.5 11.7c4.8-8.1 13.8-12.8 23.4-12.8 17.5.4 30.3 12.7 30.3 31.4 0 19.2-12.7 31.7-30.9 31.7-8.6 0-18.2-3.7-23-12.3v39.7h-9.9v-89.4zm53.7 30.5c0-13.7-9-21.8-21.4-21.8-12.7 0-21.3 9.4-21.3 21.8s9 21.8 21.3 21.9c12.2 0 21.4-8.2 21.4-21.9zm75.3 20.3c-6.2 7.3-16.7 10.8-26.2 10.8-18.8 0-32-12.4-32-31.8 0-18.4 13.2-31.5 31.5-31.5 18.6 0 32.8 11.5 30.4 35.7h-51.7c1.1 11.2 10.3 18.2 22 18.2 6.9 0 15.3-2.7 19.3-7.6l6.8 6.2h-.1zm-5.9-25.1c-.5-11.8-8.6-18.2-20.6-18.2-10.6 0-19.8 6.4-21.6 18.1h42.1v.1z"/><path d="M523.3-978.2c-11 0-22.7 4.3-22.7 14.8 0 9.4 10.7 12.1 23.4 14.2 17.2 2.7 34.2 6.2 34.2 25.6-.1 19.3-18.6 25.6-35.1 25.6-15.3 0-29.8-5.5-36.5-20l8.9-5.2c5.5 10.2 17.1 15.1 27.7 15.1 10.5 0 24.4-3.3 24.4-16 .1-10.7-11.9-13.8-24.9-15.8-16.6-2.6-32.8-6.4-32.8-23.9-.2-18 18.1-24.1 33-24.1 12.8 0 25 2.6 32.6 15.6l-8.1 5c-4.5-7.3-14.5-10.8-24.1-10.9zm52.6-7.6v35.3c5.2-8 13.3-10.7 21.1-10.8 17.1 0 25.5 11.3 25.5 28.1v33.5h-10v-33.4c0-11.9-6.2-18.7-17.2-18.7S576-943.1 576-932v32.3h-10.1v-86.2h10v.1zm54.8 86.1h10.1v-60h-10.1v60zm5.1-69.2l-8-8.8 8-8.8 8 8.8-8 8.8zm23.8 69.3v-.1h-.1zm10-65c0-9.1 4.2-13.2 10.7-13.2h.4l2.3-8.7c-1-.1-1.9-.2-2.9-.2-12.8 0-20.4 8.1-20.4 22v4.8h-11.9v8.9h11.9v51.2h10V-951h12.1v-8.9h-12.1v-4.7zm51.3 56.4c-.8.1-1.6.2-2.3.2-7.3 0-9.6-4.6-9.6-11.7V-951h13v-8.8h-12.8v-18.5l-10.1 1.1v17.4h-12.2v8.8H699v31.4c0 13.4 6.2 21.1 19.2 20.8 1.6 0 3.2-.2 4.7-.6l-2-8.8z" fill="#54769e"/><linearGradient id="SVGID_1_" gradientUnits="userSpaceOnUse" x1="306.145" y1="-1086.569" x2="490.179" y2="-1086.569"><stop offset=".266" stop-color="#54769e"/><stop offset="1" stop-color="#425e7f"/></linearGradient><path fill="url(#SVGID_1_)" d="M306.2-1171.2l-.1 47 64.5 100.4 69 21.9 50.6-32.1z"/><linearGradient id="SVGID_2_" gradientUnits="userSpaceOnUse" x1="451.377" y1="-1343.566" x2="370.269" y2="-1108.287"><stop offset=".135" stop-color="#2b415b"/><stop offset=".376" stop-color="#3b5676"/><stop offset=".692" stop-color="#54769e"/><stop offset=".79" stop-color="#52749b"/><stop offset=".861" stop-color="#4d6c92"/><stop offset=".924" stop-color="#436082"/><stop offset=".982" stop-color="#364f6c"/><stop offset="1" stop-color="#314863"/></linearGradient><path fill="url(#SVGID_2_)" d="M409.9-1264.7l-103.6 90.9 144.4 83.2.6-171.4z"/><path class="st4" d="M395.2-1208.5l55.6 148.7.4-140.4z"/><path class="st0" d="M506.5-1207.9l-55.7 148.1.4-140.4z"/><linearGradient id="SVGID_3_" gradientUnits="userSpaceOnUse" x1="550.475" y1="-1235.91" x2="342.384" y2="-1356.051"><stop offset="0" stop-color="#54769e"/><stop offset=".48" stop-color="#53749c"/><stop offset=".688" stop-color="#4f6f95"/><stop offset=".842" stop-color="#486588"/><stop offset=".909" stop-color="#435f80"/></linearGradient><path fill="url(#SVGID_3_)" d="M550.9-1371.9l-55.3 29-44.3 9.8-44.6-9.8-55.1-29.1 19 87.8-18.1 49.2 63.2 39.3 35.3 38.2v.3l.1-.2.2.2v-.3l35.2-38.2 63.4-39.2-18-49.3z"/><linearGradient id="SVGID_4_" gradientUnits="userSpaceOnUse" x1="669.801" y1="-1303.406" x2="465.948" y2="-1303.406"><stop offset=".254" stop-color="#20344c"/><stop offset=".407" stop-color="#273d57"/><stop offset=".673" stop-color="#395373"/><stop offset="1" stop-color="#54769e"/></linearGradient><path fill="url(#SVGID_4_)" d="M550.9-1371.9l-15.4 87.9 14.4 49.1-18-49.3z"/><linearGradient id="SVGID_5_" gradientUnits="userSpaceOnUse" x1="227.356" y1="-1303.461" x2="438.106" y2="-1303.461"><stop offset=".254" stop-color="#54769e"/><stop offset=".413" stop-color="#4d6e93"/><stop offset=".69" stop-color="#3c5777"/><stop offset="1" stop-color="#233850"/></linearGradient><path fill="url(#SVGID_5_)" d="M351.6-1372l15.4 88-14.5 49 18.1-49.2z"/><linearGradient id="SVGID_6_" gradientUnits="userSpaceOnUse" x1="453.174" y1="-1453.323" x2="449.006" y2="-1280.339"><stop offset=".007" stop-color="#54769e"/><stop offset=".199" stop-color="#507198"/><stop offset=".45" stop-color="#466488"/><stop offset=".732" stop-color="#354f6d"/><stop offset="1" stop-color="#21354d"/></linearGradient><path fill="url(#SVGID_6_)" d="M351.6-1372l64.3 26.9h70.6l64.4-26.8-55.3 29-44.3 9.8-44.6-9.8z"/><linearGradient id="SVGID_7_" gradientUnits="userSpaceOnUse" x1="490.163" y1="-1395.814" x2="319.78" y2="-1230.448"><stop offset=".254" stop-color="#54769e"/><stop offset=".41" stop-color="#4d6e93"/><stop offset=".681" stop-color="#3c5777"/><stop offset="1" stop-color="#22364e"/></linearGradient><path fill="url(#SVGID_7_)" d="M370.6-1284.2l-3.2 8.8 66.7-61.5z"/><linearGradient id="SVGID_8_" gradientUnits="userSpaceOnUse" x1="428.303" y1="-1373.748" x2="570.293" y2="-1247.134"><stop offset=".254" stop-color="#54769e"/><stop offset=".41" stop-color="#4d6e93"/><stop offset=".681" stop-color="#3c5777"/><stop offset="1" stop-color="#22364e"/></linearGradient><path fill="url(#SVGID_8_)" d="M531.9-1284.2l-63.3-52.7 66.4 61.1z"/><linearGradient id="SVGID_9_" gradientUnits="userSpaceOnUse" x1="272.353" y1="-1126.143" x2="577.025" y2="-1017.406"><stop offset=".266" stop-color="#54769e"/><stop offset="1" stop-color="#425e7f"/></linearGradient><path fill="url(#SVGID_9_)" d="M306.3-1173.8l155.2 85.7 19.7 49.1-41.6 15.9-64.8-6.7-68.6-94.4z"/><path class="st12" d="M434.7-1102.8l-59.7 72.7-.2.3 64.7 21.7h.1l50.5-25.9h.1v-38.4z"/><linearGradient id="SVGID_10_" gradientUnits="userSpaceOnUse" x1="410.009" y1="-1443.265" x2="591.345" y2="-1281.7"><stop offset=".461" stop-color="#54769e" stop-opacity="0"/><stop offset=".57" stop-color="#52739a" stop-opacity=".216"/><stop offset=".676" stop-color="#4a698e" stop-opacity=".427"/><stop offset=".782" stop-color="#3d597b" stop-opacity=".636"/><stop offset=".886" stop-color="#2c435f" stop-opacity=".842"/><stop offset=".966" stop-color="#1b2e45"/></linearGradient><path fill="url(#SVGID_10_)" d="M531.9-1284.2l19-87.7-55.3 29-27 6z"/><path class="st12" d="M451.3-1157.2l-17.6-19.2 17.6-19.3 17.5 19.3z"/><linearGradient id="SVGID_11_" gradientUnits="userSpaceOnUse" x1="451.242" y1="-1001.821" x2="451.242" y2="-1473.29"><stop offset=".254" stop-color="#54769e"/><stop offset=".41" stop-color="#4d6e93"/><stop offset=".681" stop-color="#3c5777"/><stop offset="1" stop-color="#22364e"/></linearGradient><path fill="url(#SVGID_11_)" d="M449.5-1333.5l1.8.4 1.6-.4-1.7 112z"/><path class="st16" d="M1198.5-1871.5h1500v1500h-1500z"/><path class="st12" d="M1690.7-978.2c-11 0-22.7 4.3-22.7 14.8 0 9.4 10.7 12.1 23.4 14.2 17.2 2.7 34.2 6.2 34.2 25.6-.1 19.3-18.6 25.6-35.1 25.6-15.3 0-29.8-5.5-36.5-20l8.9-5.2c5.5 10.2 17.1 15.1 27.7 15.1 10.5 0 24.4-3.3 24.4-16 .1-10.7-11.9-13.8-24.9-15.8-16.6-2.6-32.8-6.4-32.8-23.9-.2-18 18.1-24.1 33-24.1 12.8 0 25 2.6 32.6 15.6l-8.1 5c-4.5-7.3-14.5-10.8-24.1-10.9zm52.6-7.6v35.3c5.2-8 13.3-10.7 21.1-10.8 17.1 0 25.5 11.3 25.5 28.1v33.5h-10v-33.4c0-11.9-6.2-18.7-17.2-18.7s-19.2 8.7-19.2 19.8v32.3h-10.1v-86.2h10v.1zm108.2 86.3l-.2-11.1c-4.8 8.4-14 12.3-22.4 12.3-17.5 0-31.2-12.1-31.2-31.9 0-19.7 13.9-31.5 31.3-31.4 9.1 0 18.1 4.2 22.5 12.1l.1-11.1h9.9v60.8h-9.7l-.3.3zm-22.2-52.5c-12.1 0-21.8 8.6-21.8 22.2s9.7 22.3 21.8 22.3c29.3 0 29.3-44.6.1-44.6l-.1.1zm40.2-8.3h9.6l.5 11.7c4.8-8.1 13.8-12.8 23.4-12.8 17.5.4 30.3 12.7 30.3 31.4 0 19.2-12.7 31.7-30.9 31.7-8.6 0-18.2-3.7-23-12.3v39.7h-9.9v-89.4zm53.7 30.5c0-13.7-9-21.8-21.4-21.8-12.7 0-21.3 9.4-21.3 21.8s9 21.8 21.3 21.9c12.2 0 21.4-8.2 21.4-21.9zm75.3 20.3c-6.2 7.3-16.7 10.8-26.2 10.8-18.8 0-32-12.4-32-31.8 0-18.4 13.2-31.5 31.5-31.5 18.6 0 32.8 11.5 30.4 35.7h-51.7c1.1 11.2 10.3 18.2 22 18.2 6.9 0 15.3-2.7 19.3-7.6l6.8 6.2h-.1zm-5.9-25.1c-.5-11.8-8.6-18.2-20.6-18.2-10.6 0-19.8 6.4-21.6 18.1h42.1v.1zm50.7-43.6c-11 0-22.7 4.3-22.7 14.8 0 9.4 10.7 12.1 23.4 14.2 17.2 2.7 34.2 6.2 34.2 25.6-.1 19.3-18.6 25.6-35.1 25.6-15.3 0-29.8-5.5-36.5-20l8.9-5.2c5.5 10.2 17.1 15.1 27.7 15.1 10.5 0 24.4-3.3 24.4-16 .1-10.7-11.9-13.8-24.9-15.8-16.6-2.6-32.8-6.4-32.8-23.9-.2-18 18.1-24.1 33-24.1 12.8 0 25 2.6 32.6 15.6l-8.1 5c-4.5-7.3-14.5-10.8-24.1-10.9zm52.6-7.6v35.3c5.2-8 13.3-10.7 21.1-10.8 17.1 0 25.5 11.3 25.5 28.1v33.5h-10v-33.4c0-11.9-6.2-18.7-17.2-18.7s-19.2 8.7-19.2 19.8v32.3H2086v-86.2h10v.1zm54.8 86.1h10.1v-60h-10.1v60zm5.1-69.2l-8-8.8 8-8.8 8 8.8-8 8.8zm23.8 69.3v-.1h-.1zm10-65c0-9.1 4.2-13.2 10.7-13.2h.4l2.3-8.7c-1-.1-1.9-.2-2.9-.2-12.8 0-20.4 8.1-20.4 22v4.8h-11.9v8.9h11.9v51.2h10V-951h12.1v-8.9h-12.1v-4.7zm51.3 56.4c-.8.1-1.6.2-2.3.2-7.3 0-9.6-4.6-9.6-11.7V-951h13v-8.8h-12.8v-18.5l-10.1 1.1v17.4h-12.2v8.8h12.2v31.4c0 13.4 6.2 21.1 19.2 20.8 1.6 0 3.2-.2 4.7-.6l-2.1-8.8z"/><linearGradient id="SVGID_12_" gradientUnits="userSpaceOnUse" x1="1971.377" y1="-1343.566" x2="1890.269" y2="-1108.287"><stop offset=".135" stop-color="#2b415b"/><stop offset=".376" stop-color="#3b5676"/><stop offset=".692" stop-color="#54769e"/><stop offset=".79" stop-color="#52749b"/><stop offset=".861" stop-color="#4d6c92"/><stop offset=".924" stop-color="#436082"/><stop offset=".982" stop-color="#364f6c"/><stop offset="1" stop-color="#314863"/></linearGradient><path fill="url(#SVGID_12_)" d="M1929.9-1264.7l-103.6 90.9 144.4 83.2.6-171.4z"/><path class="st4" d="M1915.2-1208.5l55.6 148.7.4-140.4z"/><path class="st0" d="M2026.5-1207.9l-55.7 148.1.4-140.4z"/><linearGradient id="SVGID_13_" gradientUnits="userSpaceOnUse" x1="2070.475" y1="-1235.91" x2="1862.384" y2="-1356.051"><stop offset="0" stop-color="#54769e"/><stop offset=".48" stop-color="#53749c"/><stop offset=".688" stop-color="#4f6f95"/><stop offset=".842" stop-color="#486588"/><stop offset=".909" stop-color="#435f80"/></linearGradient><path fill="url(#SVGID_13_)" d="M2070.9-1371.9l-55.3 29-44.3 9.8-44.6-9.8-55.1-29.1 19 87.8-18.1 49.2 63.2 39.3 35.3 38.2v.3l.1-.2.2.2v-.3l35.2-38.2 63.4-39.2-18-49.3z"/><linearGradient id="SVGID_14_" gradientUnits="userSpaceOnUse" x1="2189.8" y1="-1303.406" x2="1985.948" y2="-1303.406"><stop offset=".254" stop-color="#20344c"/><stop offset=".407" stop-color="#273d57"/><stop offset=".673" stop-color="#395373"/><stop offset="1" stop-color="#54769e"/></linearGradient><path fill="url(#SVGID_14_)" d="M2070.9-1371.9l-15.4 87.9 14.4 49.1-18-49.3z"/><linearGradient id="SVGID_15_" gradientUnits="userSpaceOnUse" x1="1747.356" y1="-1303.461" x2="1958.106" y2="-1303.461"><stop offset=".254" stop-color="#54769e"/><stop offset=".413" stop-color="#4d6e93"/><stop offset=".69" stop-color="#3c5777"/><stop offset="1" stop-color="#233850"/></linearGradient><path fill="url(#SVGID_15_)" d="M1871.6-1372l15.4 88-14.5 49 18.1-49.2z"/><linearGradient id="SVGID_16_" gradientUnits="userSpaceOnUse" x1="1973.174" y1="-1453.323" x2="1969.006" y2="-1280.339"><stop offset=".007" stop-color="#54769e"/><stop offset=".199" stop-color="#507198"/><stop offset=".45" stop-color="#466488"/><stop offset=".732" stop-color="#354f6d"/><stop offset="1" stop-color="#21354d"/></linearGradient><path fill="url(#SVGID_16_)" d="M1871.6-1372l64.3 26.9h70.6l64.4-26.8-55.3 29-44.3 9.8-44.6-9.8z"/><linearGradient id="SVGID_17_" gradientUnits="userSpaceOnUse" x1="2010.163" y1="-1395.814" x2="1839.78" y2="-1230.448"><stop offset=".254" stop-color="#54769e"/><stop offset=".41" stop-color="#4d6e93"/><stop offset=".681" stop-color="#3c5777"/><stop offset="1" stop-color="#22364e"/></linearGradient><path fill="url(#SVGID_17_)" d="M1890.6-1284.2l-3.2 8.8 66.7-61.5z"/><linearGradient id="SVGID_18_" gradientUnits="userSpaceOnUse" x1="1948.303" y1="-1373.748" x2="2090.294" y2="-1247.134"><stop offset=".254" stop-color="#54769e"/><stop offset=".41" stop-color="#4d6e93"/><stop offset=".681" stop-color="#3c5777"/><stop offset="1" stop-color="#22364e"/></linearGradient><path fill="url(#SVGID_18_)" d="M2051.9-1284.2l-63.3-52.7 66.4 61.1z"/><linearGradient id="SVGID_19_" gradientUnits="userSpaceOnUse" x1="1792.353" y1="-1126.143" x2="2097.025" y2="-1017.406"><stop offset=".266" stop-color="#54769e"/><stop offset="1" stop-color="#425e7f"/></linearGradient><path fill="url(#SVGID_19_)" d="M1826.3-1173.8l155.2 85.7 19.7 49.1-41.6 15.9-64.8-6.7-68.6-94.4z"/><path class="st12" d="M1954.7-1102.8l-59.7 72.7-.2.3 64.7 21.7h.1l50.5-25.9h.1v-38.4z"/><linearGradient id="SVGID_20_" gradientUnits="userSpaceOnUse" x1="1930.009" y1="-1443.265" x2="2111.345" y2="-1281.7"><stop offset=".461" stop-color="#54769e" stop-opacity="0"/><stop offset=".57" stop-color="#52739a" stop-opacity=".216"/><stop offset=".676" stop-color="#4a698e" stop-opacity=".427"/><stop offset=".782" stop-color="#3d597b" stop-opacity=".636"/><stop offset=".886" stop-color="#2c435f" stop-opacity=".842"/><stop offset=".966" stop-color="#1b2e45"/></linearGradient><path fill="url(#SVGID_20_)" d="M2051.9-1284.2l19-87.7-55.3 29-27 6z"/><path class="st12" d="M1971.3-1157.2l-17.6-19.2 17.6-19.3 17.5 19.3z"/><linearGradient id="SVGID_21_" gradientUnits="userSpaceOnUse" x1="1971.242" y1="-1001.821" x2="1971.242" y2="-1473.29"><stop offset=".254" stop-color="#54769e"/><stop offset=".41" stop-color="#4d6e93"/><stop offset=".681" stop-color="#3c5777"/><stop offset="1" stop-color="#22364e"/></linearGradient><path fill="url(#SVGID_21_)" d="M1969.5-1333.5l1.8.4 1.6-.4-1.7 112z"/><path class="st16" d="M1198.5-350.5h1500v1500h-1500z"/><path class="st12" d="M1704.3 359.2c-15.3 0-31.6 6-31.6 20.6 0 13 14.9 16.8 32.6 19.7 24 3.8 47.7 8.6 47.7 35.7-.2 26.9-25.9 35.7-48.9 35.7-21.3 0-41.5-7.7-50.8-27.8l12.4-7.2c7.7 14.2 23.8 21.1 38.6 21.1 14.6 0 34-4.6 34-22.3.2-14.9-16.6-19.2-34.7-22-23.2-3.6-45.6-8.9-45.6-33.3-.3-25 25.2-33.6 46-33.6 17.8 0 34.8 3.6 45.5 21.8l-11.3 7c-6.7-10.4-20.6-15.2-33.9-15.4zm73.2-10.6v49.2c7.2-11.2 18.5-14.9 29.3-15.1 23.8 0 35.5 15.8 35.5 39.1v46.7h-13.9V422c0-16.6-8.6-26.1-24-26.1s-26.8 12.2-26.8 27.6v44.9h-14.1v-120h13.9v.2zm150.8 120.3l-.3-15.4c-6.7 11.7-19.6 17.2-31.2 17.2-24.4 0-43.4-16.8-43.4-44.4 0-27.4 19.4-43.9 43.6-43.7 12.7 0 25.2 5.8 31.4 16.8l.2-15.4h13.7v84.8h-13.6l-.4.1zm-30.9-73.1c-16.8 0-30.4 12-30.4 30.9s13.6 31.1 30.4 31.1c40.8 0 40.8-62.1.2-62.1l-.2.1zm56-11.7h13.4l.7 16.3c6.7-11.3 19.2-17.8 32.6-17.8 24.4.5 42.2 17.7 42.2 43.7 0 26.8-17.7 44.1-43.1 44.1-12 0-25.4-5.1-32.1-17.2v55.2h-13.7V384.1zm74.8 42.6c0-19-12.5-30.4-29.9-30.4-17.7 0-29.7 13-29.7 30.4s12.5 30.4 29.7 30.5c17 0 29.9-11.5 29.9-30.5zm104.9 28.3c-8.6 10.1-23.3 15.1-36.5 15.1-26.2 0-44.6-17.3-44.6-44.3 0-25.6 18.4-43.9 43.9-43.9 25.9 0 45.6 16 42.4 49.8h-72.1c1.5 15.6 14.4 25.4 30.7 25.4 9.6 0 21.3-3.8 26.9-10.6l9.4 8.6h-.1zm-8.3-35c-.7-16.5-12-25.4-28.7-25.4-14.8 0-27.6 8.9-30 25.2h58.7v.2zm70.7-60.8c-15.3 0-31.6 6-31.6 20.6 0 13 14.9 16.8 32.6 19.7 24 3.8 47.7 8.6 47.7 35.7-.2 26.9-25.9 35.7-48.9 35.7-21.3 0-41.5-7.7-50.8-27.8l12.4-7.2c7.7 14.2 23.8 21.1 38.6 21.1 14.6 0 34-4.6 34-22.3.2-14.9-16.6-19.2-34.7-22-23.2-3.6-45.6-8.9-45.6-33.3-.3-25 25.2-33.6 46-33.6 17.8 0 34.8 3.6 45.5 21.8l-11.3 7c-6.6-10.4-20.5-15.2-33.9-15.4zm73.2-10.6v49.2c7.2-11.2 18.5-14.9 29.3-15.1 23.8 0 35.5 15.8 35.5 39.1v46.7h-13.9V422c0-16.6-8.6-26.1-24-26.1s-26.8 12.2-26.8 27.6v44.9h-14.1v-120h13.9v.2zm76.3 119.9h14.1V385H2345v83.5zm7.2-96.3l-11.1-12.2 11.1-12.2 11.1 12.2-11.1 12.2zm33.2 96.5v-.2h-.2zm13.9-90.6c0-12.7 5.8-18.4 14.9-18.4h.5l3.2-12.1c-1.3-.2-2.7-.3-4-.3-17.8 0-28.5 11.3-28.5 30.7v6.7h-16.6v12.4h16.6v71.4h13.9v-71.4h16.8v-12.4h-16.8v-6.6zm71.4 78.7c-1.1.2-2.2.3-3.3.3-10.1 0-13.4-6.3-13.4-16.3V397h18.1v-12.2h-17.9V359l-14.1 1.5v24.2h-17V397h17v43.7c0 18.7 8.6 29.3 26.8 29 2.2-.1 4.4-.3 6.6-.8l-2.8-12.1z"/><linearGradient id="SVGID_22_" gradientUnits="userSpaceOnUse" x1="1560.159" y1="186.297" x2="1483.641" y2="408.263"><stop offset=".135" stop-color="#2b415b"/><stop offset=".376" stop-color="#3b5676"/><stop offset=".692" stop-color="#54769e"/><stop offset=".79" stop-color="#52749b"/><stop offset=".861" stop-color="#4d6c92"/><stop offset=".924" stop-color="#436082"/><stop offset=".982" stop-color="#364f6c"/><stop offset="1" stop-color="#314863"/></linearGradient><path fill="url(#SVGID_22_)" d="M1521 260.7l-97.7 85.8 136.2 78.4.5-161.6z"/><path class="st4" d="M1507.1 313.7l52.6 140.3.3-132.4z"/><path class="st0" d="M1612.2 314.3L1559.7 454l.3-132.4z"/><linearGradient id="SVGID_23_" gradientUnits="userSpaceOnUse" x1="1653.649" y1="287.861" x2="1457.334" y2="174.518"><stop offset="0" stop-color="#54769e"/><stop offset=".48" stop-color="#53749c"/><stop offset=".688" stop-color="#4f6f95"/><stop offset=".842" stop-color="#486588"/><stop offset=".909" stop-color="#435f80"/></linearGradient><path fill="url(#SVGID_23_)" d="M1654 159.6l-52.1 27.4-41.8 9.1-42.1-9.1-52-27.5 17.9 82.8-17 46.5 59.6 37 33.3 36v.3l.1-.1.2.1v-.3l33.2-36 59.8-37-17-46.5z"/><linearGradient id="SVGID_24_" gradientUnits="userSpaceOnUse" x1="1766.223" y1="224.184" x2="1573.905" y2="224.184"><stop offset=".254" stop-color="#20344c"/><stop offset=".407" stop-color="#273d57"/><stop offset=".673" stop-color="#395373"/><stop offset="1" stop-color="#54769e"/></linearGradient><path fill="url(#SVGID_24_)" d="M1654 159.6l-14.5 82.9 13.6 46.3-17-46.5z"/><linearGradient id="SVGID_25_" gradientUnits="userSpaceOnUse" x1="1348.815" y1="224.132" x2="1547.639" y2="224.132"><stop offset=".254" stop-color="#54769e"/><stop offset=".413" stop-color="#4d6e93"/><stop offset=".69" stop-color="#3c5777"/><stop offset="1" stop-color="#233850"/></linearGradient><path fill="url(#SVGID_25_)" d="M1466 159.5l14.6 83-13.7 46.3 17-46.5z"/><linearGradient id="SVGID_26_" gradientUnits="userSpaceOnUse" x1="1561.854" y1="82.751" x2="1557.922" y2="245.947"><stop offset=".007" stop-color="#54769e"/><stop offset=".199" stop-color="#507198"/><stop offset=".45" stop-color="#466488"/><stop offset=".732" stop-color="#354f6d"/><stop offset="1" stop-color="#21354d"/></linearGradient><path fill="url(#SVGID_26_)" d="M1466 159.5l60.7 25.4h66.6l60.7-25.3-52.1 27.4-41.8 9.1-42.1-9.1z"/><linearGradient id="SVGID_27_" gradientUnits="userSpaceOnUse" x1="1596.75" y1="137.005" x2="1436.008" y2="293.014"><stop offset=".254" stop-color="#54769e"/><stop offset=".41" stop-color="#4d6e93"/><stop offset=".681" stop-color="#3c5777"/><stop offset="1" stop-color="#22364e"/></linearGradient><path fill="url(#SVGID_27_)" d="M1483.9 242.3l-3 8.3 63-58z"/><linearGradient id="SVGID_28_" gradientUnits="userSpaceOnUse" x1="1538.39" y1="157.823" x2="1672.346" y2="277.272"><stop offset=".254" stop-color="#54769e"/><stop offset=".41" stop-color="#4d6e93"/><stop offset=".681" stop-color="#3c5777"/><stop offset="1" stop-color="#22364e"/></linearGradient><path fill="url(#SVGID_28_)" d="M1636.1 242.3l-59.7-49.7 62.6 57.6z"/><linearGradient id="SVGID_29_" gradientUnits="userSpaceOnUse" x1="1391.266" y1="391.417" x2="1678.697" y2="494.001"><stop offset=".266" stop-color="#54769e"/><stop offset="1" stop-color="#425e7f"/></linearGradient><path fill="url(#SVGID_29_)" d="M1423.3 346.5l146.4 80.8 18.6 46.3-39.3 15-61-6.3-64.8-89.1z"/><path class="st12" d="M1544.5 413.5l-56.4 68.6-.1.2 60.9 20.5h.1l47.7-24.4.1-.1v-36.2z"/><linearGradient id="SVGID_30_" gradientUnits="userSpaceOnUse" x1="1521.132" y1="92.239" x2="1692.207" y2="244.662"><stop offset=".461" stop-color="#54769e" stop-opacity="0"/><stop offset=".57" stop-color="#52739a" stop-opacity=".216"/><stop offset=".676" stop-color="#4a698e" stop-opacity=".427"/><stop offset=".782" stop-color="#3d597b" stop-opacity=".636"/><stop offset=".886" stop-color="#2c435f" stop-opacity=".842"/><stop offset=".966" stop-color="#1b2e45"/></linearGradient><path fill="url(#SVGID_30_)" d="M1636.1 242.3l17.9-82.7-52.1 27.4-25.5 5.6z"/><path class="st12" d="M1560 362.1l-16.5-18.1 16.5-18.2 16.6 18.2z"/><linearGradient id="SVGID_31_" gradientUnits="userSpaceOnUse" x1="1560.032" y1="508.704" x2="1560.032" y2="63.913"><stop offset=".254" stop-color="#54769e"/><stop offset=".41" stop-color="#4d6e93"/><stop offset=".681" stop-color="#3c5777"/><stop offset="1" stop-color="#22364e"/></linearGradient><path fill="url(#SVGID_31_)" d="M1558.4 195.8l1.7.3 1.5-.3-1.6 105.7z"/><path class="st12" d="M178.2 75c-12.4 0-25.6 4.4-25.6 15 0 9.5 12.1 12.3 26.5 14.4 19.5 2.8 38.7 6.3 38.7 26-.1 19.7-21 26-39.7 26-17.3 0-33.7-5.6-41.2-20.3l10-5.3c6.3 10.4 19.4 15.4 31.3 15.4 11.8 0 27.6-3.4 27.6-16.3.1-10.9-13.5-14-28.1-16-18.8-2.6-37-6.5-37-24.3-.3-18.3 20.5-24.5 37.3-24.5 14.5 0 28.3 2.6 36.9 15.9l-9.2 5.1c-5.4-7.5-16.6-11-27.5-11.1zm59.4-7.8v35.9c5.8-8.1 15-10.9 23.8-11 19.4 0 28.8 11.5 28.8 28.5v34.1H279v-33.9c0-12.1-7-19-19.5-19s-21.7 8.9-21.7 20.2v32.8h-11.4V67.1h11.3v.1zM360 155l-.3-11.3c-5.4 8.5-15.9 12.5-25.3 12.5-19.8 0-35.2-12.3-35.2-32.4 0-20 15.7-32.1 35.4-31.9 10.3 0 20.5 4.3 25.5 12.3l.1-11.3h11.1v61.9h-11l-.3.2zm-25.1-53.4c-13.6 0-24.6 8.8-24.6 22.5s11 22.7 24.6 22.7c33.1 0 33.1-45.3.1-45.3l-.1.1zm45.5-8.5h10.9l.6 11.9c5.4-8.3 15.6-13 26.5-13 19.8.4 34.3 12.9 34.3 31.9 0 19.5-14.3 32.2-34.9 32.2-9.7 0-20.6-3.8-26-12.5v40.3h-11.1V93.1zm60.7 31.1c0-13.9-10.2-22.2-24.2-22.2-14.3 0-24.1 9.5-24.1 22.2s10.2 22.2 24.1 22.3c13.8 0 24.2-8.4 24.2-22.3zm85.1 20.6c-7 7.4-18.9 11-29.7 11-21.3 0-36.2-12.6-36.2-32.3 0-18.7 14.9-32.1 35.6-32.1 21 0 37 11.6 34.4 36.3h-58.5c1.3 11.4 11.7 18.5 24.9 18.5 7.8 0 17.3-2.8 21.9-7.8l7.7 6.3h-.1zm-6.7-25.5c-.6-12-9.7-18.5-23.3-18.5-12 0-22.4 6.5-24.4 18.4h47.6v.1zM576.9 75c-12.4 0-25.6 4.4-25.6 15 0 9.5 12.1 12.3 26.5 14.4 19.5 2.8 38.7 6.3 38.7 26-.1 19.7-21 26-39.7 26-17.3 0-33.7-5.6-41.2-20.3l10-5.3c6.3 10.4 19.4 15.4 31.3 15.4 11.8 0 27.6-3.4 27.6-16.3.1-10.9-13.5-14-28.1-16-18.8-2.6-37-6.5-37-24.3-.3-18.3 20.5-24.5 37.3-24.5 14.5 0 28.3 2.6 36.9 15.9l-9.2 5.1c-5.4-7.5-16.7-11-27.5-11.1zm59.4-7.8v35.9c5.8-8.1 15-10.9 23.8-11 19.4 0 28.8 11.5 28.8 28.5v34.1h-11.3v-33.9c0-12.1-7-19-19.5-19s-21.7 8.9-21.7 20.2v32.8H625V67.1h11.3v.1zm61.9 87.5h11.4v-61h-11.4v61zm5.9-70.3l-9-8.9 9-8.9 9 8.9-9 8.9zm26.9 70.4v-.1h-.2zm11.2-66.1c0-9.3 4.7-13.4 12.1-13.4h.4l2.6-8.8c-1.1-.1-2.2-.2-3.3-.2-14.5 0-23.1 8.3-23.1 22.4v4.9h-13.5v9H731v52.1h11.3v-52.1H756v-9h-13.7v-4.9zm58 57.4c-.9.1-1.8.2-2.6.2-8.2 0-10.9-4.6-10.9-11.9v-31.9h14.7v-8.9h-14.5V74.8L775.5 76v17.7h-13.8v8.9h13.8v31.9c0 13.6 7 21.4 21.7 21.2 1.8 0 3.6-.2 5.3-.6l-2.3-9z"/><linearGradient id="SVGID_32_" gradientUnits="userSpaceOnUse" x1="23.145" y1="126.129" x2="108.173" y2="126.129"><stop offset=".266" stop-color="#54769e"/><stop offset="1" stop-color="#425e7f"/></linearGradient><path fill="url(#SVGID_32_)" d="M23.2 91l-.1 19.5 29.8 41.7 31.9 9.1 23.4-13.3z"/><linearGradient id="SVGID_33_" gradientUnits="userSpaceOnUse" x1="87.216" y1="18.298" x2="53.512" y2="116.071"><stop offset=".135" stop-color="#2b415b"/><stop offset=".376" stop-color="#3b5676"/><stop offset=".692" stop-color="#54769e"/><stop offset=".79" stop-color="#52749b"/><stop offset=".861" stop-color="#4d6c92"/><stop offset=".924" stop-color="#436082"/><stop offset=".982" stop-color="#364f6c"/><stop offset="1" stop-color="#314863"/></linearGradient><path fill="url(#SVGID_33_)" d="M71.1 52.1L23.2 89.9l66.7 34.5.3-71.2z"/><path class="st4" d="M64.3 75.5L90 137.3l.2-58.4z"/><path class="st0" d="M115.7 75.7L90 137.3l.2-58.4z"/><linearGradient id="SVGID_34_" gradientUnits="userSpaceOnUse" x1="135.435" y1="65.064" x2="42.052" y2="11.149"><stop offset="0" stop-color="#54769e"/><stop offset=".48" stop-color="#53749c"/><stop offset=".688" stop-color="#4f6f95"/><stop offset=".842" stop-color="#486588"/><stop offset=".909" stop-color="#435f80"/></linearGradient><path fill="url(#SVGID_34_)" d="M136.2 7.6l-25.5 12-20.5 4.1-20.6-4.1L44.1 7.5 52.9 44l-8.3 20.5 29.2 16.3 16.3 15.8v.2-.1l.1.1v-.2l16.3-15.8 29.3-16.3-8.3-20.5z"/><linearGradient id="SVGID_35_" gradientUnits="userSpaceOnUse" x1="191.162" y1="36.032" x2="96.977" y2="36.032"><stop offset=".254" stop-color="#20344c"/><stop offset=".407" stop-color="#273d57"/><stop offset=".673" stop-color="#395373"/><stop offset="1" stop-color="#54769e"/></linearGradient><path fill="url(#SVGID_35_)" d="M136.2 7.6l-7.1 36.5 6.7 20.4-8.3-20.5z"/><linearGradient id="SVGID_36_" gradientUnits="userSpaceOnUse" x1="-13.257" y1="36.009" x2="84.114" y2="36.009"><stop offset=".254" stop-color="#54769e"/><stop offset=".413" stop-color="#4d6e93"/><stop offset=".69" stop-color="#3c5777"/><stop offset="1" stop-color="#233850"/></linearGradient><path fill="url(#SVGID_36_)" d="M44.1 7.5l7.2 36.6-6.7 20.4L52.9 44z"/><linearGradient id="SVGID_37_" gradientUnits="userSpaceOnUse" x1="90.992" y1="-26.586" x2="89.249" y2="45.76"><stop offset=".007" stop-color="#54769e"/><stop offset=".199" stop-color="#507198"/><stop offset=".45" stop-color="#466488"/><stop offset=".732" stop-color="#354f6d"/><stop offset="1" stop-color="#21354d"/></linearGradient><path fill="url(#SVGID_37_)" d="M44.1 7.5l29.8 11.2h32.6l29.7-11.1-25.5 12-20.5 4.1-20.6-4.1z"/><linearGradient id="SVGID_38_" gradientUnits="userSpaceOnUse" x1="106.273" y1="-4.493" x2="31.293" y2="68.28"><stop offset=".254" stop-color="#54769e"/><stop offset=".41" stop-color="#4d6e93"/><stop offset=".681" stop-color="#3c5777"/><stop offset="1" stop-color="#22364e"/></linearGradient><path fill="url(#SVGID_38_)" d="M52.9 44l-1.5 3.6 30.9-25.5z"/><linearGradient id="SVGID_39_" gradientUnits="userSpaceOnUse" x1="81.272" y1="4.92" x2="143.897" y2="60.763"><stop offset=".254" stop-color="#54769e"/><stop offset=".41" stop-color="#4d6e93"/><stop offset=".681" stop-color="#3c5777"/><stop offset="1" stop-color="#22364e"/></linearGradient><path fill="url(#SVGID_39_)" d="M127.5 44L98.2 22.1l30.7 25.4z"/><linearGradient id="SVGID_40_" gradientUnits="userSpaceOnUse" x1="8.743" y1="108.986" x2="146.451" y2="158.133"><stop offset=".266" stop-color="#54769e"/><stop offset="1" stop-color="#425e7f"/></linearGradient><path fill="url(#SVGID_40_)" d="M23.2 89.9l71.7 35.6 9.1 20.4-19.2 6.6-29.9-2.8-31.7-39.2z"/><path class="st12" d="M82.6 119.4L55 149.6l-.1.1 29.9 9 23.3-10.7h.1v-16z"/><linearGradient id="SVGID_41_" gradientUnits="userSpaceOnUse" x1="72.424" y1="-25.064" x2="152.61" y2="46.379"><stop offset=".461" stop-color="#54769e" stop-opacity="0"/><stop offset=".57" stop-color="#52739a" stop-opacity=".216"/><stop offset=".676" stop-color="#4a698e" stop-opacity=".427"/><stop offset=".782" stop-color="#3d597b" stop-opacity=".636"/><stop offset=".886" stop-color="#2c435f" stop-opacity=".842"/><stop offset=".966" stop-color="#1b2e45"/></linearGradient><path fill="url(#SVGID_41_)" d="M127.5 44l8.7-36.4-25.5 12-12.5 2.5z"/><path class="st12" d="M90.2 96.8l-8.1-8 8.1-8 8.1 8z"/><linearGradient id="SVGID_42_" gradientUnits="userSpaceOnUse" x1="90.183" y1="161.343" x2="90.183" y2="-34.557"><stop offset=".254" stop-color="#54769e"/><stop offset=".41" stop-color="#4d6e93"/><stop offset=".681" stop-color="#3c5777"/><stop offset="1" stop-color="#22364e"/></linearGradient><path fill="url(#SVGID_42_)" d="M89.4 23.5l.8.2.8-.2-.8 46.6z"/></svg>